<?xml version="1.0" encoding="UTF-8" standalone="no"?>
<!DOCTYPE svg PUBLIC "-//W3C//DTD SVG 1.1//EN"
 "http://www.w3.org/Graphics/SVG/1.1/DTD/svg11.dtd">
<!-- Generated by graphviz version 8.0.5 (20230430.1635)
 -->
<!-- Title: ToLayerCoord Pages: 1 -->
<svg width="172pt" height="66pt"
 viewBox="0.00 0.00 172.00 66.00" xmlns="http://www.w3.org/2000/svg" xmlns:xlink="http://www.w3.org/1999/xlink">
<g id="graph0" class="graph" transform="scale(1 1) rotate(0) translate(4 62)">
<title>ToLayerCoord</title>
<!-- Node1 -->
<g id="node1" class="node">
<title>Node1</title>
<g id="a_node1"><a xlink:title=" ">
<polygon fill="#999999" stroke="#666666" points="164,-39 88,-39 88,-19 164,-19 164,-39"/>
<text text-anchor="middle" x="126" y="-25.5" font-family="Helvetica,sans-Serif" font-size="10.00">ToLayerCoord</text>
</a>
</g>
</g>
<!-- Node2 -->
<g id="node2" class="node">
<title>Node2</title>
<g id="a_node2"><a xlink:href="class_code_smile_1_1_pro_tiler_1_1_data_1_1___old_tilemap3_d.html#ad94ef5007e9cd776232e3298b7955708" target="_top" xlink:title=" ">
<polygon fill="white" stroke="#666666" points="52,-58 0,-58 0,-38 52,-38 52,-58"/>
<text text-anchor="middle" x="26" y="-44.5" font-family="Helvetica,sans-Serif" font-size="10.00">GetTiles</text>
</a>
</g>
</g>
<!-- Node1&#45;&gt;Node2 -->
<g id="edge1" class="edge">
<title>Node1&#45;&gt;Node2</title>
<path fill="none" stroke="#63b8ff" d="M76.99,-38.31C68.48,-39.96 59.94,-41.61 52.38,-43.08"/>
<polygon fill="#63b8ff" stroke="#63b8ff" points="77.52,-41.58 86.67,-36.24 76.19,-34.7 77.52,-41.58"/>
</g>
<!-- Node3 -->
<g id="node3" class="node">
<title>Node3</title>
<g id="a_node3"><a xlink:href="class_code_smile_1_1_pro_tiler_1_1_data_1_1___old_tilemap3_d.html#afd7d841ae051f11848338d799e0e5ff6" target="_top" xlink:title=" ">
<polygon fill="white" stroke="#666666" points="51.62,-20 0.38,-20 0.38,0 51.62,0 51.62,-20"/>
<text text-anchor="middle" x="26" y="-6.5" font-family="Helvetica,sans-Serif" font-size="10.00">SetTiles</text>
</a>
</g>
</g>
<!-- Node1&#45;&gt;Node3 -->
<g id="edge2" class="edge">
<title>Node1&#45;&gt;Node3</title>
<path fill="none" stroke="#63b8ff" d="M76.89,-19.67C68.31,-18.01 59.68,-16.34 52.08,-14.86"/>
<polygon fill="#63b8ff" stroke="#63b8ff" points="76.19,-23.3 86.67,-21.76 77.52,-16.42 76.19,-23.3"/>
</g>
</g>
</svg>
