<?xml version="1.0" encoding="UTF-8" standalone="no"?>
<!DOCTYPE svg PUBLIC "-//W3C//DTD SVG 1.1//EN"
 "http://www.w3.org/Graphics/SVG/1.1/DTD/svg11.dtd">
<!-- Generated by graphviz version 8.0.5 (20230430.1635)
 -->
<!-- Title: LayerToGridCoord Pages: 1 -->
<svg width="400pt" height="66pt"
 viewBox="0.00 0.00 400.00 66.00" xmlns="http://www.w3.org/2000/svg" xmlns:xlink="http://www.w3.org/1999/xlink">
<g id="graph0" class="graph" transform="scale(1 1) rotate(0) translate(4 62)">
<title>LayerToGridCoord</title>
<!-- Node1 -->
<g id="node1" class="node">
<title>Node1</title>
<g id="a_node1"><a xlink:title=" ">
<polygon fill="#999999" stroke="#666666" points="392,-39 298,-39 298,-19 392,-19 392,-39"/>
<text text-anchor="middle" x="345" y="-25.5" font-family="Helvetica,sans-Serif" font-size="10.00">LayerToGridCoord</text>
</a>
</g>
</g>
<!-- Node2 -->
<g id="node2" class="node">
<title>Node2</title>
<g id="a_node2"><a xlink:href="class_code_smile_1_1_pro_tiler_1_1_data_1_1_tilemap3_d_utility.html#a2299dc141539f472d5f08cbec912d980" target="_top" xlink:title=" ">
<polygon fill="white" stroke="#666666" points="193.75,-58 68.25,-58 68.25,-38 193.75,-38 193.75,-58"/>
<text text-anchor="middle" x="131" y="-44.5" font-family="Helvetica,sans-Serif" font-size="10.00">GetAllChunkLayerCoords</text>
</a>
</g>
</g>
<!-- Node1&#45;&gt;Node2 -->
<g id="edge1" class="edge">
<title>Node1&#45;&gt;Node2</title>
<path fill="none" stroke="#63b8ff" d="M287.03,-34.11C258.26,-36.68 223.29,-39.82 193.85,-42.46"/>
<polygon fill="#63b8ff" stroke="#63b8ff" points="287.09,-37.52 296.74,-33.15 286.47,-30.55 287.09,-37.52"/>
</g>
<!-- Node3 -->
<g id="node3" class="node">
<title>Node3</title>
<g id="a_node3"><a xlink:href="class_code_smile_1_1_pro_tiler_1_1_data_1_1_tilemap3_d_chunk.html#ac140dadaf533d788d0779d7ce9f5e770" target="_top" xlink:title=" ">
<polygon fill="white" stroke="#666666" points="262,-20 0,-20 0,0 262,0 262,-20"/>
<text text-anchor="middle" x="131" y="-6.5" font-family="Helvetica,sans-Serif" font-size="10.00">CodeSmile.ProTiler.Data.Tilemap3DChunk.GetLayerTiles</text>
</a>
</g>
</g>
<!-- Node1&#45;&gt;Node3 -->
<g id="edge2" class="edge">
<title>Node1&#45;&gt;Node3</title>
<path fill="none" stroke="#63b8ff" d="M287.11,-23.9C275.19,-22.83 262.2,-21.67 248.98,-20.48"/>
<polygon fill="#63b8ff" stroke="#63b8ff" points="286.47,-27.45 296.74,-24.85 287.09,-20.48 286.47,-27.45"/>
</g>
</g>
</svg>
