<?xml version="1.0" encoding="UTF-8" standalone="no"?>
<!DOCTYPE svg PUBLIC "-//W3C//DTD SVG 1.1//EN"
 "http://www.w3.org/Graphics/SVG/1.1/DTD/svg11.dtd">
<!-- Generated by graphviz version 8.0.5 (20230430.1635)
 -->
<!-- Title: Tile3DAsset Pages: 1 -->
<svg width="108pt" height="287pt"
 viewBox="0.00 0.00 108.00 287.00" xmlns="http://www.w3.org/2000/svg" xmlns:xlink="http://www.w3.org/1999/xlink">
<g id="graph0" class="graph" transform="scale(1 1) rotate(0) translate(4 283)">
<title>Tile3DAsset</title>
<!-- Node1 -->
<g id="node1" class="node">
<title>Node1</title>
<g id="a_node1"><a xlink:title=" ">
<polygon fill="#999999" stroke="#666666" points="15.75,-0.5 15.75,-60.5 84.25,-60.5 84.25,-0.5 15.75,-0.5"/>
<text text-anchor="middle" x="50" y="-47" font-family="Helvetica,sans-Serif" font-size="10.00">Tile3DAsset</text>
<polyline fill="none" stroke="#666666" points="15.75,-40.5 84.25,-40.5"/>
<text text-anchor="middle" x="50" y="-27" font-family="Helvetica,sans-Serif" font-size="10.00"> </text>
<polyline fill="none" stroke="#666666" points="15.75,-20.5 84.25,-20.5"/>
<text text-anchor="middle" x="50" y="-7" font-family="Helvetica,sans-Serif" font-size="10.00"> </text>
</a>
</g>
</g>
<!-- Node2 -->
<g id="node2" class="node">
<title>Node2</title>
<g id="a_node2"><a xlink:href="class_code_smile_1_1_pro_tiler_1_1_assets_1_1_tile3_d_asset_base.html" target="_top" xlink:title=" ">
<polygon fill="white" stroke="#666666" points="0,-97.5 0,-181.5 100,-181.5 100,-97.5 0,-97.5"/>
<text text-anchor="middle" x="50" y="-168" font-family="Helvetica,sans-Serif" font-size="10.00">Tile3DAssetBase</text>
<polyline fill="none" stroke="#666666" points="0,-161.5 100,-161.5"/>
<text text-anchor="start" x="8" y="-148" font-family="Helvetica,sans-Serif" font-size="10.00">+ Flags</text>
<text text-anchor="start" x="8" y="-136" font-family="Helvetica,sans-Serif" font-size="10.00">+ Prefab</text>
<text text-anchor="start" x="8" y="-124" font-family="Helvetica,sans-Serif" font-size="10.00">+ Transform</text>
<polyline fill="none" stroke="#666666" points="0,-117.5 100,-117.5"/>
<text text-anchor="start" x="8" y="-104" font-family="Helvetica,sans-Serif" font-size="10.00">~ SetDefaultFlags()</text>
</a>
</g>
</g>
<!-- Node2&#45;&gt;Node1 -->
<g id="edge1" class="edge">
<title>Node2&#45;&gt;Node1</title>
<path fill="none" stroke="#63b8ff" d="M50,-87.01C50,-77.78 50,-68.47 50,-60.18"/>
<polygon fill="none" stroke="#63b8ff" points="46.5,-86.74 50,-96.74 53.5,-86.74 46.5,-86.74"/>
</g>
<!-- Node3 -->
<g id="node3" class="node">
<title>Node3</title>
<g id="a_node3"><a xlink:title=" ">
<polygon fill="white" stroke="#666666" points="6,-218.5 6,-278.5 94,-278.5 94,-218.5 6,-218.5"/>
<text text-anchor="middle" x="50" y="-265" font-family="Helvetica,sans-Serif" font-size="10.00">ScriptableObject</text>
<polyline fill="none" stroke="#666666" points="6,-258.5 94,-258.5"/>
<text text-anchor="middle" x="50" y="-245" font-family="Helvetica,sans-Serif" font-size="10.00"> </text>
<polyline fill="none" stroke="#666666" points="6,-238.5 94,-238.5"/>
<text text-anchor="middle" x="50" y="-225" font-family="Helvetica,sans-Serif" font-size="10.00"> </text>
</a>
</g>
</g>
<!-- Node3&#45;&gt;Node2 -->
<g id="edge2" class="edge">
<title>Node3&#45;&gt;Node2</title>
<path fill="none" stroke="#63b8ff" d="M50,-207.57C50,-198.93 50,-189.79 50,-181.13"/>
<polygon fill="none" stroke="#63b8ff" points="46.5,-207.54 50,-217.54 53.5,-207.54 46.5,-207.54"/>
</g>
</g>
</svg>
