<?xml version="1.0" encoding="UTF-8" standalone="no"?>
<!DOCTYPE svg PUBLIC "-//W3C//DTD SVG 1.1//EN"
 "http://www.w3.org/Graphics/SVG/1.1/DTD/svg11.dtd">
<!-- Generated by graphviz version 8.0.5 (20230430.1635)
 -->
<!-- Title: ChunkCoords Pages: 1 -->
<svg width="190pt" height="178pt"
 viewBox="0.00 0.00 189.75 178.00" xmlns="http://www.w3.org/2000/svg" xmlns:xlink="http://www.w3.org/1999/xlink">
<g id="graph0" class="graph" transform="scale(1 1) rotate(0) translate(4 174)">
<title>ChunkCoords</title>
<!-- Node1 -->
<g id="node1" class="node">
<title>Node1</title>
<g id="a_node1"><a xlink:title=" ">
<polygon fill="#999999" stroke="#666666" points="40.88,-0.5 40.88,-72.5 140.88,-72.5 140.88,-0.5 40.88,-0.5"/>
<text text-anchor="middle" x="90.88" y="-59" font-family="Helvetica,sans-Serif" font-size="10.00">ChunkCoords</text>
<polyline fill="none" stroke="#666666" points="40.88,-52.5 140.88,-52.5"/>
<text text-anchor="middle" x="90.88" y="-39" font-family="Helvetica,sans-Serif" font-size="10.00"> </text>
<polyline fill="none" stroke="#666666" points="40.88,-32.5 140.88,-32.5"/>
<text text-anchor="start" x="48.88" y="-19" font-family="Helvetica,sans-Serif" font-size="10.00">+ ChunkCoords()</text>
<text text-anchor="start" x="48.88" y="-7" font-family="Helvetica,sans-Serif" font-size="10.00">+ GetChunkCoord()</text>
</a>
</g>
</g>
<!-- Node2 -->
<g id="node2" class="node">
<title>Node2</title>
<g id="a_node2"><a xlink:title=" ">
<polygon fill="white" stroke="#666666" points="0,-109.5 0,-169.5 181.75,-169.5 181.75,-109.5 0,-109.5"/>
<text text-anchor="middle" x="90.88" y="-156" font-family="Helvetica,sans-Serif" font-size="10.00">Dictionary&lt; long, IList&lt; Vector3Int &gt; &gt;</text>
<polyline fill="none" stroke="#666666" points="0,-149.5 181.75,-149.5"/>
<text text-anchor="middle" x="90.88" y="-136" font-family="Helvetica,sans-Serif" font-size="10.00"> </text>
<polyline fill="none" stroke="#666666" points="0,-129.5 181.75,-129.5"/>
<text text-anchor="middle" x="90.88" y="-116" font-family="Helvetica,sans-Serif" font-size="10.00"> </text>
</a>
</g>
</g>
<!-- Node2&#45;&gt;Node1 -->
<g id="edge1" class="edge">
<title>Node2&#45;&gt;Node1</title>
<path fill="none" stroke="#63b8ff" d="M90.88,-98.76C90.88,-89.98 90.88,-80.74 90.88,-72.17"/>
<polygon fill="none" stroke="#63b8ff" points="87.38,-98.56 90.88,-108.56 94.38,-98.56 87.38,-98.56"/>
</g>
</g>
</svg>
