<?xml version="1.0" encoding="UTF-8" standalone="no"?>
<!DOCTYPE svg PUBLIC "-//W3C//DTD SVG 1.1//EN"
 "http://www.w3.org/Graphics/SVG/1.1/DTD/svg11.dtd">
<!-- Generated by graphviz version 8.0.5 (20230430.1635)
 -->
<!-- Title: PressEscapeToQuit Pages: 1 -->
<svg width="111pt" height="166pt"
 viewBox="0.00 0.00 111.00 166.00" xmlns="http://www.w3.org/2000/svg" xmlns:xlink="http://www.w3.org/1999/xlink">
<g id="graph0" class="graph" transform="scale(1 1) rotate(0) translate(4 162)">
<title>PressEscapeToQuit</title>
<!-- Node1 -->
<g id="node1" class="node">
<title>Node1</title>
<g id="a_node1"><a xlink:title=" ">
<polygon fill="#999999" stroke="#666666" points="0,-0.5 0,-60.5 103,-60.5 103,-0.5 0,-0.5"/>
<text text-anchor="middle" x="51.5" y="-47" font-family="Helvetica,sans-Serif" font-size="10.00">PressEscapeToQuit</text>
<polyline fill="none" stroke="#666666" points="0,-40.5 103,-40.5"/>
<text text-anchor="middle" x="51.5" y="-27" font-family="Helvetica,sans-Serif" font-size="10.00"> </text>
<polyline fill="none" stroke="#666666" points="0,-20.5 103,-20.5"/>
<text text-anchor="middle" x="51.5" y="-7" font-family="Helvetica,sans-Serif" font-size="10.00"> </text>
</a>
</g>
</g>
<!-- Node2 -->
<g id="node2" class="node">
<title>Node2</title>
<g id="a_node2"><a xlink:title=" ">
<polygon fill="white" stroke="#666666" points="10.5,-97.5 10.5,-157.5 92.5,-157.5 92.5,-97.5 10.5,-97.5"/>
<text text-anchor="middle" x="51.5" y="-144" font-family="Helvetica,sans-Serif" font-size="10.00">MonoBehaviour</text>
<polyline fill="none" stroke="#666666" points="10.5,-137.5 92.5,-137.5"/>
<text text-anchor="middle" x="51.5" y="-124" font-family="Helvetica,sans-Serif" font-size="10.00"> </text>
<polyline fill="none" stroke="#666666" points="10.5,-117.5 92.5,-117.5"/>
<text text-anchor="middle" x="51.5" y="-104" font-family="Helvetica,sans-Serif" font-size="10.00"> </text>
</a>
</g>
</g>
<!-- Node2&#45;&gt;Node1 -->
<g id="edge1" class="edge">
<title>Node2&#45;&gt;Node1</title>
<path fill="none" stroke="#63b8ff" d="M51.5,-86.84C51.5,-78.01 51.5,-68.8 51.5,-60.49"/>
<polygon fill="none" stroke="#63b8ff" points="48,-86.74 51.5,-96.74 55,-86.74 48,-86.74"/>
</g>
</g>
</svg>
