<?xml version="1.0" encoding="UTF-8" standalone="no"?>
<!DOCTYPE svg PUBLIC "-//W3C//DTD SVG 1.1//EN"
 "http://www.w3.org/Graphics/SVG/1.1/DTD/svg11.dtd">
<!-- Generated by graphviz version 8.0.5 (20230430.1635)
 -->
<!-- Title: Tilemap3DBehaviour Pages: 1 -->
<svg width="166pt" height="298pt"
 viewBox="0.00 0.00 165.75 298.00" xmlns="http://www.w3.org/2000/svg" xmlns:xlink="http://www.w3.org/1999/xlink">
<g id="graph0" class="graph" transform="scale(1 1) rotate(0) translate(4 294)">
<title>Tilemap3DBehaviour</title>
<!-- Node1 -->
<g id="node1" class="node">
<title>Node1</title>
<g id="a_node1"><a xlink:title=" ">
<polygon fill="#999999" stroke="#666666" points="0,-0.5 0,-192.5 157.75,-192.5 157.75,-0.5 0,-0.5"/>
<text text-anchor="middle" x="78.88" y="-179" font-family="Helvetica,sans-Serif" font-size="10.00">Tilemap3DBehaviour</text>
<polyline fill="none" stroke="#666666" points="0,-172.5 157.75,-172.5"/>
<text text-anchor="start" x="8" y="-159" font-family="Helvetica,sans-Serif" font-size="10.00">+ ChunkCount</text>
<text text-anchor="start" x="8" y="-147" font-family="Helvetica,sans-Serif" font-size="10.00">+ ChunkSize</text>
<text text-anchor="start" x="8" y="-135" font-family="Helvetica,sans-Serif" font-size="10.00">+ Grid</text>
<text text-anchor="start" x="8" y="-123" font-family="Helvetica,sans-Serif" font-size="10.00">+ TileCount</text>
<polyline fill="none" stroke="#666666" points="0,-116.5 157.75,-116.5"/>
<text text-anchor="start" x="8" y="-103" font-family="Helvetica,sans-Serif" font-size="10.00">+ GetTile()</text>
<text text-anchor="start" x="8" y="-91" font-family="Helvetica,sans-Serif" font-size="10.00">+ GetTiles()</text>
<text text-anchor="start" x="8" y="-79" font-family="Helvetica,sans-Serif" font-size="10.00">+ SetTile()</text>
<text text-anchor="start" x="8" y="-67" font-family="Helvetica,sans-Serif" font-size="10.00">+ SetTiles()</text>
<text text-anchor="start" x="8" y="-55" font-family="Helvetica,sans-Serif" font-size="10.00">~ ClearTilemap()</text>
<text text-anchor="start" x="8" y="-43" font-family="Helvetica,sans-Serif" font-size="10.00">~ CreateTilemapNoUndo()</text>
<text text-anchor="start" x="8" y="-31" font-family="Helvetica,sans-Serif" font-size="10.00">~ GetLayerCount()</text>
<text text-anchor="start" x="8" y="-19" font-family="Helvetica,sans-Serif" font-size="10.00">~ RegisterEditorEvents()</text>
<text text-anchor="start" x="8" y="-7" font-family="Helvetica,sans-Serif" font-size="10.00">~ UnregisterEditorSceneEvents()</text>
</a>
</g>
</g>
<!-- Node2 -->
<g id="node2" class="node">
<title>Node2</title>
<g id="a_node2"><a xlink:title=" ">
<polygon fill="white" stroke="#666666" points="37.88,-229.5 37.88,-289.5 119.88,-289.5 119.88,-229.5 37.88,-229.5"/>
<text text-anchor="middle" x="78.88" y="-276" font-family="Helvetica,sans-Serif" font-size="10.00">MonoBehaviour</text>
<polyline fill="none" stroke="#666666" points="37.88,-269.5 119.88,-269.5"/>
<text text-anchor="middle" x="78.88" y="-256" font-family="Helvetica,sans-Serif" font-size="10.00"> </text>
<polyline fill="none" stroke="#666666" points="37.88,-249.5 119.88,-249.5"/>
<text text-anchor="middle" x="78.88" y="-236" font-family="Helvetica,sans-Serif" font-size="10.00"> </text>
</a>
</g>
</g>
<!-- Node2&#45;&gt;Node1 -->
<g id="edge1" class="edge">
<title>Node2&#45;&gt;Node1</title>
<path fill="none" stroke="#63b8ff" d="M78.88,-218.95C78.88,-210.66 78.88,-201.59 78.88,-192.25"/>
<polygon fill="none" stroke="#63b8ff" points="75.38,-218.72 78.88,-228.72 82.38,-218.72 75.38,-218.72"/>
</g>
</g>
</svg>
