<?xml version="1.0" encoding="UTF-8" standalone="no"?>
<!DOCTYPE svg PUBLIC "-//W3C//DTD SVG 1.1//EN"
 "http://www.w3.org/Graphics/SVG/1.1/DTD/svg11.dtd">
<!-- Generated by graphviz version 8.0.5 (20230430.1635)
 -->
<!-- Title: LoadMissingTileAssetAndSetAsDefault Pages: 1 -->
<svg width="351pt" height="66pt"
 viewBox="0.00 0.00 351.25 66.00" xmlns="http://www.w3.org/2000/svg" xmlns:xlink="http://www.w3.org/1999/xlink">
<g id="graph0" class="graph" transform="scale(1 1) rotate(0) translate(4 62)">
<title>LoadMissingTileAssetAndSetAsDefault</title>
<!-- Node1 -->
<g id="node1" class="node">
<title>Node1</title>
<g id="a_node1"><a xlink:title=" ">
<polygon fill="#999999" stroke="#666666" points="185.5,-39 0,-39 0,-19 185.5,-19 185.5,-39"/>
<text text-anchor="middle" x="92.75" y="-25.5" font-family="Helvetica,sans-Serif" font-size="10.00">LoadMissingTileAssetAndSetAsDefault</text>
</a>
</g>
</g>
<!-- Node2 -->
<g id="node2" class="node">
<title>Node2</title>
<g id="a_node2"><a xlink:href="class_code_smile_1_1_pro_tiler_1_1_assets_1_1_tile3_d_asset_base_set.html#ace56133091db10f4f336128628f76938" target="_top" xlink:title=" ">
<polygon fill="white" stroke="#666666" points="338,-58 226.75,-58 226.75,-38 338,-38 338,-58"/>
<text text-anchor="middle" x="282.38" y="-44.5" font-family="Helvetica,sans-Serif" font-size="10.00">LoadMissingTileAsset</text>
</a>
</g>
</g>
<!-- Node1&#45;&gt;Node2 -->
<g id="edge1" class="edge">
<title>Node1&#45;&gt;Node2</title>
<path fill="none" stroke="#63b8ff" d="M185.91,-38.33C195.95,-39.35 206,-40.37 215.63,-41.34"/>
<polygon fill="#63b8ff" stroke="#63b8ff" points="214.98,-44.9 225.28,-42.42 215.69,-37.93 214.98,-44.9"/>
</g>
<!-- Node3 -->
<g id="node3" class="node">
<title>Node3</title>
<g id="a_node3"><a xlink:href="class_code_smile_1_1_pro_tiler_1_1_assets_1_1_tile3_d_asset_base_set.html#ad72dd7b495468e2776d832abf1d9d6aa" target="_top" xlink:title=" ">
<polygon fill="white" stroke="#666666" points="343.25,-20 221.5,-20 221.5,0 343.25,0 343.25,-20"/>
<text text-anchor="middle" x="282.38" y="-6.5" font-family="Helvetica,sans-Serif" font-size="10.00">SetMissingTileAsDefault</text>
</a>
</g>
</g>
<!-- Node1&#45;&gt;Node3 -->
<g id="edge2" class="edge">
<title>Node1&#45;&gt;Node3</title>
<path fill="none" stroke="#63b8ff" d="M185.91,-19.67C194.13,-18.83 202.37,-18 210.37,-17.19"/>
<polygon fill="#63b8ff" stroke="#63b8ff" points="210.51,-20.59 220.11,-16.1 209.81,-13.63 210.51,-20.59"/>
</g>
</g>
</svg>
