<?xml version="1.0" encoding="UTF-8" standalone="no"?>
<!DOCTYPE svg PUBLIC "-//W3C//DTD SVG 1.1//EN"
 "http://www.w3.org/Graphics/SVG/1.1/DTD/svg11.dtd">
<!-- Generated by graphviz version 8.0.5 (20230430.1635)
 -->
<!-- Title: DropToGround Pages: 1 -->
<svg width="90pt" height="166pt"
 viewBox="0.00 0.00 90.00 166.00" xmlns="http://www.w3.org/2000/svg" xmlns:xlink="http://www.w3.org/1999/xlink">
<g id="graph0" class="graph" transform="scale(1 1) rotate(0) translate(4 162)">
<title>DropToGround</title>
<!-- Node1 -->
<g id="node1" class="node">
<title>Node1</title>
<g id="a_node1"><a xlink:title=" ">
<polygon fill="#999999" stroke="#666666" points="1.88,-0.5 1.88,-60.5 80.12,-60.5 80.12,-0.5 1.88,-0.5"/>
<text text-anchor="middle" x="41" y="-47" font-family="Helvetica,sans-Serif" font-size="10.00">DropToGround</text>
<polyline fill="none" stroke="#666666" points="1.88,-40.5 80.12,-40.5"/>
<text text-anchor="middle" x="41" y="-27" font-family="Helvetica,sans-Serif" font-size="10.00"> </text>
<polyline fill="none" stroke="#666666" points="1.88,-20.5 80.12,-20.5"/>
<text text-anchor="middle" x="41" y="-7" font-family="Helvetica,sans-Serif" font-size="10.00"> </text>
</a>
</g>
</g>
<!-- Node2 -->
<g id="node2" class="node">
<title>Node2</title>
<g id="a_node2"><a xlink:title=" ">
<polygon fill="white" stroke="#666666" points="0,-97.5 0,-157.5 82,-157.5 82,-97.5 0,-97.5"/>
<text text-anchor="middle" x="41" y="-144" font-family="Helvetica,sans-Serif" font-size="10.00">MonoBehaviour</text>
<polyline fill="none" stroke="#666666" points="0,-137.5 82,-137.5"/>
<text text-anchor="middle" x="41" y="-124" font-family="Helvetica,sans-Serif" font-size="10.00"> </text>
<polyline fill="none" stroke="#666666" points="0,-117.5 82,-117.5"/>
<text text-anchor="middle" x="41" y="-104" font-family="Helvetica,sans-Serif" font-size="10.00"> </text>
</a>
</g>
</g>
<!-- Node2&#45;&gt;Node1 -->
<g id="edge1" class="edge">
<title>Node2&#45;&gt;Node1</title>
<path fill="none" stroke="#63b8ff" d="M41,-86.84C41,-78.01 41,-68.8 41,-60.49"/>
<polygon fill="none" stroke="#63b8ff" points="37.5,-86.74 41,-96.74 44.5,-86.74 37.5,-86.74"/>
</g>
</g>
</svg>
