<?xml version="1.0" encoding="UTF-8" standalone="no"?>
<!DOCTYPE svg PUBLIC "-//W3C//DTD SVG 1.1//EN"
 "http://www.w3.org/Graphics/SVG/1.1/DTD/svg11.dtd">
<!-- Generated by graphviz version 8.0.5 (20230430.1635)
 -->
<!-- Title: Tilemap3DBehaviour Pages: 1 -->
<svg width="166pt" height="274pt"
 viewBox="0.00 0.00 165.75 274.00" xmlns="http://www.w3.org/2000/svg" xmlns:xlink="http://www.w3.org/1999/xlink">
<g id="graph0" class="graph" transform="scale(1 1) rotate(0) translate(4 270)">
<title>Tilemap3DBehaviour</title>
<!-- Node1 -->
<g id="node1" class="node">
<title>Node1</title>
<g id="a_node1"><a xlink:title=" ">
<polygon fill="#999999" stroke="#666666" points="0,-0.5 0,-168.5 157.75,-168.5 157.75,-0.5 0,-0.5"/>
<text text-anchor="middle" x="78.88" y="-155" font-family="Helvetica,sans-Serif" font-size="10.00">Tilemap3DBehaviour</text>
<polyline fill="none" stroke="#666666" points="0,-148.5 157.75,-148.5"/>
<text text-anchor="start" x="8" y="-135" font-family="Helvetica,sans-Serif" font-size="10.00">+ ChunkCount</text>
<text text-anchor="start" x="8" y="-123" font-family="Helvetica,sans-Serif" font-size="10.00">+ ChunkSize</text>
<text text-anchor="start" x="8" y="-111" font-family="Helvetica,sans-Serif" font-size="10.00">+ Grid</text>
<text text-anchor="start" x="8" y="-99" font-family="Helvetica,sans-Serif" font-size="10.00">+ TileCount</text>
<polyline fill="none" stroke="#666666" points="0,-92.5 157.75,-92.5"/>
<text text-anchor="start" x="8" y="-79" font-family="Helvetica,sans-Serif" font-size="10.00">+ GetLayerCount()</text>
<text text-anchor="start" x="8" y="-67" font-family="Helvetica,sans-Serif" font-size="10.00">+ GetTile()</text>
<text text-anchor="start" x="8" y="-55" font-family="Helvetica,sans-Serif" font-size="10.00">+ GetTiles()</text>
<text text-anchor="start" x="8" y="-43" font-family="Helvetica,sans-Serif" font-size="10.00">+ SetTile()</text>
<text text-anchor="start" x="8" y="-31" font-family="Helvetica,sans-Serif" font-size="10.00">+ SetTiles()</text>
<text text-anchor="start" x="8" y="-19" font-family="Helvetica,sans-Serif" font-size="10.00">~ RegisterEditorSceneEvents()</text>
<text text-anchor="start" x="8" y="-7" font-family="Helvetica,sans-Serif" font-size="10.00">~ UnregisterEditorSceneEvents()</text>
</a>
</g>
</g>
<!-- Node2 -->
<g id="node2" class="node">
<title>Node2</title>
<g id="a_node2"><a xlink:title=" ">
<polygon fill="white" stroke="#666666" points="37.88,-205.5 37.88,-265.5 119.88,-265.5 119.88,-205.5 37.88,-205.5"/>
<text text-anchor="middle" x="78.88" y="-252" font-family="Helvetica,sans-Serif" font-size="10.00">MonoBehaviour</text>
<polyline fill="none" stroke="#666666" points="37.88,-245.5 119.88,-245.5"/>
<text text-anchor="middle" x="78.88" y="-232" font-family="Helvetica,sans-Serif" font-size="10.00"> </text>
<polyline fill="none" stroke="#666666" points="37.88,-225.5 119.88,-225.5"/>
<text text-anchor="middle" x="78.88" y="-212" font-family="Helvetica,sans-Serif" font-size="10.00"> </text>
</a>
</g>
</g>
<!-- Node2&#45;&gt;Node1 -->
<g id="edge1" class="edge">
<title>Node2&#45;&gt;Node1</title>
<path fill="none" stroke="#63b8ff" d="M78.88,-194.97C78.88,-186.67 78.88,-177.62 78.88,-168.4"/>
<polygon fill="none" stroke="#63b8ff" points="75.38,-194.77 78.88,-204.77 82.38,-194.77 75.38,-194.77"/>
</g>
</g>
</svg>
