<?xml version="1.0" encoding="UTF-8" standalone="no"?>
<!DOCTYPE svg PUBLIC "-//W3C//DTD SVG 1.1//EN"
 "http://www.w3.org/Graphics/SVG/1.1/DTD/svg11.dtd">
<!-- Generated by graphviz version 8.0.5 (20230430.1635)
 -->
<!-- Title: ChunkTileCoords Pages: 1 -->
<svg width="198pt" height="166pt"
 viewBox="0.00 0.00 198.00 166.00" xmlns="http://www.w3.org/2000/svg" xmlns:xlink="http://www.w3.org/1999/xlink">
<g id="graph0" class="graph" transform="scale(1 1) rotate(0) translate(4 162)">
<title>ChunkTileCoords</title>
<!-- Node1 -->
<g id="node1" class="node">
<title>Node1</title>
<g id="a_node1"><a xlink:title="Container for Tile3DCoord collections that are automatically divided into chunks.">
<polygon fill="#999999" stroke="#666666" points="42.75,-0.5 42.75,-60.5 147.25,-60.5 147.25,-0.5 42.75,-0.5"/>
<text text-anchor="middle" x="95" y="-47" font-family="Helvetica,sans-Serif" font-size="10.00">ChunkTileCoords</text>
<polyline fill="none" stroke="#666666" points="42.75,-40.5 147.25,-40.5"/>
<text text-anchor="middle" x="95" y="-27" font-family="Helvetica,sans-Serif" font-size="10.00"> </text>
<polyline fill="none" stroke="#666666" points="42.75,-20.5 147.25,-20.5"/>
<text text-anchor="start" x="50.75" y="-7" font-family="Helvetica,sans-Serif" font-size="10.00">+ ChunkTileCoords()</text>
</a>
</g>
</g>
<!-- Node2 -->
<g id="node2" class="node">
<title>Node2</title>
<g id="a_node2"><a xlink:title=" ">
<polygon fill="white" stroke="#666666" points="0,-97.5 0,-157.5 190,-157.5 190,-97.5 0,-97.5"/>
<text text-anchor="middle" x="95" y="-144" font-family="Helvetica,sans-Serif" font-size="10.00">Dictionary&lt; long, IList&lt; Tile3DCoord &gt; &gt;</text>
<polyline fill="none" stroke="#666666" points="0,-137.5 190,-137.5"/>
<text text-anchor="middle" x="95" y="-124" font-family="Helvetica,sans-Serif" font-size="10.00"> </text>
<polyline fill="none" stroke="#666666" points="0,-117.5 190,-117.5"/>
<text text-anchor="middle" x="95" y="-104" font-family="Helvetica,sans-Serif" font-size="10.00"> </text>
</a>
</g>
</g>
<!-- Node2&#45;&gt;Node1 -->
<g id="edge1" class="edge">
<title>Node2&#45;&gt;Node1</title>
<path fill="none" stroke="#63b8ff" d="M95,-86.84C95,-78.01 95,-68.8 95,-60.49"/>
<polygon fill="none" stroke="#63b8ff" points="91.5,-86.74 95,-96.74 98.5,-86.74 91.5,-86.74"/>
</g>
</g>
</svg>
