<?xml version="1.0" encoding="UTF-8" standalone="no"?>
<!DOCTYPE svg PUBLIC "-//W3C//DTD SVG 1.1//EN"
 "http://www.w3.org/Graphics/SVG/1.1/DTD/svg11.dtd">
<!-- Generated by graphviz version 8.0.5 (20230430.1635)
 -->
<!-- Title: AssignSingletonInstance Pages: 1 -->
<svg width="674pt" height="140pt"
 viewBox="0.00 0.00 674.00 140.00" xmlns="http://www.w3.org/2000/svg" xmlns:xlink="http://www.w3.org/1999/xlink">
<g id="graph0" class="graph" transform="scale(1 1) rotate(0) translate(4 136)">
<title>AssignSingletonInstance</title>
<!-- Node1 -->
<g id="node1" class="node">
<title>Node1</title>
<g id="a_node1"><a xlink:title=" ">
<polygon fill="#999999" stroke="#666666" points="123.25,-76 0,-76 0,-56 123.25,-56 123.25,-76"/>
<text text-anchor="middle" x="61.62" y="-62.5" font-family="Helvetica,sans-Serif" font-size="10.00">AssignSingletonInstance</text>
</a>
</g>
</g>
<!-- Node2 -->
<g id="node2" class="node">
<title>Node2</title>
<g id="a_node2"><a xlink:href="class_code_smile_1_1_pro_tiler_1_1_assets_1_1_tile3_d_asset_base_set.html#a1e3b6d38df0786ccf7f938d60e386aae" target="_top" xlink:title=" ">
<polygon fill="white" stroke="#666666" points="401,-76 159.25,-76 159.25,-56 401,-56 401,-76"/>
<text text-anchor="middle" x="280.12" y="-62.5" font-family="Helvetica,sans-Serif" font-size="10.00">CodeSmile.ProTiler.Assets.Tile3DAssetBaseSet.Init</text>
</a>
</g>
</g>
<!-- Node1&#45;&gt;Node2 -->
<g id="edge1" class="edge">
<title>Node1&#45;&gt;Node2</title>
<path fill="none" stroke="#63b8ff" d="M123.51,-66C131.34,-66 139.57,-66 148.01,-66"/>
<polygon fill="#63b8ff" stroke="#63b8ff" points="147.77,-69.5 157.77,-66 147.77,-62.5 147.77,-69.5"/>
</g>
<!-- Node3 -->
<g id="node3" class="node">
<title>Node3</title>
<g id="a_node3"><a xlink:href="class_code_smile_1_1_pro_tiler_1_1_assets_1_1_tile3_d_asset_base_set.html#a6d96fb14f0ba5a0edf7583e85dda9ae9" target="_top" xlink:title=" ">
<polygon fill="white" stroke="#666666" points="666,-132 437,-132 437,-100 666,-100 666,-132"/>
<text text-anchor="start" x="445" y="-118.5" font-family="Helvetica,sans-Serif" font-size="10.00">CodeSmile.ProTiler.Assets.Tile3DAssetBaseSet.</text>
<text text-anchor="middle" x="551.5" y="-106.5" font-family="Helvetica,sans-Serif" font-size="10.00">LoadEmptyTileAsset</text>
</a>
</g>
</g>
<!-- Node2&#45;&gt;Node3 -->
<g id="edge2" class="edge">
<title>Node2&#45;&gt;Node3</title>
<path fill="none" stroke="#63b8ff" d="M337.59,-76.48C370.45,-82.58 412.81,-90.44 451.09,-97.55"/>
<polygon fill="#63b8ff" stroke="#63b8ff" points="450.29,-101.14 460.76,-99.53 451.57,-94.26 450.29,-101.14"/>
</g>
<!-- Node4 -->
<g id="node4" class="node">
<title>Node4</title>
<g id="a_node4"><a xlink:href="class_code_smile_1_1_pro_tiler_1_1_assets_1_1_tile3_d_asset_base_set.html#ace56133091db10f4f336128628f76938" target="_top" xlink:title=" ">
<polygon fill="white" stroke="#666666" points="666,-82 437,-82 437,-50 666,-50 666,-82"/>
<text text-anchor="start" x="445" y="-68.5" font-family="Helvetica,sans-Serif" font-size="10.00">CodeSmile.ProTiler.Assets.Tile3DAssetBaseSet.</text>
<text text-anchor="middle" x="551.5" y="-56.5" font-family="Helvetica,sans-Serif" font-size="10.00">LoadMissingTileAsset</text>
</a>
</g>
</g>
<!-- Node2&#45;&gt;Node4 -->
<g id="edge3" class="edge">
<title>Node2&#45;&gt;Node4</title>
<path fill="none" stroke="#63b8ff" d="M401.24,-66C409.43,-66 417.7,-66 425.92,-66"/>
<polygon fill="#63b8ff" stroke="#63b8ff" points="425.68,-69.5 435.68,-66 425.68,-62.5 425.68,-69.5"/>
</g>
<!-- Node5 -->
<g id="node5" class="node">
<title>Node5</title>
<g id="a_node5"><a xlink:href="class_code_smile_1_1_pro_tiler_1_1_assets_1_1_tile3_d_asset_base_set.html#ad72dd7b495468e2776d832abf1d9d6aa" target="_top" xlink:title=" ">
<polygon fill="white" stroke="#666666" points="666,-32 437,-32 437,0 666,0 666,-32"/>
<text text-anchor="start" x="445" y="-18.5" font-family="Helvetica,sans-Serif" font-size="10.00">CodeSmile.ProTiler.Assets.Tile3DAssetBaseSet.</text>
<text text-anchor="middle" x="551.5" y="-6.5" font-family="Helvetica,sans-Serif" font-size="10.00">SetMissingTileAsDefault</text>
</a>
</g>
</g>
<!-- Node2&#45;&gt;Node5 -->
<g id="edge4" class="edge">
<title>Node2&#45;&gt;Node5</title>
<path fill="none" stroke="#63b8ff" d="M337.59,-55.52C370.45,-49.42 412.81,-41.56 451.09,-34.45"/>
<polygon fill="#63b8ff" stroke="#63b8ff" points="451.57,-37.74 460.76,-32.47 450.29,-30.86 451.57,-37.74"/>
</g>
</g>
</svg>
