<?xml version="1.0" encoding="UTF-8" standalone="no"?>
<!DOCTYPE svg PUBLIC "-//W3C//DTD SVG 1.1//EN"
 "http://www.w3.org/Graphics/SVG/1.1/DTD/svg11.dtd">
<!-- Generated by graphviz version 8.0.5 (20230430.1635)
 -->
<!-- Title: CreateRegisteredAssetWithSelection&lt; T &gt; Pages: 1 -->
<svg width="770pt" height="72pt"
 viewBox="0.00 0.00 770.00 72.00" xmlns="http://www.w3.org/2000/svg" xmlns:xlink="http://www.w3.org/1999/xlink">
<g id="graph0" class="graph" transform="scale(1 1) rotate(0) translate(4 68)">
<title>CreateRegisteredAssetWithSelection&lt; T &gt;</title>
<!-- Node1 -->
<g id="node1" class="node">
<title>Node1</title>
<g id="a_node1"><a xlink:title=" ">
<polygon fill="#999999" stroke="#666666" points="200.5,-39 0,-39 0,-19 200.5,-19 200.5,-39"/>
<text text-anchor="middle" x="100.25" y="-25.5" font-family="Helvetica,sans-Serif" font-size="10.00">CreateRegisteredAssetWithSelection&lt; T &gt;</text>
</a>
</g>
</g>
<!-- Node2 -->
<g id="node2" class="node">
<title>Node2</title>
<g id="a_node2"><a xlink:href="class_code_smile_1_1_pro_tiler_1_1_editor_1_1_creation_1_1_tile3_d_asset_creation.html#a60759f098574591110a2c2dfcd54864e" target="_top" xlink:title=" ">
<polygon fill="white" stroke="#666666" points="473.75,-58 257.5,-58 257.5,-38 473.75,-38 473.75,-58"/>
<text text-anchor="middle" x="365.62" y="-44.5" font-family="Helvetica,sans-Serif" font-size="10.00">CreateMultipleRegisteredAssetsWithSelection</text>
</a>
</g>
</g>
<!-- Node1&#45;&gt;Node2 -->
<g id="edge1" class="edge">
<title>Node1&#45;&gt;Node2</title>
<path fill="none" stroke="#63b8ff" d="M200.82,-36.18C215.85,-37.27 231.48,-38.39 246.85,-39.5"/>
<polygon fill="#63b8ff" stroke="#63b8ff" points="246.21,-43.04 256.44,-40.27 246.72,-36.06 246.21,-43.04"/>
</g>
<!-- Node4 -->
<g id="node4" class="node">
<title>Node4</title>
<g id="a_node4"><a xlink:href="class_code_smile_1_1_editor_1_1_extensions_1_1_selection_ext.html#a962e6453f06e8e7ab09226d53ec9b814" target="_top" xlink:title=" ">
<polygon fill="white" stroke="#666666" points="494.75,-20 236.5,-20 236.5,0 494.75,0 494.75,-20"/>
<text text-anchor="middle" x="365.62" y="-6.5" font-family="Helvetica,sans-Serif" font-size="10.00">CodeSmile.Editor.Extensions.SelectionExt.PrefabCount</text>
</a>
</g>
</g>
<!-- Node1&#45;&gt;Node4 -->
<g id="edge3" class="edge">
<title>Node1&#45;&gt;Node4</title>
<path fill="none" stroke="#63b8ff" d="M200.82,-21.82C208.82,-21.24 216.99,-20.65 225.2,-20.06"/>
<polygon fill="#63b8ff" stroke="#63b8ff" points="225.29,-23.49 235.01,-19.28 224.78,-16.51 225.29,-23.49"/>
</g>
<!-- Node3 -->
<g id="node3" class="node">
<title>Node3</title>
<g id="a_node3"><a xlink:href="class_code_smile_1_1_editor_1_1_extensions_1_1_asset_database_ext.html#a10bc88cbb402c32d34f9f110fe011f69" target="_top" xlink:title=" ">
<polygon fill="white" stroke="#666666" points="762,-64 530.75,-64 530.75,-32 762,-32 762,-64"/>
<text text-anchor="start" x="538.75" y="-50.5" font-family="Helvetica,sans-Serif" font-size="10.00">CodeSmile.Editor.Extensions.AssetDatabaseExt.</text>
<text text-anchor="middle" x="646.38" y="-38.5" font-family="Helvetica,sans-Serif" font-size="10.00">ForceSaveAsset</text>
</a>
</g>
</g>
<!-- Node2&#45;&gt;Node3 -->
<g id="edge2" class="edge">
<title>Node2&#45;&gt;Node3</title>
<path fill="none" stroke="#63b8ff" d="M474,-48C489.08,-48 504.68,-48 520.06,-48"/>
<polygon fill="#63b8ff" stroke="#63b8ff" points="519.66,-51.5 529.66,-48 519.66,-44.5 519.66,-51.5"/>
</g>
</g>
</svg>
