<?xml version="1.0" encoding="UTF-8" standalone="no"?>
<!DOCTYPE svg PUBLIC "-//W3C//DTD SVG 1.1//EN"
 "http://www.w3.org/Graphics/SVG/1.1/DTD/svg11.dtd">
<!-- Generated by graphviz version 8.0.5 (20230430.1635)
 -->
<!-- Title: Tilemap3DBehaviour Pages: 1 -->
<svg width="254pt" height="274pt"
 viewBox="0.00 0.00 253.88 274.00" xmlns="http://www.w3.org/2000/svg" xmlns:xlink="http://www.w3.org/1999/xlink">
<g id="graph0" class="graph" transform="scale(1 1) rotate(0) translate(4 270)">
<title>Tilemap3DBehaviour</title>
<!-- Node1 -->
<g id="node1" class="node">
<title>Node1</title>
<g id="a_node1"><a xlink:title=" ">
<polygon fill="#999999" stroke="#666666" points="51,-0.5 51,-168.5 163,-168.5 163,-0.5 51,-0.5"/>
<text text-anchor="middle" x="107" y="-155" font-family="Helvetica,sans-Serif" font-size="10.00">Tilemap3DBehaviour</text>
<polyline fill="none" stroke="#666666" points="51,-148.5 163,-148.5"/>
<text text-anchor="start" x="59" y="-135" font-family="Helvetica,sans-Serif" font-size="10.00">+ ChunkSize</text>
<text text-anchor="start" x="59" y="-123" font-family="Helvetica,sans-Serif" font-size="10.00">+ Grid</text>
<text text-anchor="start" x="59" y="-111" font-family="Helvetica,sans-Serif" font-size="10.00">+ TileCount</text>
<polyline fill="none" stroke="#666666" points="51,-104.5 163,-104.5"/>
<text text-anchor="start" x="59" y="-91" font-family="Helvetica,sans-Serif" font-size="10.00">+ GetLayerCount()</text>
<text text-anchor="start" x="59" y="-79" font-family="Helvetica,sans-Serif" font-size="10.00">+ GetTile()</text>
<text text-anchor="start" x="59" y="-67" font-family="Helvetica,sans-Serif" font-size="10.00">+ GetTiles()</text>
<text text-anchor="start" x="59" y="-55" font-family="Helvetica,sans-Serif" font-size="10.00">+ OnAfterDeserialize()</text>
<text text-anchor="start" x="59" y="-43" font-family="Helvetica,sans-Serif" font-size="10.00">+ OnBeforeSerialize()</text>
<text text-anchor="start" x="59" y="-31" font-family="Helvetica,sans-Serif" font-size="10.00">+ SetTile()</text>
<text text-anchor="start" x="59" y="-19" font-family="Helvetica,sans-Serif" font-size="10.00">+ SetTiles()</text>
<text text-anchor="start" x="59" y="-7" font-family="Helvetica,sans-Serif" font-size="10.00">~ SetTilesNoUndo()</text>
</a>
</g>
</g>
<!-- Node2 -->
<g id="node2" class="node">
<title>Node2</title>
<g id="a_node2"><a xlink:title=" ">
<polygon fill="white" stroke="#666666" points="0,-205.5 0,-265.5 82,-265.5 82,-205.5 0,-205.5"/>
<text text-anchor="middle" x="41" y="-252" font-family="Helvetica,sans-Serif" font-size="10.00">MonoBehaviour</text>
<polyline fill="none" stroke="#666666" points="0,-245.5 82,-245.5"/>
<text text-anchor="middle" x="41" y="-232" font-family="Helvetica,sans-Serif" font-size="10.00"> </text>
<polyline fill="none" stroke="#666666" points="0,-225.5 82,-225.5"/>
<text text-anchor="middle" x="41" y="-212" font-family="Helvetica,sans-Serif" font-size="10.00"> </text>
</a>
</g>
</g>
<!-- Node2&#45;&gt;Node1 -->
<g id="edge1" class="edge">
<title>Node2&#45;&gt;Node1</title>
<path fill="none" stroke="#63b8ff" d="M58.13,-195.82C61.91,-187.29 66.05,-177.94 70.28,-168.4"/>
<polygon fill="none" stroke="#63b8ff" points="54.58,-194.21 53.73,-204.77 60.98,-197.05 54.58,-194.21"/>
</g>
<!-- Node3 -->
<g id="node3" class="node">
<title>Node3</title>
<g id="a_node3"><a xlink:title=" ">
<polygon fill="white" stroke="#666666" points="100.12,-205.5 100.12,-265.5 245.88,-265.5 245.88,-205.5 100.12,-205.5"/>
<text text-anchor="middle" x="173" y="-252" font-family="Helvetica,sans-Serif" font-size="10.00">ISerializationCallbackReceiver</text>
<polyline fill="none" stroke="#666666" points="100.12,-245.5 245.88,-245.5"/>
<text text-anchor="middle" x="173" y="-232" font-family="Helvetica,sans-Serif" font-size="10.00"> </text>
<polyline fill="none" stroke="#666666" points="100.12,-225.5 245.88,-225.5"/>
<text text-anchor="middle" x="173" y="-212" font-family="Helvetica,sans-Serif" font-size="10.00"> </text>
</a>
</g>
</g>
<!-- Node3&#45;&gt;Node1 -->
<g id="edge2" class="edge">
<title>Node3&#45;&gt;Node1</title>
<path fill="none" stroke="#63b8ff" d="M155.87,-195.82C152.09,-187.29 147.95,-177.94 143.72,-168.4"/>
<polygon fill="none" stroke="#63b8ff" points="153.02,-197.05 160.27,-204.77 159.42,-194.21 153.02,-197.05"/>
</g>
</g>
</svg>
