<?xml version="1.0" encoding="UTF-8" standalone="no"?>
<!DOCTYPE svg PUBLIC "-//W3C//DTD SVG 1.1//EN"
 "http://www.w3.org/Graphics/SVG/1.1/DTD/svg11.dtd">
<!-- Generated by graphviz version 8.0.5 (20230430.1635)
 -->
<!-- Title: ForceSaveAsset Pages: 1 -->
<svg width="629pt" height="40pt"
 viewBox="0.00 0.00 629.00 40.00" xmlns="http://www.w3.org/2000/svg" xmlns:xlink="http://www.w3.org/1999/xlink">
<g id="graph0" class="graph" transform="scale(1 1) rotate(0) translate(4 36)">
<title>ForceSaveAsset</title>
<!-- Node1 -->
<g id="node1" class="node">
<title>Node1</title>
<g id="a_node1"><a xlink:title=" ">
<polygon fill="#999999" stroke="#666666" points="621,-26 533.75,-26 533.75,-6 621,-6 621,-26"/>
<text text-anchor="middle" x="577.38" y="-12.5" font-family="Helvetica,sans-Serif" font-size="10.00">ForceSaveAsset</text>
</a>
</g>
</g>
<!-- Node2 -->
<g id="node2" class="node">
<title>Node2</title>
<g id="a_node2"><a xlink:href="class_code_smile_1_1_pro_tiler_1_1_editor_1_1_creation_1_1_tile3_d_asset_creation.html#aa828ea04966c34394d170ed4b4227c0d" target="_top" xlink:title=" ">
<polygon fill="white" stroke="#666666" points="497.75,-32 275.5,-32 275.5,0 497.75,0 497.75,-32"/>
<text text-anchor="start" x="283.5" y="-18.5" font-family="Helvetica,sans-Serif" font-size="10.00">CodeSmile.ProTiler.Editor.Creation.Tile3DAsset</text>
<text text-anchor="middle" x="386.62" y="-6.5" font-family="Helvetica,sans-Serif" font-size="10.00">Creation.CreateRegisteredAssetsWithSelection</text>
</a>
</g>
</g>
<!-- Node1&#45;&gt;Node2 -->
<g id="edge1" class="edge">
<title>Node1&#45;&gt;Node2</title>
<path fill="none" stroke="#63b8ff" d="M522.72,-16C514.82,-16 506.44,-16 497.89,-16"/>
<polygon fill="#63b8ff" stroke="#63b8ff" points="522.54,-19.5 532.54,-16 522.54,-12.5 522.54,-19.5"/>
</g>
<!-- Node3 -->
<g id="node3" class="node">
<title>Node3</title>
<g id="a_node3"><a xlink:href="class_code_smile_1_1_pro_tiler_1_1_editor_1_1_creation_1_1_tile3_d_asset_creation.html#a04e89787f4abe6899e96330583d1fc2e" target="_top" xlink:title=" ">
<polygon fill="white" stroke="#666666" points="239.5,-32 0,-32 0,0 239.5,0 239.5,-32"/>
<text text-anchor="start" x="8" y="-18.5" font-family="Helvetica,sans-Serif" font-size="10.00">CodeSmile.ProTiler.Editor.Creation.Tile3DAsset</text>
<text text-anchor="middle" x="119.75" y="-6.5" font-family="Helvetica,sans-Serif" font-size="10.00">Creation.CreateRegisteredAssetWithSelection&lt; T &gt;</text>
</a>
</g>
</g>
<!-- Node2&#45;&gt;Node3 -->
<g id="edge2" class="edge">
<title>Node2&#45;&gt;Node3</title>
<path fill="none" stroke="#63b8ff" d="M264.24,-16C256.16,-16 248.03,-16 239.97,-16"/>
<polygon fill="#63b8ff" stroke="#63b8ff" points="264.21,-19.5 274.21,-16 264.21,-12.5 264.21,-19.5"/>
</g>
</g>
</svg>
