<?xml version="1.0" encoding="UTF-8" standalone="no"?>
<!DOCTYPE svg PUBLIC "-//W3C//DTD SVG 1.1//EN"
 "http://www.w3.org/Graphics/SVG/1.1/DTD/svg11.dtd">
<!-- Generated by graphviz version 8.0.5 (20230430.1635)
 -->
<!-- Title: LayerToGridCoord Pages: 1 -->
<svg width="369pt" height="78pt"
 viewBox="0.00 0.00 369.25 78.00" xmlns="http://www.w3.org/2000/svg" xmlns:xlink="http://www.w3.org/1999/xlink">
<g id="graph0" class="graph" transform="scale(1 1) rotate(0) translate(4 74)">
<title>LayerToGridCoord</title>
<!-- Node1 -->
<g id="node1" class="node">
<title>Node1</title>
<g id="a_node1"><a xlink:title=" ">
<polygon fill="#999999" stroke="#666666" points="361.25,-48 267.25,-48 267.25,-28 361.25,-28 361.25,-48"/>
<text text-anchor="middle" x="314.25" y="-34.5" font-family="Helvetica,sans-Serif" font-size="10.00">LayerToGridCoord</text>
</a>
</g>
</g>
<!-- Node2 -->
<g id="node2" class="node">
<title>Node2</title>
<g id="a_node2"><a xlink:href="class_code_smile_1_1_pro_tiler_1_1_utility_1_1_tilemap3_d_utility.html#a2299dc141539f472d5f08cbec912d980" target="_top" xlink:title=" ">
<polygon fill="white" stroke="#666666" points="178.38,-70 52.88,-70 52.88,-50 178.38,-50 178.38,-70"/>
<text text-anchor="middle" x="115.62" y="-56.5" font-family="Helvetica,sans-Serif" font-size="10.00">GetAllChunkLayerCoords</text>
</a>
</g>
</g>
<!-- Node1&#45;&gt;Node2 -->
<g id="edge1" class="edge">
<title>Node1&#45;&gt;Node2</title>
<path fill="none" stroke="#63b8ff" d="M256.31,-44.37C232.03,-47.09 203.64,-50.26 178.81,-53.04"/>
<polygon fill="#63b8ff" stroke="#63b8ff" points="256.6,-47.75 266.15,-43.16 255.82,-40.79 256.6,-47.75"/>
</g>
<!-- Node3 -->
<g id="node3" class="node">
<title>Node3</title>
<g id="a_node3"><a xlink:href="class_code_smile_1_1_pro_tiler_1_1_tilemap_1_1_tilemap3_d_chunk.html#ac140dadaf533d788d0779d7ce9f5e770" target="_top" xlink:title=" ">
<polygon fill="white" stroke="#666666" points="231.25,-32 0,-32 0,0 231.25,0 231.25,-32"/>
<text text-anchor="start" x="8" y="-18.5" font-family="Helvetica,sans-Serif" font-size="10.00">CodeSmile.ProTiler.Tilemap.Tilemap3DChunk.Get</text>
<text text-anchor="middle" x="115.62" y="-6.5" font-family="Helvetica,sans-Serif" font-size="10.00">LayerTiles</text>
</a>
</g>
</g>
<!-- Node1&#45;&gt;Node3 -->
<g id="edge2" class="edge">
<title>Node1&#45;&gt;Node3</title>
<path fill="none" stroke="#63b8ff" d="M256.34,-31.63C248.46,-30.75 240.16,-29.82 231.68,-28.87"/>
<polygon fill="#63b8ff" stroke="#63b8ff" points="255.82,-35.21 266.15,-32.84 256.6,-28.25 255.82,-35.21"/>
</g>
</g>
</svg>
