<?xml version="1.0" encoding="UTF-8" standalone="no"?>
<!DOCTYPE svg PUBLIC "-//W3C//DTD SVG 1.1//EN"
 "http://www.w3.org/Graphics/SVG/1.1/DTD/svg11.dtd">
<!-- Generated by graphviz version 8.0.5 (20230430.1635)
 -->
<!-- Title: SerializedDictionary&lt; TKey, TValue &gt; Pages: 1 -->
<svg width="308pt" height="178pt"
 viewBox="0.00 0.00 307.88 178.00" xmlns="http://www.w3.org/2000/svg" xmlns:xlink="http://www.w3.org/1999/xlink">
<g id="graph0" class="graph" transform="scale(1 1) rotate(0) translate(4 174)">
<title>SerializedDictionary&lt; TKey, TValue &gt;</title>
<!-- Node1 -->
<g id="node1" class="node">
<title>Node1</title>
<g id="a_node1"><a xlink:title=" ">
<polygon fill="#999999" stroke="#666666" points="57.62,-0.5 57.62,-72.5 236.38,-72.5 236.38,-0.5 57.62,-0.5"/>
<text text-anchor="middle" x="147" y="-59" font-family="Helvetica,sans-Serif" font-size="10.00">SerializedDictionary&lt; TKey, TValue &gt;</text>
<polyline fill="none" stroke="#666666" points="57.62,-52.5 236.38,-52.5"/>
<text text-anchor="middle" x="147" y="-39" font-family="Helvetica,sans-Serif" font-size="10.00"> </text>
<polyline fill="none" stroke="#666666" points="57.62,-32.5 236.38,-32.5"/>
<text text-anchor="start" x="65.62" y="-19" font-family="Helvetica,sans-Serif" font-size="10.00">+ OnAfterDeserialize()</text>
<text text-anchor="start" x="65.62" y="-7" font-family="Helvetica,sans-Serif" font-size="10.00">+ OnBeforeSerialize()</text>
</a>
</g>
</g>
<!-- Node2 -->
<g id="node2" class="node">
<title>Node2</title>
<g id="a_node2"><a xlink:title=" ">
<polygon fill="white" stroke="#666666" points="0,-109.5 0,-169.5 136,-169.5 136,-109.5 0,-109.5"/>
<text text-anchor="middle" x="68" y="-156" font-family="Helvetica,sans-Serif" font-size="10.00">Dictionary&lt; TKey, TValue &gt;</text>
<polyline fill="none" stroke="#666666" points="0,-149.5 136,-149.5"/>
<text text-anchor="middle" x="68" y="-136" font-family="Helvetica,sans-Serif" font-size="10.00"> </text>
<polyline fill="none" stroke="#666666" points="0,-129.5 136,-129.5"/>
<text text-anchor="middle" x="68" y="-116" font-family="Helvetica,sans-Serif" font-size="10.00"> </text>
</a>
</g>
</g>
<!-- Node2&#45;&gt;Node1 -->
<g id="edge1" class="edge">
<title>Node2&#45;&gt;Node1</title>
<path fill="none" stroke="#63b8ff" d="M97.26,-101.09C104.66,-91.62 112.58,-81.5 119.88,-72.17"/>
<polygon fill="none" stroke="#63b8ff" points="94.04,-98.52 90.64,-108.56 99.56,-102.84 94.04,-98.52"/>
</g>
<!-- Node3 -->
<g id="node3" class="node">
<title>Node3</title>
<g id="a_node3"><a xlink:title=" ">
<polygon fill="white" stroke="#666666" points="154.12,-109.5 154.12,-169.5 299.88,-169.5 299.88,-109.5 154.12,-109.5"/>
<text text-anchor="middle" x="227" y="-156" font-family="Helvetica,sans-Serif" font-size="10.00">ISerializationCallbackReceiver</text>
<polyline fill="none" stroke="#666666" points="154.12,-149.5 299.88,-149.5"/>
<text text-anchor="middle" x="227" y="-136" font-family="Helvetica,sans-Serif" font-size="10.00"> </text>
<polyline fill="none" stroke="#666666" points="154.12,-129.5 299.88,-129.5"/>
<text text-anchor="middle" x="227" y="-116" font-family="Helvetica,sans-Serif" font-size="10.00"> </text>
</a>
</g>
</g>
<!-- Node3&#45;&gt;Node1 -->
<g id="edge2" class="edge">
<title>Node3&#45;&gt;Node1</title>
<path fill="none" stroke="#63b8ff" d="M197.37,-101.09C189.87,-91.62 181.85,-81.5 174.46,-72.17"/>
<polygon fill="none" stroke="#63b8ff" points="195.12,-102.89 204.08,-108.56 200.61,-98.55 195.12,-102.89"/>
</g>
</g>
</svg>
