<?xml version="1.0" encoding="UTF-8" standalone="no"?>
<!DOCTYPE svg PUBLIC "-//W3C//DTD SVG 1.1//EN"
 "http://www.w3.org/Graphics/SVG/1.1/DTD/svg11.dtd">
<!-- Generated by graphviz version 8.0.5 (20230430.1635)
 -->
<!-- Title: LayerToGridCoord Pages: 1 -->
<svg width="408pt" height="66pt"
 viewBox="0.00 0.00 407.50 66.00" xmlns="http://www.w3.org/2000/svg" xmlns:xlink="http://www.w3.org/1999/xlink">
<g id="graph0" class="graph" transform="scale(1 1) rotate(0) translate(4 62)">
<title>LayerToGridCoord</title>
<!-- Node1 -->
<g id="node1" class="node">
<title>Node1</title>
<g id="a_node1"><a xlink:title=" ">
<polygon fill="#999999" stroke="#666666" points="399.5,-39 305.5,-39 305.5,-19 399.5,-19 399.5,-39"/>
<text text-anchor="middle" x="352.5" y="-25.5" font-family="Helvetica,sans-Serif" font-size="10.00">LayerToGridCoord</text>
</a>
</g>
</g>
<!-- Node2 -->
<g id="node2" class="node">
<title>Node2</title>
<g id="a_node2"><a xlink:href="class_code_smile_1_1_pro_tiler_1_1_utility_1_1_tilemap3_d_utility.html#a2299dc141539f472d5f08cbec912d980" target="_top" xlink:title=" ">
<polygon fill="white" stroke="#666666" points="197.5,-58 72,-58 72,-38 197.5,-38 197.5,-58"/>
<text text-anchor="middle" x="134.75" y="-44.5" font-family="Helvetica,sans-Serif" font-size="10.00">GetAllChunkLayerCoords</text>
</a>
</g>
</g>
<!-- Node1&#45;&gt;Node2 -->
<g id="edge1" class="edge">
<title>Node1&#45;&gt;Node2</title>
<path fill="none" stroke="#63b8ff" d="M294.59,-34.01C264.85,-36.63 228.4,-39.84 197.92,-42.52"/>
<polygon fill="#63b8ff" stroke="#63b8ff" points="294.56,-37.44 304.22,-33.08 293.95,-30.47 294.56,-37.44"/>
</g>
<!-- Node3 -->
<g id="node3" class="node">
<title>Node3</title>
<g id="a_node3"><a xlink:href="class_code_smile_1_1_pro_tiler_1_1_chunk_1_1_tilemap3_d_chunk.html#ac140dadaf533d788d0779d7ce9f5e770" target="_top" xlink:title=" ">
<polygon fill="white" stroke="#666666" points="269.5,-20 0,-20 0,0 269.5,0 269.5,-20"/>
<text text-anchor="middle" x="134.75" y="-6.5" font-family="Helvetica,sans-Serif" font-size="10.00">CodeSmile.ProTiler.Chunk.Tilemap3DChunk.GetLayerTiles</text>
</a>
</g>
</g>
<!-- Node1&#45;&gt;Node3 -->
<g id="edge2" class="edge">
<title>Node1&#45;&gt;Node3</title>
<path fill="none" stroke="#63b8ff" d="M294.6,-23.99C282.15,-22.89 268.52,-21.69 254.64,-20.47"/>
<polygon fill="#63b8ff" stroke="#63b8ff" points="293.95,-27.53 304.22,-24.92 294.56,-20.56 293.95,-27.53"/>
</g>
</g>
</svg>
