<?xml version="1.0" encoding="UTF-8" standalone="no"?>
<!DOCTYPE svg PUBLIC "-//W3C//DTD SVG 1.1//EN"
 "http://www.w3.org/Graphics/SVG/1.1/DTD/svg11.dtd">
<!-- Generated by graphviz version 8.0.5 (20230430.1635)
 -->
<!-- Title: SetTiles Pages: 1 -->
<svg width="181pt" height="46pt"
 viewBox="0.00 0.00 181.00 46.00" xmlns="http://www.w3.org/2000/svg" xmlns:xlink="http://www.w3.org/1999/xlink">
<g id="graph0" class="graph" transform="scale(1 1) rotate(0) translate(4 42)">
<title>SetTiles</title>
<!-- Node1 -->
<g id="node1" class="node">
<title>Node1</title>
<g id="a_node1"><a xlink:title=" ">
<polygon fill="#999999" stroke="#666666" points="51.25,-20 0,-20 0,0 51.25,0 51.25,-20"/>
<text text-anchor="middle" x="25.62" y="-6.5" font-family="Helvetica,sans-Serif" font-size="10.00">SetTiles</text>
</a>
</g>
</g>
<!-- Node1&#45;&gt;Node1 -->
<g id="edge1" class="edge">
<title>Node1&#45;&gt;Node1</title>
<path fill="none" stroke="#63b8ff" d="M9.02,-20.34C1.93,-28.98 7.46,-38 25.62,-38 35.84,-38 42.06,-35.14 44.29,-31.11"/>
<polygon fill="#63b8ff" stroke="#63b8ff" points="47.55,-30.5 42.23,-21.34 40.67,-31.82 47.55,-30.5"/>
</g>
<!-- Node2 -->
<g id="node2" class="node">
<title>Node2</title>
<g id="a_node2"><a xlink:href="class_code_smile_1_1_pro_tiler_1_1_behaviours_1_1_tilemap3_d_behaviour.html#ab085db6c6897648053a87de34e56b20b" target="_top" xlink:title=" ">
<polygon fill="white" stroke="#666666" points="173,-20 87.25,-20 87.25,0 173,0 173,-20"/>
<text text-anchor="middle" x="130.12" y="-6.5" font-family="Helvetica,sans-Serif" font-size="10.00">SetTilesNoUndo</text>
</a>
</g>
</g>
<!-- Node1&#45;&gt;Node2 -->
<g id="edge2" class="edge">
<title>Node1&#45;&gt;Node2</title>
<path fill="none" stroke="#63b8ff" d="M51.7,-10C59.2,-10 67.72,-10 76.31,-10"/>
<polygon fill="#63b8ff" stroke="#63b8ff" points="76.14,-13.5 86.14,-10 76.14,-6.5 76.14,-13.5"/>
</g>
</g>
</svg>
