<?xml version="1.0" encoding="UTF-8" standalone="no"?>
<!DOCTYPE svg PUBLIC "-//W3C//DTD SVG 1.1//EN"
 "http://www.w3.org/Graphics/SVG/1.1/DTD/svg11.dtd">
<!-- Generated by graphviz version 8.0.5 (20230430.1635)
 -->
<!-- Title: GetTiles Pages: 1 -->
<svg width="325pt" height="104pt"
 viewBox="0.00 0.00 325.00 104.00" xmlns="http://www.w3.org/2000/svg" xmlns:xlink="http://www.w3.org/1999/xlink">
<g id="graph0" class="graph" transform="scale(1 1) rotate(0) translate(4 100)">
<title>GetTiles</title>
<!-- Node1 -->
<g id="node1" class="node">
<title>Node1</title>
<g id="a_node1"><a xlink:title=" ">
<polygon fill="#999999" stroke="#666666" points="52,-58 0,-58 0,-38 52,-38 52,-58"/>
<text text-anchor="middle" x="26" y="-44.5" font-family="Helvetica,sans-Serif" font-size="10.00">GetTiles</text>
</a>
</g>
</g>
<!-- Node2 -->
<g id="node2" class="node">
<title>Node2</title>
<g id="a_node2"><a xlink:href="class_code_smile_1_1_pro_tiler_1_1_data_1_1___old_tilemap3_d.html#a79f7c5a0ee771d83b253e2e1fa7f58ee" target="_top" xlink:title=" ">
<polygon fill="white" stroke="#666666" points="242.38,-96 162.62,-96 162.62,-76 242.38,-76 242.38,-96"/>
<text text-anchor="middle" x="202.5" y="-82.5" font-family="Helvetica,sans-Serif" font-size="10.00">ToChunkCoord</text>
</a>
</g>
</g>
<!-- Node1&#45;&gt;Node2 -->
<g id="edge1" class="edge">
<title>Node1&#45;&gt;Node2</title>
<path fill="none" stroke="#63b8ff" d="M52.31,-56.73C63.2,-60.27 76.13,-64.17 88,-67 108.66,-71.92 131.74,-76.03 151.66,-79.16"/>
<polygon fill="#63b8ff" stroke="#63b8ff" points="150.95,-82.74 161.36,-80.79 152.01,-75.82 150.95,-82.74"/>
</g>
<!-- Node3 -->
<g id="node3" class="node">
<title>Node3</title>
<g id="a_node3"><a xlink:href="class_code_smile_1_1_pro_tiler_1_1_data_1_1_grid3_d_utility.html#a559c7b8ca964b39cd675b46e110edb83" target="_top" xlink:title="Converts x/z coordinate to a 2D array index.">
<polygon fill="white" stroke="#666666" points="317,-58 88,-58 88,-38 317,-38 317,-58"/>
<text text-anchor="middle" x="202.5" y="-44.5" font-family="Helvetica,sans-Serif" font-size="10.00">CodeSmile.ProTiler.Data.Grid3DUtility.ToIndex2D</text>
</a>
</g>
</g>
<!-- Node1&#45;&gt;Node3 -->
<g id="edge2" class="edge">
<title>Node1&#45;&gt;Node3</title>
<path fill="none" stroke="#63b8ff" d="M52.37,-48C59.58,-48 67.94,-48 76.95,-48"/>
<polygon fill="#63b8ff" stroke="#63b8ff" points="76.8,-51.5 86.8,-48 76.8,-44.5 76.8,-51.5"/>
</g>
<!-- Node4 -->
<g id="node4" class="node">
<title>Node4</title>
<g id="a_node4"><a xlink:href="class_code_smile_1_1_pro_tiler_1_1_data_1_1___old_tilemap3_d.html#aee0c3548e0d2e7309e726cc5112b92b7" target="_top" xlink:title=" ">
<polygon fill="white" stroke="#666666" points="240.5,-20 164.5,-20 164.5,0 240.5,0 240.5,-20"/>
<text text-anchor="middle" x="202.5" y="-6.5" font-family="Helvetica,sans-Serif" font-size="10.00">ToLayerCoord</text>
</a>
</g>
</g>
<!-- Node1&#45;&gt;Node4 -->
<g id="edge3" class="edge">
<title>Node1&#45;&gt;Node4</title>
<path fill="none" stroke="#63b8ff" d="M52.31,-39.27C63.2,-35.73 76.13,-31.83 88,-29 109.24,-23.94 133.02,-19.74 153.31,-16.58"/>
<polygon fill="#63b8ff" stroke="#63b8ff" points="153.82,-19.9 163.18,-14.94 152.77,-12.97 153.82,-19.9"/>
</g>
</g>
</svg>
