<?xml version="1.0" encoding="UTF-8" standalone="no"?>
<!DOCTYPE svg PUBLIC "-//W3C//DTD SVG 1.1//EN"
 "http://www.w3.org/Graphics/SVG/1.1/DTD/svg11.dtd">
<!-- Generated by graphviz version 8.0.5 (20230430.1635)
 -->
<!-- Title: SetTilesNoUndo Pages: 1 -->
<svg width="181pt" height="46pt"
 viewBox="0.00 0.00 181.00 46.00" xmlns="http://www.w3.org/2000/svg" xmlns:xlink="http://www.w3.org/1999/xlink">
<g id="graph0" class="graph" transform="scale(1 1) rotate(0) translate(4 42)">
<title>SetTilesNoUndo</title>
<!-- Node1 -->
<g id="node1" class="node">
<title>Node1</title>
<g id="a_node1"><a xlink:title=" ">
<polygon fill="#999999" stroke="#666666" points="173,-20 87.25,-20 87.25,0 173,0 173,-20"/>
<text text-anchor="middle" x="130.12" y="-6.5" font-family="Helvetica,sans-Serif" font-size="10.00">SetTilesNoUndo</text>
</a>
</g>
</g>
<!-- Node2 -->
<g id="node2" class="node">
<title>Node2</title>
<g id="a_node2"><a xlink:href="class_code_smile_1_1_pro_tiler_1_1_behaviours_1_1_tilemap3_d_behaviour.html#aeac86f0fe5f78b639153cb2d0d94e928" target="_top" xlink:title=" ">
<polygon fill="white" stroke="#666666" points="51.25,-20 0,-20 0,0 51.25,0 51.25,-20"/>
<text text-anchor="middle" x="25.62" y="-6.5" font-family="Helvetica,sans-Serif" font-size="10.00">SetTiles</text>
</a>
</g>
</g>
<!-- Node1&#45;&gt;Node2 -->
<g id="edge1" class="edge">
<title>Node1&#45;&gt;Node2</title>
<path fill="none" stroke="#63b8ff" d="M76.03,-10C67.46,-10 58.97,-10 51.5,-10"/>
<polygon fill="#63b8ff" stroke="#63b8ff" points="75.84,-13.5 85.84,-10 75.84,-6.5 75.84,-13.5"/>
</g>
<!-- Node2&#45;&gt;Node2 -->
<g id="edge2" class="edge">
<title>Node2&#45;&gt;Node2</title>
<path fill="none" stroke="#63b8ff" d="M44.29,-31.11C42.06,-35.14 35.84,-38 25.62,-38 7.46,-38 1.93,-28.98 9.02,-20.34"/>
<polygon fill="#63b8ff" stroke="#63b8ff" points="47.55,-30.5 42.23,-21.34 40.67,-31.82 47.55,-30.5"/>
</g>
</g>
</svg>
