<?xml version="1.0" encoding="UTF-8" standalone="no"?>
<!DOCTYPE svg PUBLIC "-//W3C//DTD SVG 1.1//EN"
 "http://www.w3.org/Graphics/SVG/1.1/DTD/svg11.dtd">
<!-- Generated by graphviz version 8.0.5 (20230430.1635)
 -->
<!-- Title: Init Pages: 1 -->
<svg width="195pt" height="104pt"
 viewBox="0.00 0.00 194.55 104.00" xmlns="http://www.w3.org/2000/svg" xmlns:xlink="http://www.w3.org/1999/xlink">
<g id="graph0" class="graph" transform="scale(1 1) rotate(0) translate(4 100)">
<title>Init</title>
<!-- Node1 -->
<g id="node1" class="node">
<title>Node1</title>
<g id="a_node1"><a xlink:title=" ">
<polygon fill="#999999" stroke="#666666" points="28.8,-58 0,-58 0,-38 28.8,-38 28.8,-58"/>
<text text-anchor="middle" x="14.4" y="-44.5" font-family="Helvetica,sans-Serif" font-size="10.00">Init</text>
</a>
</g>
</g>
<!-- Node2 -->
<g id="node2" class="node">
<title>Node2</title>
<g id="a_node2"><a xlink:href="class_code_smile_1_1_pro_tiler_1_1_assets_1_1_tile3_d_asset_base_set.html#a6d96fb14f0ba5a0edf7583e85dda9ae9" target="_top" xlink:title=" ">
<polygon fill="white" stroke="#666666" points="178.68,-96 72.68,-96 72.68,-76 178.68,-76 178.68,-96"/>
<text text-anchor="middle" x="125.68" y="-82.5" font-family="Helvetica,sans-Serif" font-size="10.00">LoadEmptyTileAsset</text>
</a>
</g>
</g>
<!-- Node1&#45;&gt;Node2 -->
<g id="edge1" class="edge">
<title>Node1&#45;&gt;Node2</title>
<path fill="none" stroke="#63b8ff" d="M29.16,-53.55C39.02,-57.46 52.66,-62.74 64.8,-67 69.69,-68.71 74.82,-70.45 79.95,-72.13"/>
<polygon fill="#63b8ff" stroke="#63b8ff" points="78.77,-75.75 89.36,-75.5 80.92,-69.09 78.77,-75.75"/>
</g>
<!-- Node3 -->
<g id="node3" class="node">
<title>Node3</title>
<g id="a_node3"><a xlink:href="class_code_smile_1_1_pro_tiler_1_1_assets_1_1_tile3_d_asset_base_set.html#ace56133091db10f4f336128628f76938" target="_top" xlink:title=" ">
<polygon fill="white" stroke="#666666" points="181.3,-58 70.05,-58 70.05,-38 181.3,-38 181.3,-58"/>
<text text-anchor="middle" x="125.68" y="-44.5" font-family="Helvetica,sans-Serif" font-size="10.00">LoadMissingTileAsset</text>
</a>
</g>
</g>
<!-- Node1&#45;&gt;Node3 -->
<g id="edge2" class="edge">
<title>Node1&#45;&gt;Node3</title>
<path fill="none" stroke="#63b8ff" d="M29.24,-48C37.16,-48 47.74,-48 58.97,-48"/>
<polygon fill="#63b8ff" stroke="#63b8ff" points="58.87,-51.5 68.87,-48 58.87,-44.5 58.87,-51.5"/>
</g>
<!-- Node4 -->
<g id="node4" class="node">
<title>Node4</title>
<g id="a_node4"><a xlink:href="class_code_smile_1_1_pro_tiler_1_1_assets_1_1_tile3_d_asset_base_set.html#ad72dd7b495468e2776d832abf1d9d6aa" target="_top" xlink:title=" ">
<polygon fill="white" stroke="#666666" points="186.55,-20 64.8,-20 64.8,0 186.55,0 186.55,-20"/>
<text text-anchor="middle" x="125.68" y="-6.5" font-family="Helvetica,sans-Serif" font-size="10.00">SetMissingTileAsDefault</text>
</a>
</g>
</g>
<!-- Node1&#45;&gt;Node4 -->
<g id="edge3" class="edge">
<title>Node1&#45;&gt;Node4</title>
<path fill="none" stroke="#63b8ff" d="M29.16,-42.45C39.02,-38.54 52.66,-33.26 64.8,-29 69.69,-27.29 74.82,-25.55 79.95,-23.87"/>
<polygon fill="#63b8ff" stroke="#63b8ff" points="80.92,-26.91 89.36,-20.5 78.77,-20.25 80.92,-26.91"/>
</g>
</g>
</svg>
