<?xml version="1.0" encoding="UTF-8" standalone="no"?>
<!DOCTYPE svg PUBLIC "-//W3C//DTD SVG 1.1//EN"
 "http://www.w3.org/Graphics/SVG/1.1/DTD/svg11.dtd">
<!-- Generated by graphviz version 8.0.5 (20230430.1635)
 -->
<!-- Title: CreatePropertyAttribute Pages: 1 -->
<svg width="126pt" height="166pt"
 viewBox="0.00 0.00 126.00 166.00" xmlns="http://www.w3.org/2000/svg" xmlns:xlink="http://www.w3.org/1999/xlink">
<g id="graph0" class="graph" transform="scale(1 1) rotate(0) translate(4 162)">
<title>CreatePropertyAttribute</title>
<!-- Node1 -->
<g id="node1" class="node">
<title>Node1</title>
<g id="a_node1"><a xlink:title=" ">
<polygon fill="#999999" stroke="#666666" points="0,-0.5 0,-60.5 118,-60.5 118,-0.5 0,-0.5"/>
<text text-anchor="middle" x="59" y="-47" font-family="Helvetica,sans-Serif" font-size="10.00">CreatePropertyAttribute</text>
<polyline fill="none" stroke="#666666" points="0,-40.5 118,-40.5"/>
<text text-anchor="middle" x="59" y="-27" font-family="Helvetica,sans-Serif" font-size="10.00"> </text>
<polyline fill="none" stroke="#666666" points="0,-20.5 118,-20.5"/>
<text text-anchor="middle" x="59" y="-7" font-family="Helvetica,sans-Serif" font-size="10.00"> </text>
</a>
</g>
</g>
<!-- Node2 -->
<g id="node2" class="node">
<title>Node2</title>
<g id="a_node2"><a xlink:title=" ">
<polygon fill="white" stroke="#666666" points="32.62,-97.5 32.62,-157.5 85.38,-157.5 85.38,-97.5 32.62,-97.5"/>
<text text-anchor="middle" x="59" y="-144" font-family="Helvetica,sans-Serif" font-size="10.00">Attribute</text>
<polyline fill="none" stroke="#666666" points="32.62,-137.5 85.38,-137.5"/>
<text text-anchor="middle" x="59" y="-124" font-family="Helvetica,sans-Serif" font-size="10.00"> </text>
<polyline fill="none" stroke="#666666" points="32.62,-117.5 85.38,-117.5"/>
<text text-anchor="middle" x="59" y="-104" font-family="Helvetica,sans-Serif" font-size="10.00"> </text>
</a>
</g>
</g>
<!-- Node2&#45;&gt;Node1 -->
<g id="edge1" class="edge">
<title>Node2&#45;&gt;Node1</title>
<path fill="none" stroke="#63b8ff" d="M59,-86.84C59,-78.01 59,-68.8 59,-60.49"/>
<polygon fill="none" stroke="#63b8ff" points="55.5,-86.74 59,-96.74 62.5,-86.74 55.5,-86.74"/>
</g>
</g>
</svg>
