<?xml version="1.0" encoding="UTF-8" standalone="no"?>
<!DOCTYPE svg PUBLIC "-//W3C//DTD SVG 1.1//EN"
 "http://www.w3.org/Graphics/SVG/1.1/DTD/svg11.dtd">
<!-- Generated by graphviz version 8.0.5 (20230430.1635)
 -->
<!-- Title: LoadEmptyTileAsset Pages: 1 -->
<svg width="442pt" height="40pt"
 viewBox="0.00 0.00 442.30 40.00" xmlns="http://www.w3.org/2000/svg" xmlns:xlink="http://www.w3.org/1999/xlink">
<g id="graph0" class="graph" transform="scale(1 1) rotate(0) translate(4 36)">
<title>LoadEmptyTileAsset</title>
<!-- Node1 -->
<g id="node1" class="node">
<title>Node1</title>
<g id="a_node1"><a xlink:title=" ">
<polygon fill="#999999" stroke="#666666" points="434.3,-26 328.3,-26 328.3,-6 434.3,-6 434.3,-26"/>
<text text-anchor="middle" x="381.3" y="-12.5" font-family="Helvetica,sans-Serif" font-size="10.00">LoadEmptyTileAsset</text>
</a>
</g>
</g>
<!-- Node2 -->
<g id="node2" class="node">
<title>Node2</title>
<g id="a_node2"><a xlink:href="class_code_smile_1_1_pro_tiler_1_1_assets_1_1_tile3_d_asset_base_set.html#a1e3b6d38df0786ccf7f938d60e386aae" target="_top" xlink:title=" ">
<polygon fill="white" stroke="#666666" points="292.3,-26 263.5,-26 263.5,-6 292.3,-6 292.3,-26"/>
<text text-anchor="middle" x="277.9" y="-12.5" font-family="Helvetica,sans-Serif" font-size="10.00">Init</text>
</a>
</g>
</g>
<!-- Node1&#45;&gt;Node2 -->
<g id="edge1" class="edge">
<title>Node1&#45;&gt;Node2</title>
<path fill="none" stroke="#63b8ff" d="M316.84,-16C307.66,-16 299.08,-16 292.4,-16"/>
<polygon fill="#63b8ff" stroke="#63b8ff" points="316.82,-19.5 326.82,-16 316.82,-12.5 316.82,-19.5"/>
</g>
<!-- Node3 -->
<g id="node3" class="node">
<title>Node3</title>
<g id="a_node3"><a xlink:href="class_code_smile_1_1_pro_tiler_1_1_assets_1_1_tile3_d_asset_register.html#ac83ab5ec08783728352faaa5265b98e6" target="_top" xlink:title=" ">
<polygon fill="white" stroke="#666666" points="227.5,-32 0,-32 0,0 227.5,0 227.5,-32"/>
<text text-anchor="start" x="8" y="-18.5" font-family="Helvetica,sans-Serif" font-size="10.00">CodeSmile.ProTiler.Assets.Tile3DAssetRegister.</text>
<text text-anchor="middle" x="113.75" y="-6.5" font-family="Helvetica,sans-Serif" font-size="10.00">AssignSingletonInstance</text>
</a>
</g>
</g>
<!-- Node2&#45;&gt;Node3 -->
<g id="edge2" class="edge">
<title>Node2&#45;&gt;Node3</title>
<path fill="none" stroke="#63b8ff" d="M252.2,-16C245.03,-16 236.7,-16 227.74,-16"/>
<polygon fill="#63b8ff" stroke="#63b8ff" points="252.08,-19.5 262.08,-16 252.08,-12.5 252.08,-19.5"/>
</g>
</g>
</svg>
