<?xml version="1.0" encoding="UTF-8" standalone="no"?>
<!DOCTYPE svg PUBLIC "-//W3C//DTD SVG 1.1//EN"
 "http://www.w3.org/Graphics/SVG/1.1/DTD/svg11.dtd">
<!-- Generated by graphviz version 8.0.5 (20230430.1635)
 -->
<!-- Title: ClearTilemap Pages: 1 -->
<svg width="229pt" height="46pt"
 viewBox="0.00 0.00 229.00 46.00" xmlns="http://www.w3.org/2000/svg" xmlns:xlink="http://www.w3.org/1999/xlink">
<g id="graph0" class="graph" transform="scale(1 1) rotate(0) translate(4 42)">
<title>ClearTilemap</title>
<!-- Node1 -->
<g id="node1" class="node">
<title>Node1</title>
<g id="a_node1"><a xlink:title=" ">
<polygon fill="#999999" stroke="#666666" points="72.25,-20 0,-20 0,0 72.25,0 72.25,-20"/>
<text text-anchor="middle" x="36.12" y="-6.5" font-family="Helvetica,sans-Serif" font-size="10.00">ClearTilemap</text>
</a>
</g>
</g>
<!-- Node1&#45;&gt;Node1 -->
<g id="edge1" class="edge">
<title>Node1&#45;&gt;Node1</title>
<path fill="none" stroke="#63b8ff" d="M15.71,-20.34C6.98,-28.98 13.79,-38 36.12,-38 49.04,-38 56.76,-34.98 59.29,-30.77"/>
<polygon fill="#63b8ff" stroke="#63b8ff" points="62.48,-30.12 56.54,-21.34 55.71,-31.9 62.48,-30.12"/>
</g>
<!-- Node2 -->
<g id="node2" class="node">
<title>Node2</title>
<g id="a_node2"><a xlink:href="class_code_smile_1_1_pro_tiler_1_1_tilemap_1_1_tilemap3_d_behaviour.html#a6ff3f6e9b55d510e5513ccaba99aeedb" target="_top" xlink:title=" ">
<polygon fill="white" stroke="#666666" points="221,-20 108.25,-20 108.25,0 221,0 221,-20"/>
<text text-anchor="middle" x="164.62" y="-6.5" font-family="Helvetica,sans-Serif" font-size="10.00">CreateTilemapNoUndo</text>
</a>
</g>
</g>
<!-- Node1&#45;&gt;Node2 -->
<g id="edge2" class="edge">
<title>Node1&#45;&gt;Node2</title>
<path fill="none" stroke="#63b8ff" d="M72.7,-10C80.32,-10 88.61,-10 96.98,-10"/>
<polygon fill="#63b8ff" stroke="#63b8ff" points="96.98,-13.5 106.98,-10 96.98,-6.5 96.98,-13.5"/>
</g>
</g>
</svg>
