<?xml version="1.0" encoding="UTF-8" standalone="no"?>
<!DOCTYPE svg PUBLIC "-//W3C//DTD SVG 1.1//EN"
 "http://www.w3.org/Graphics/SVG/1.1/DTD/svg11.dtd">
<!-- Generated by graphviz version 8.0.5 (20230430.1635)
 -->
<!-- Title: _OldTilemap3D.Tile3DLayerCollection Pages: 1 -->
<svg width="196pt" height="178pt"
 viewBox="0.00 0.00 195.75 178.00" xmlns="http://www.w3.org/2000/svg" xmlns:xlink="http://www.w3.org/1999/xlink">
<g id="graph0" class="graph" transform="scale(1 1) rotate(0) translate(4 174)">
<title>_OldTilemap3D.Tile3DLayerCollection</title>
<!-- Node1 -->
<g id="node1" class="node">
<title>Node1</title>
<g id="a_node1"><a xlink:title=" ">
<polygon fill="#999999" stroke="#666666" points="4.5,-0.5 4.5,-60.5 183.25,-60.5 183.25,-0.5 4.5,-0.5"/>
<text text-anchor="middle" x="93.88" y="-47" font-family="Helvetica,sans-Serif" font-size="10.00">_OldTilemap3D.Tile3DLayerCollection</text>
<polyline fill="none" stroke="#666666" points="4.5,-40.5 183.25,-40.5"/>
<text text-anchor="middle" x="93.88" y="-27" font-family="Helvetica,sans-Serif" font-size="10.00"> </text>
<polyline fill="none" stroke="#666666" points="4.5,-20.5 183.25,-20.5"/>
<text text-anchor="middle" x="93.88" y="-7" font-family="Helvetica,sans-Serif" font-size="10.00"> </text>
</a>
</g>
</g>
<!-- Node2 -->
<g id="node2" class="node">
<title>Node2</title>
<g id="a_node2"><a xlink:href="class_code_smile_1_1_collections_1_1_serialized_dictionary.html" target="_top" xlink:title=" ">
<polygon fill="white" stroke="#666666" points="0,-97.5 0,-169.5 187.75,-169.5 187.75,-97.5 0,-97.5"/>
<text text-anchor="middle" x="93.88" y="-156" font-family="Helvetica,sans-Serif" font-size="10.00">SerializedDictionary&lt; int, Tile3DLayer &gt;</text>
<polyline fill="none" stroke="#666666" points="0,-149.5 187.75,-149.5"/>
<text text-anchor="middle" x="93.88" y="-136" font-family="Helvetica,sans-Serif" font-size="10.00"> </text>
<polyline fill="none" stroke="#666666" points="0,-129.5 187.75,-129.5"/>
<text text-anchor="start" x="8" y="-116" font-family="Helvetica,sans-Serif" font-size="10.00">+ OnAfterDeserialize()</text>
<text text-anchor="start" x="8" y="-104" font-family="Helvetica,sans-Serif" font-size="10.00">+ OnBeforeSerialize()</text>
</a>
</g>
</g>
<!-- Node2&#45;&gt;Node1 -->
<g id="edge1" class="edge">
<title>Node2&#45;&gt;Node1</title>
<path fill="none" stroke="#63b8ff" d="M93.88,-86.89C93.88,-77.84 93.88,-68.58 93.88,-60.29"/>
<polygon fill="none" stroke="#63b8ff" points="90.38,-86.74 93.88,-96.74 97.38,-86.74 90.38,-86.74"/>
</g>
</g>
</svg>
