<?xml version="1.0" encoding="UTF-8" standalone="no"?>
<!DOCTYPE svg PUBLIC "-//W3C//DTD SVG 1.1//EN"
 "http://www.w3.org/Graphics/SVG/1.1/DTD/svg11.dtd">
<!-- Generated by graphviz version 8.0.5 (20230430.1635)
 -->
<!-- Title: RuleTile3DAsset Pages: 1 -->
<svg width="108pt" height="384pt"
 viewBox="0.00 0.00 108.00 384.00" xmlns="http://www.w3.org/2000/svg" xmlns:xlink="http://www.w3.org/1999/xlink">
<g id="graph0" class="graph" transform="scale(1 1) rotate(0) translate(4 380)">
<title>RuleTile3DAsset</title>
<!-- Node1 -->
<g id="node1" class="node">
<title>Node1</title>
<g id="a_node1"><a xlink:title=" ">
<polygon fill="#999999" stroke="#666666" points="6,-0.5 6,-60.5 94,-60.5 94,-0.5 6,-0.5"/>
<text text-anchor="middle" x="50" y="-47" font-family="Helvetica,sans-Serif" font-size="10.00">RuleTile3DAsset</text>
<polyline fill="none" stroke="#666666" points="6,-40.5 94,-40.5"/>
<text text-anchor="middle" x="50" y="-27" font-family="Helvetica,sans-Serif" font-size="10.00"> </text>
<polyline fill="none" stroke="#666666" points="6,-20.5 94,-20.5"/>
<text text-anchor="middle" x="50" y="-7" font-family="Helvetica,sans-Serif" font-size="10.00"> </text>
</a>
</g>
</g>
<!-- Node2 -->
<g id="node2" class="node">
<title>Node2</title>
<g id="a_node2"><a xlink:href="class_code_smile_1_1_pro_tiler_1_1_assets_1_1_tile3_d_asset.html" target="_top" xlink:title=" ">
<polygon fill="white" stroke="#666666" points="15.75,-97.5 15.75,-157.5 84.25,-157.5 84.25,-97.5 15.75,-97.5"/>
<text text-anchor="middle" x="50" y="-144" font-family="Helvetica,sans-Serif" font-size="10.00">Tile3DAsset</text>
<polyline fill="none" stroke="#666666" points="15.75,-137.5 84.25,-137.5"/>
<text text-anchor="middle" x="50" y="-124" font-family="Helvetica,sans-Serif" font-size="10.00"> </text>
<polyline fill="none" stroke="#666666" points="15.75,-117.5 84.25,-117.5"/>
<text text-anchor="middle" x="50" y="-104" font-family="Helvetica,sans-Serif" font-size="10.00"> </text>
</a>
</g>
</g>
<!-- Node2&#45;&gt;Node1 -->
<g id="edge1" class="edge">
<title>Node2&#45;&gt;Node1</title>
<path fill="none" stroke="#63b8ff" d="M50,-86.84C50,-78.01 50,-68.8 50,-60.49"/>
<polygon fill="none" stroke="#63b8ff" points="46.5,-86.74 50,-96.74 53.5,-86.74 46.5,-86.74"/>
</g>
<!-- Node3 -->
<g id="node3" class="node">
<title>Node3</title>
<g id="a_node3"><a xlink:href="class_code_smile_1_1_pro_tiler_1_1_assets_1_1_tile3_d_asset_base.html" target="_top" xlink:title=" ">
<polygon fill="white" stroke="#666666" points="0,-194.5 0,-278.5 100,-278.5 100,-194.5 0,-194.5"/>
<text text-anchor="middle" x="50" y="-265" font-family="Helvetica,sans-Serif" font-size="10.00">Tile3DAssetBase</text>
<polyline fill="none" stroke="#666666" points="0,-258.5 100,-258.5"/>
<text text-anchor="start" x="8" y="-245" font-family="Helvetica,sans-Serif" font-size="10.00">+ Flags</text>
<text text-anchor="start" x="8" y="-233" font-family="Helvetica,sans-Serif" font-size="10.00">+ Prefab</text>
<text text-anchor="start" x="8" y="-221" font-family="Helvetica,sans-Serif" font-size="10.00">+ Transform</text>
<polyline fill="none" stroke="#666666" points="0,-214.5 100,-214.5"/>
<text text-anchor="start" x="8" y="-201" font-family="Helvetica,sans-Serif" font-size="10.00">~ SetDefaultFlags()</text>
</a>
</g>
</g>
<!-- Node3&#45;&gt;Node2 -->
<g id="edge2" class="edge">
<title>Node3&#45;&gt;Node2</title>
<path fill="none" stroke="#63b8ff" d="M50,-184.01C50,-174.78 50,-165.47 50,-157.18"/>
<polygon fill="none" stroke="#63b8ff" points="46.5,-183.74 50,-193.74 53.5,-183.74 46.5,-183.74"/>
</g>
<!-- Node4 -->
<g id="node4" class="node">
<title>Node4</title>
<g id="a_node4"><a xlink:title=" ">
<polygon fill="white" stroke="#666666" points="6,-315.5 6,-375.5 94,-375.5 94,-315.5 6,-315.5"/>
<text text-anchor="middle" x="50" y="-362" font-family="Helvetica,sans-Serif" font-size="10.00">ScriptableObject</text>
<polyline fill="none" stroke="#666666" points="6,-355.5 94,-355.5"/>
<text text-anchor="middle" x="50" y="-342" font-family="Helvetica,sans-Serif" font-size="10.00"> </text>
<polyline fill="none" stroke="#666666" points="6,-335.5 94,-335.5"/>
<text text-anchor="middle" x="50" y="-322" font-family="Helvetica,sans-Serif" font-size="10.00"> </text>
</a>
</g>
</g>
<!-- Node4&#45;&gt;Node3 -->
<g id="edge3" class="edge">
<title>Node4&#45;&gt;Node3</title>
<path fill="none" stroke="#63b8ff" d="M50,-304.57C50,-295.93 50,-286.79 50,-278.13"/>
<polygon fill="none" stroke="#63b8ff" points="46.5,-304.54 50,-314.54 53.5,-304.54 46.5,-304.54"/>
</g>
</g>
</svg>
