<?xml version="1.0" encoding="UTF-8" standalone="no"?>
<!DOCTYPE svg PUBLIC "-//W3C//DTD SVG 1.1//EN"
 "http://www.w3.org/Graphics/SVG/1.1/DTD/svg11.dtd">
<!-- Generated by graphviz version 8.0.5 (20230430.1635)
 -->
<!-- Title: Tile3DAssetBase Pages: 1 -->
<svg width="108pt" height="190pt"
 viewBox="0.00 0.00 108.00 190.00" xmlns="http://www.w3.org/2000/svg" xmlns:xlink="http://www.w3.org/1999/xlink">
<g id="graph0" class="graph" transform="scale(1 1) rotate(0) translate(4 186)">
<title>Tile3DAssetBase</title>
<!-- Node1 -->
<g id="node1" class="node">
<title>Node1</title>
<g id="a_node1"><a xlink:title=" ">
<polygon fill="#999999" stroke="#666666" points="0,-0.5 0,-84.5 100,-84.5 100,-0.5 0,-0.5"/>
<text text-anchor="middle" x="50" y="-71" font-family="Helvetica,sans-Serif" font-size="10.00">Tile3DAssetBase</text>
<polyline fill="none" stroke="#666666" points="0,-64.5 100,-64.5"/>
<text text-anchor="start" x="8" y="-51" font-family="Helvetica,sans-Serif" font-size="10.00">+ Flags</text>
<text text-anchor="start" x="8" y="-39" font-family="Helvetica,sans-Serif" font-size="10.00">+ Prefab</text>
<text text-anchor="start" x="8" y="-27" font-family="Helvetica,sans-Serif" font-size="10.00">+ Transform</text>
<polyline fill="none" stroke="#666666" points="0,-20.5 100,-20.5"/>
<text text-anchor="start" x="8" y="-7" font-family="Helvetica,sans-Serif" font-size="10.00">~ SetDefaultFlags()</text>
</a>
</g>
</g>
<!-- Node2 -->
<g id="node2" class="node">
<title>Node2</title>
<g id="a_node2"><a xlink:title=" ">
<polygon fill="white" stroke="#666666" points="6,-121.5 6,-181.5 94,-181.5 94,-121.5 6,-121.5"/>
<text text-anchor="middle" x="50" y="-168" font-family="Helvetica,sans-Serif" font-size="10.00">ScriptableObject</text>
<polyline fill="none" stroke="#666666" points="6,-161.5 94,-161.5"/>
<text text-anchor="middle" x="50" y="-148" font-family="Helvetica,sans-Serif" font-size="10.00"> </text>
<polyline fill="none" stroke="#666666" points="6,-141.5 94,-141.5"/>
<text text-anchor="middle" x="50" y="-128" font-family="Helvetica,sans-Serif" font-size="10.00"> </text>
</a>
</g>
</g>
<!-- Node2&#45;&gt;Node1 -->
<g id="edge1" class="edge">
<title>Node2&#45;&gt;Node1</title>
<path fill="none" stroke="#63b8ff" d="M50,-110.57C50,-101.93 50,-92.79 50,-84.13"/>
<polygon fill="none" stroke="#63b8ff" points="46.5,-110.54 50,-120.54 53.5,-110.54 46.5,-110.54"/>
</g>
</g>
</svg>
