<?xml version="1.0" encoding="UTF-8" standalone="no"?>
<!DOCTYPE svg PUBLIC "-//W3C//DTD SVG 1.1//EN"
 "http://www.w3.org/Graphics/SVG/1.1/DTD/svg11.dtd">
<!-- Generated by graphviz version 8.0.5 (20230430.1635)
 -->
<!-- Title: ComponentPool&lt; T &gt; Pages: 1 -->
<svg width="116pt" height="202pt"
 viewBox="0.00 0.00 116.25 202.00" xmlns="http://www.w3.org/2000/svg" xmlns:xlink="http://www.w3.org/1999/xlink">
<g id="graph0" class="graph" transform="scale(1 1) rotate(0) translate(4 198)">
<title>ComponentPool&lt; T &gt;</title>
<!-- Node1 -->
<g id="node1" class="node">
<title>Node1</title>
<g id="a_node1"><a xlink:title="Pools a component of a prefab. This also works with GameObject instances except that you will have to...">
<polygon fill="#999999" stroke="#666666" points="0,-0.5 0,-96.5 108.25,-96.5 108.25,-0.5 0,-0.5"/>
<text text-anchor="middle" x="54.12" y="-83" font-family="Helvetica,sans-Serif" font-size="10.00">ComponentPool&lt; T &gt;</text>
<polyline fill="none" stroke="#666666" points="0,-76.5 108.25,-76.5"/>
<text text-anchor="start" x="8" y="-63" font-family="Helvetica,sans-Serif" font-size="10.00">+ AllInstances</text>
<text text-anchor="start" x="8" y="-51" font-family="Helvetica,sans-Serif" font-size="10.00">+ Count</text>
<polyline fill="none" stroke="#666666" points="0,-44.5 108.25,-44.5"/>
<text text-anchor="start" x="8" y="-31" font-family="Helvetica,sans-Serif" font-size="10.00">+ ComponentPool()</text>
<text text-anchor="start" x="8" y="-19" font-family="Helvetica,sans-Serif" font-size="10.00">+ Clear()</text>
<text text-anchor="start" x="8" y="-7" font-family="Helvetica,sans-Serif" font-size="10.00">+ Dispose()</text>
</a>
</g>
</g>
<!-- Node2 -->
<g id="node2" class="node">
<title>Node2</title>
<g id="a_node2"><a xlink:title=" ">
<polygon fill="white" stroke="#666666" points="21,-133.5 21,-193.5 87.25,-193.5 87.25,-133.5 21,-133.5"/>
<text text-anchor="middle" x="54.12" y="-180" font-family="Helvetica,sans-Serif" font-size="10.00">IDisposable</text>
<polyline fill="none" stroke="#666666" points="21,-173.5 87.25,-173.5"/>
<text text-anchor="middle" x="54.12" y="-160" font-family="Helvetica,sans-Serif" font-size="10.00"> </text>
<polyline fill="none" stroke="#666666" points="21,-153.5 87.25,-153.5"/>
<text text-anchor="middle" x="54.12" y="-140" font-family="Helvetica,sans-Serif" font-size="10.00"> </text>
</a>
</g>
</g>
<!-- Node2&#45;&gt;Node1 -->
<g id="edge1" class="edge">
<title>Node2&#45;&gt;Node1</title>
<path fill="none" stroke="#63b8ff" d="M54.12,-122.81C54.12,-114.23 54.12,-105.08 54.12,-96.26"/>
<polygon fill="none" stroke="#63b8ff" points="50.63,-122.69 54.12,-132.69 57.63,-122.69 50.63,-122.69"/>
</g>
</g>
</svg>
