<?xml version="1.0" encoding="UTF-8" standalone="no"?>
<!DOCTYPE svg PUBLIC "-//W3C//DTD SVG 1.1//EN"
 "http://www.w3.org/Graphics/SVG/1.1/DTD/svg11.dtd">
<!-- Generated by graphviz version 8.0.5 (20230430.1635)
 -->
<!-- Title: Tilemap3DBehaviour Pages: 1 -->
<svg width="112pt" height="238pt"
 viewBox="0.00 0.00 111.75 238.00" xmlns="http://www.w3.org/2000/svg" xmlns:xlink="http://www.w3.org/1999/xlink">
<g id="graph0" class="graph" transform="scale(1 1) rotate(0) translate(4 234)">
<title>Tilemap3DBehaviour</title>
<!-- Node1 -->
<g id="node1" class="node">
<title>Node1</title>
<g id="a_node1"><a xlink:title=" ">
<polygon fill="#999999" stroke="#666666" points="0,-0.5 0,-132.5 103.75,-132.5 103.75,-0.5 0,-0.5"/>
<text text-anchor="middle" x="51.88" y="-119" font-family="Helvetica,sans-Serif" font-size="10.00">Tilemap3DBehaviour</text>
<polyline fill="none" stroke="#666666" points="0,-112.5 103.75,-112.5"/>
<text text-anchor="start" x="8" y="-99" font-family="Helvetica,sans-Serif" font-size="10.00">+ ChunkSize</text>
<text text-anchor="start" x="8" y="-87" font-family="Helvetica,sans-Serif" font-size="10.00">+ Grid</text>
<text text-anchor="start" x="8" y="-75" font-family="Helvetica,sans-Serif" font-size="10.00">+ TileCount</text>
<polyline fill="none" stroke="#666666" points="0,-68.5 103.75,-68.5"/>
<text text-anchor="start" x="8" y="-55" font-family="Helvetica,sans-Serif" font-size="10.00">+ GetLayerCount()</text>
<text text-anchor="start" x="8" y="-43" font-family="Helvetica,sans-Serif" font-size="10.00">+ GetTile()</text>
<text text-anchor="start" x="8" y="-31" font-family="Helvetica,sans-Serif" font-size="10.00">+ GetTiles()</text>
<text text-anchor="start" x="8" y="-19" font-family="Helvetica,sans-Serif" font-size="10.00">+ SetTile()</text>
<text text-anchor="start" x="8" y="-7" font-family="Helvetica,sans-Serif" font-size="10.00">+ SetTiles()</text>
</a>
</g>
</g>
<!-- Node2 -->
<g id="node2" class="node">
<title>Node2</title>
<g id="a_node2"><a xlink:title=" ">
<polygon fill="white" stroke="#666666" points="10.88,-169.5 10.88,-229.5 92.88,-229.5 92.88,-169.5 10.88,-169.5"/>
<text text-anchor="middle" x="51.88" y="-216" font-family="Helvetica,sans-Serif" font-size="10.00">MonoBehaviour</text>
<polyline fill="none" stroke="#666666" points="10.88,-209.5 92.88,-209.5"/>
<text text-anchor="middle" x="51.88" y="-196" font-family="Helvetica,sans-Serif" font-size="10.00"> </text>
<polyline fill="none" stroke="#666666" points="10.88,-189.5 92.88,-189.5"/>
<text text-anchor="middle" x="51.88" y="-176" font-family="Helvetica,sans-Serif" font-size="10.00"> </text>
</a>
</g>
</g>
<!-- Node2&#45;&gt;Node1 -->
<g id="edge1" class="edge">
<title>Node2&#45;&gt;Node1</title>
<path fill="none" stroke="#63b8ff" d="M51.88,-158.83C51.88,-150.47 51.88,-141.44 51.88,-132.43"/>
<polygon fill="none" stroke="#63b8ff" points="48.38,-158.75 51.88,-168.75 55.38,-158.75 48.38,-158.75"/>
</g>
</g>
</svg>
