<?xml version="1.0" encoding="UTF-8" standalone="no"?>
<!DOCTYPE svg PUBLIC "-//W3C//DTD SVG 1.1//EN"
 "http://www.w3.org/Graphics/SVG/1.1/DTD/svg11.dtd">
<!-- Generated by graphviz version 8.0.5 (20230430.1635)
 -->
<!-- Title: Colors Pages: 1 -->
<svg width="105pt" height="178pt"
 viewBox="0.00 0.00 104.50 178.00" xmlns="http://www.w3.org/2000/svg" xmlns:xlink="http://www.w3.org/1999/xlink">
<g id="graph0" class="graph" transform="scale(1 1) rotate(0) translate(4 174)">
<title>Colors</title>
<!-- Node1 -->
<g id="node1" class="node">
<title>Node1</title>
<g id="a_node1"><a xlink:title=" ">
<polygon fill="#999999" stroke="#666666" points="12.38,-0.5 12.38,-60.5 56.12,-60.5 56.12,-0.5 12.38,-0.5"/>
<text text-anchor="middle" x="34.25" y="-47" font-family="Helvetica,sans-Serif" font-size="10.00">Colors</text>
<polyline fill="none" stroke="#666666" points="12.38,-40.5 56.12,-40.5"/>
<text text-anchor="middle" x="34.25" y="-27" font-family="Helvetica,sans-Serif" font-size="10.00"> </text>
<polyline fill="none" stroke="#666666" points="12.38,-20.5 56.12,-20.5"/>
<text text-anchor="middle" x="34.25" y="-7" font-family="Helvetica,sans-Serif" font-size="10.00"> </text>
</a>
</g>
</g>
<!-- Node2 -->
<g id="node2" class="node">
<title>Node2</title>
<g id="a_node2"><a xlink:title=" ">
<polygon fill="white" stroke="#666666" points="0,-109.5 0,-169.5 68.5,-169.5 68.5,-109.5 0,-109.5"/>
<text text-anchor="middle" x="34.25" y="-156" font-family="Helvetica,sans-Serif" font-size="10.00">UnityEngine</text>
<polyline fill="none" stroke="#666666" points="0,-149.5 68.5,-149.5"/>
<text text-anchor="middle" x="34.25" y="-136" font-family="Helvetica,sans-Serif" font-size="10.00"> </text>
<polyline fill="none" stroke="#666666" points="0,-129.5 68.5,-129.5"/>
<text text-anchor="middle" x="34.25" y="-116" font-family="Helvetica,sans-Serif" font-size="10.00"> </text>
</a>
</g>
</g>
<!-- Node2&#45;&gt;Node1 -->
<g id="edge1" class="edge">
<title>Node2&#45;&gt;Node1</title>
<path fill="none" stroke="#404040" d="M34.25,-109.54C34.25,-98.36 34.25,-85.36 34.25,-73.2"/>
<polygon fill="none" stroke="#404040" points="34.25,-73.38 30.25,-67.38 34.25,-61.38 38.25,-67.38 34.25,-73.38"/>
<text text-anchor="middle" x="65.38" y="-81.5" font-family="Helvetica,sans-Serif" font-size="10.00"> +OutlineColor</text>
</g>
</g>
</svg>
