<?xml version="1.0" encoding="UTF-8" standalone="no"?>
<!DOCTYPE svg PUBLIC "-//W3C//DTD SVG 1.1//EN"
 "http://www.w3.org/Graphics/SVG/1.1/DTD/svg11.dtd">
<!-- Generated by graphviz version 8.0.5 (20230430.1635)
 -->
<!-- Title: SetTiles Pages: 1 -->
<svg width="324pt" height="104pt"
 viewBox="0.00 0.00 324.25 104.00" xmlns="http://www.w3.org/2000/svg" xmlns:xlink="http://www.w3.org/1999/xlink">
<g id="graph0" class="graph" transform="scale(1 1) rotate(0) translate(4 100)">
<title>SetTiles</title>
<!-- Node1 -->
<g id="node1" class="node">
<title>Node1</title>
<g id="a_node1"><a xlink:title=" ">
<polygon fill="#999999" stroke="#666666" points="51.25,-58 0,-58 0,-38 51.25,-38 51.25,-58"/>
<text text-anchor="middle" x="25.62" y="-44.5" font-family="Helvetica,sans-Serif" font-size="10.00">SetTiles</text>
</a>
</g>
</g>
<!-- Node2 -->
<g id="node2" class="node">
<title>Node2</title>
<g id="a_node2"><a xlink:href="class_code_smile_1_1_pro_tiler_1_1_data_1_1___old_tilemap3_d.html#a79f7c5a0ee771d83b253e2e1fa7f58ee" target="_top" xlink:title=" ">
<polygon fill="white" stroke="#666666" points="241.62,-96 161.88,-96 161.88,-76 241.62,-76 241.62,-96"/>
<text text-anchor="middle" x="201.75" y="-82.5" font-family="Helvetica,sans-Serif" font-size="10.00">ToChunkCoord</text>
</a>
</g>
</g>
<!-- Node1&#45;&gt;Node2 -->
<g id="edge1" class="edge">
<title>Node1&#45;&gt;Node2</title>
<path fill="none" stroke="#63b8ff" d="M51.48,-56.64C62.36,-60.2 75.34,-64.15 87.25,-67 107.91,-71.94 130.98,-76.06 150.9,-79.18"/>
<polygon fill="#63b8ff" stroke="#63b8ff" points="150.2,-82.76 160.61,-80.81 151.25,-75.84 150.2,-82.76"/>
</g>
<!-- Node3 -->
<g id="node3" class="node">
<title>Node3</title>
<g id="a_node3"><a xlink:href="class_code_smile_1_1_pro_tiler_1_1_data_1_1_grid3_d_utility.html#a559c7b8ca964b39cd675b46e110edb83" target="_top" xlink:title="Converts x/z coordinate to a 2D array index.">
<polygon fill="white" stroke="#666666" points="316.25,-58 87.25,-58 87.25,-38 316.25,-38 316.25,-58"/>
<text text-anchor="middle" x="201.75" y="-44.5" font-family="Helvetica,sans-Serif" font-size="10.00">CodeSmile.ProTiler.Data.Grid3DUtility.ToIndex2D</text>
</a>
</g>
</g>
<!-- Node1&#45;&gt;Node3 -->
<g id="edge2" class="edge">
<title>Node1&#45;&gt;Node3</title>
<path fill="none" stroke="#63b8ff" d="M51.57,-48C58.74,-48 67.07,-48 76.07,-48"/>
<polygon fill="#63b8ff" stroke="#63b8ff" points="75.91,-51.5 85.91,-48 75.91,-44.5 75.91,-51.5"/>
</g>
<!-- Node4 -->
<g id="node4" class="node">
<title>Node4</title>
<g id="a_node4"><a xlink:href="class_code_smile_1_1_pro_tiler_1_1_data_1_1___old_tilemap3_d.html#aee0c3548e0d2e7309e726cc5112b92b7" target="_top" xlink:title=" ">
<polygon fill="white" stroke="#666666" points="239.75,-20 163.75,-20 163.75,0 239.75,0 239.75,-20"/>
<text text-anchor="middle" x="201.75" y="-6.5" font-family="Helvetica,sans-Serif" font-size="10.00">ToLayerCoord</text>
</a>
</g>
</g>
<!-- Node1&#45;&gt;Node4 -->
<g id="edge3" class="edge">
<title>Node1&#45;&gt;Node4</title>
<path fill="none" stroke="#63b8ff" d="M51.48,-39.36C62.36,-35.8 75.34,-31.85 87.25,-29 108.48,-23.92 132.27,-19.72 152.56,-16.57"/>
<polygon fill="#63b8ff" stroke="#63b8ff" points="153.06,-19.88 162.43,-14.92 152.02,-12.96 153.06,-19.88"/>
</g>
</g>
</svg>
