<?xml version="1.0" encoding="UTF-8" standalone="no"?>
<!DOCTYPE svg PUBLIC "-//W3C//DTD SVG 1.1//EN"
 "http://www.w3.org/Graphics/SVG/1.1/DTD/svg11.dtd">
<!-- Generated by graphviz version 8.0.5 (20230430.1635)
 -->
<!-- Title: ToIndex2D Pages: 1 -->
<svg width="336pt" height="104pt"
 viewBox="0.00 0.00 336.25 104.00" xmlns="http://www.w3.org/2000/svg" xmlns:xlink="http://www.w3.org/1999/xlink">
<g id="graph0" class="graph" transform="scale(1 1) rotate(0) translate(4 100)">
<title>ToIndex2D</title>
<!-- Node1 -->
<g id="node1" class="node">
<title>Node1</title>
<g id="a_node1"><a xlink:title="Converts x/z coordinate to a 2D array index.">
<polygon fill="#999999" stroke="#666666" points="328.25,-58 266.5,-58 266.5,-38 328.25,-38 328.25,-58"/>
<text text-anchor="middle" x="297.38" y="-44.5" font-family="Helvetica,sans-Serif" font-size="10.00">ToIndex2D</text>
</a>
</g>
</g>
<!-- Node2 -->
<g id="node2" class="node">
<title>Node2</title>
<g id="a_node2"><a xlink:href="class_code_smile_1_1_pro_tiler_1_1_data_1_1___old_tilemap3_d.html#ad94ef5007e9cd776232e3298b7955708" target="_top" xlink:title=" ">
<polygon fill="white" stroke="#666666" points="230.5,-96 0,-96 0,-76 230.5,-76 230.5,-96"/>
<text text-anchor="middle" x="115.25" y="-82.5" font-family="Helvetica,sans-Serif" font-size="10.00">CodeSmile.ProTiler.Data._OldTilemap3D.GetTiles</text>
</a>
</g>
</g>
<!-- Node1&#45;&gt;Node2 -->
<g id="edge1" class="edge">
<title>Node1&#45;&gt;Node2</title>
<path fill="none" stroke="#63b8ff" d="M255.53,-60.58C247.29,-62.89 238.65,-65.15 230.5,-67 216.58,-70.15 201.59,-73.02 187.2,-75.52"/>
<polygon fill="#63b8ff" stroke="#63b8ff" points="256.43,-63.67 265.07,-57.54 254.49,-56.95 256.43,-63.67"/>
</g>
<!-- Node3 -->
<g id="node3" class="node">
<title>Node3</title>
<g id="a_node3"><a xlink:href="struct_code_smile_1_1_pro_tiler_1_1_data_1_1_tile3_d_layer.html#a11390df53bb30bcb7b09148258556206" target="_top" xlink:title="Sets tiles at the given coordinate using a list of Tile3DCoord instances.">
<polygon fill="white" stroke="#666666" points="222.62,-58 7.88,-58 7.88,-38 222.62,-38 222.62,-58"/>
<text text-anchor="middle" x="115.25" y="-44.5" font-family="Helvetica,sans-Serif" font-size="10.00">CodeSmile.ProTiler.Data.Tile3DLayer.SetTiles</text>
</a>
</g>
</g>
<!-- Node1&#45;&gt;Node3 -->
<g id="edge2" class="edge">
<title>Node1&#45;&gt;Node3</title>
<path fill="none" stroke="#63b8ff" d="M255.23,-48C245.38,-48 234.42,-48 223.09,-48"/>
<polygon fill="#63b8ff" stroke="#63b8ff" points="255.23,-51.5 265.23,-48 255.23,-44.5 255.23,-51.5"/>
</g>
<!-- Node4 -->
<g id="node4" class="node">
<title>Node4</title>
<g id="a_node4"><a xlink:href="class_code_smile_1_1_pro_tiler_1_1_data_1_1___old_tilemap3_d.html#afd7d841ae051f11848338d799e0e5ff6" target="_top" xlink:title=" ">
<polygon fill="white" stroke="#666666" points="230.12,-20 0.38,-20 0.38,0 230.12,0 230.12,-20"/>
<text text-anchor="middle" x="115.25" y="-6.5" font-family="Helvetica,sans-Serif" font-size="10.00">CodeSmile.ProTiler.Data._OldTilemap3D.SetTiles</text>
</a>
</g>
</g>
<!-- Node1&#45;&gt;Node4 -->
<g id="edge3" class="edge">
<title>Node1&#45;&gt;Node4</title>
<path fill="none" stroke="#63b8ff" d="M255.53,-35.42C247.29,-33.11 238.65,-30.85 230.5,-29 216.58,-25.85 201.59,-22.98 187.2,-20.48"/>
<polygon fill="#63b8ff" stroke="#63b8ff" points="254.49,-39.05 265.07,-38.46 256.43,-32.33 254.49,-39.05"/>
</g>
</g>
</svg>
