<?xml version="1.0" encoding="UTF-8" standalone="no"?>
<!DOCTYPE svg PUBLIC "-//W3C//DTD SVG 1.1//EN"
 "http://www.w3.org/Graphics/SVG/1.1/DTD/svg11.dtd">
<!-- Generated by graphviz version 8.0.5 (20230430.1635)
 -->
<!-- Title: LoadMissingTileAsset Pages: 1 -->
<svg width="604pt" height="72pt"
 viewBox="0.00 0.00 604.25 72.00" xmlns="http://www.w3.org/2000/svg" xmlns:xlink="http://www.w3.org/1999/xlink">
<g id="graph0" class="graph" transform="scale(1 1) rotate(0) translate(4 68)">
<title>LoadMissingTileAsset</title>
<!-- Node1 -->
<g id="node1" class="node">
<title>Node1</title>
<g id="a_node1"><a xlink:title=" ">
<polygon fill="#999999" stroke="#666666" points="596.25,-39 485,-39 485,-19 596.25,-19 596.25,-39"/>
<text text-anchor="middle" x="540.62" y="-25.5" font-family="Helvetica,sans-Serif" font-size="10.00">LoadMissingTileAsset</text>
</a>
</g>
</g>
<!-- Node2 -->
<g id="node2" class="node">
<title>Node2</title>
<g id="a_node2"><a xlink:href="class_code_smile_1_1_pro_tiler_1_1_assets_1_1_tile3_d_asset_base_set.html#a1e3b6d38df0786ccf7f938d60e386aae" target="_top" xlink:title=" ">
<polygon fill="white" stroke="#666666" points="370.65,-58 341.85,-58 341.85,-38 370.65,-38 370.65,-58"/>
<text text-anchor="middle" x="356.25" y="-44.5" font-family="Helvetica,sans-Serif" font-size="10.00">Init</text>
</a>
</g>
</g>
<!-- Node1&#45;&gt;Node2 -->
<g id="edge1" class="edge">
<title>Node1&#45;&gt;Node2</title>
<path fill="none" stroke="#63b8ff" d="M474.04,-35.83C436.62,-39.73 392.95,-44.28 371.14,-46.55"/>
<polygon fill="#63b8ff" stroke="#63b8ff" points="474.32,-39.22 483.91,-34.7 473.6,-32.26 474.32,-39.22"/>
</g>
<!-- Node4 -->
<g id="node4" class="node">
<title>Node4</title>
<g id="a_node4"><a xlink:href="class_code_smile_1_1_pro_tiler_1_1_assets_1_1_tile3_d_asset_base_set.html#ae6d762ae14c6302a2dd04626afa9cf39" target="_top" xlink:title=" ">
<polygon fill="white" stroke="#666666" points="449,-20 263.5,-20 263.5,0 449,0 449,-20"/>
<text text-anchor="middle" x="356.25" y="-6.5" font-family="Helvetica,sans-Serif" font-size="10.00">LoadMissingTileAssetAndSetAsDefault</text>
</a>
</g>
</g>
<!-- Node1&#45;&gt;Node4 -->
<g id="edge3" class="edge">
<title>Node1&#45;&gt;Node4</title>
<path fill="none" stroke="#63b8ff" d="M474.15,-22.18C466.11,-21.34 457.78,-20.47 449.44,-19.6"/>
<polygon fill="#63b8ff" stroke="#63b8ff" points="473.6,-25.74 483.91,-23.3 474.32,-18.78 473.6,-25.74"/>
</g>
<!-- Node3 -->
<g id="node3" class="node">
<title>Node3</title>
<g id="a_node3"><a xlink:href="class_code_smile_1_1_pro_tiler_1_1_assets_1_1_tile3_d_asset_register.html#ac83ab5ec08783728352faaa5265b98e6" target="_top" xlink:title=" ">
<polygon fill="white" stroke="#666666" points="227.5,-64 0,-64 0,-32 227.5,-32 227.5,-64"/>
<text text-anchor="start" x="8" y="-50.5" font-family="Helvetica,sans-Serif" font-size="10.00">CodeSmile.ProTiler.Assets.Tile3DAssetRegister.</text>
<text text-anchor="middle" x="113.75" y="-38.5" font-family="Helvetica,sans-Serif" font-size="10.00">AssignSingletonInstance</text>
</a>
</g>
</g>
<!-- Node2&#45;&gt;Node3 -->
<g id="edge2" class="edge">
<title>Node2&#45;&gt;Node3</title>
<path fill="none" stroke="#63b8ff" d="M330.86,-48C306.31,-48 266.62,-48 227.92,-48"/>
<polygon fill="#63b8ff" stroke="#63b8ff" points="330.63,-51.5 340.63,-48 330.63,-44.5 330.63,-51.5"/>
</g>
</g>
</svg>
