<?xml version="1.0" encoding="UTF-8" standalone="no"?>
<!DOCTYPE svg PUBLIC "-//W3C//DTD SVG 1.1//EN"
 "http://www.w3.org/Graphics/SVG/1.1/DTD/svg11.dtd">
<!-- Generated by graphviz version 8.0.5 (20230430.1635)
 -->
<!-- Title: Tile3DRendererBehaviour Pages: 1 -->
<svg width="132pt" height="166pt"
 viewBox="0.00 0.00 132.00 166.00" xmlns="http://www.w3.org/2000/svg" xmlns:xlink="http://www.w3.org/1999/xlink">
<g id="graph0" class="graph" transform="scale(1 1) rotate(0) translate(4 162)">
<title>Tile3DRendererBehaviour</title>
<!-- Node1 -->
<g id="node1" class="node">
<title>Node1</title>
<g id="a_node1"><a xlink:title=" ">
<polygon fill="#999999" stroke="#666666" points="0,-0.5 0,-60.5 124,-60.5 124,-0.5 0,-0.5"/>
<text text-anchor="middle" x="62" y="-47" font-family="Helvetica,sans-Serif" font-size="10.00">Tile3DRendererBehaviour</text>
<polyline fill="none" stroke="#666666" points="0,-40.5 124,-40.5"/>
<text text-anchor="middle" x="62" y="-27" font-family="Helvetica,sans-Serif" font-size="10.00"> </text>
<polyline fill="none" stroke="#666666" points="0,-20.5 124,-20.5"/>
<text text-anchor="middle" x="62" y="-7" font-family="Helvetica,sans-Serif" font-size="10.00"> </text>
</a>
</g>
</g>
<!-- Node2 -->
<g id="node2" class="node">
<title>Node2</title>
<g id="a_node2"><a xlink:title=" ">
<polygon fill="white" stroke="#666666" points="21,-97.5 21,-157.5 103,-157.5 103,-97.5 21,-97.5"/>
<text text-anchor="middle" x="62" y="-144" font-family="Helvetica,sans-Serif" font-size="10.00">MonoBehaviour</text>
<polyline fill="none" stroke="#666666" points="21,-137.5 103,-137.5"/>
<text text-anchor="middle" x="62" y="-124" font-family="Helvetica,sans-Serif" font-size="10.00"> </text>
<polyline fill="none" stroke="#666666" points="21,-117.5 103,-117.5"/>
<text text-anchor="middle" x="62" y="-104" font-family="Helvetica,sans-Serif" font-size="10.00"> </text>
</a>
</g>
</g>
<!-- Node2&#45;&gt;Node1 -->
<g id="edge1" class="edge">
<title>Node2&#45;&gt;Node1</title>
<path fill="none" stroke="#63b8ff" d="M62,-86.84C62,-78.01 62,-68.8 62,-60.49"/>
<polygon fill="none" stroke="#63b8ff" points="58.5,-86.74 62,-96.74 65.5,-86.74 58.5,-86.74"/>
</g>
</g>
</svg>
