<?xml version="1.0" encoding="UTF-8" standalone="no"?>
<!DOCTYPE svg PUBLIC "-//W3C//DTD SVG 1.1//EN"
 "http://www.w3.org/Graphics/SVG/1.1/DTD/svg11.dtd">
<!-- Generated by graphviz version 8.0.5 (20230430.1635)
 -->
<!-- Title: GetChunkCoord Pages: 1 -->
<svg width="389pt" height="128pt"
 viewBox="0.00 0.00 388.75 128.00" xmlns="http://www.w3.org/2000/svg" xmlns:xlink="http://www.w3.org/1999/xlink">
<g id="graph0" class="graph" transform="scale(1 1) rotate(0) translate(4 124)">
<title>GetChunkCoord</title>
<!-- Node1 -->
<g id="node1" class="node">
<title>Node1</title>
<g id="a_node1"><a xlink:title=" ">
<polygon fill="#999999" stroke="#666666" points="85,-76 0,-76 0,-56 85,-56 85,-76"/>
<text text-anchor="middle" x="42.5" y="-62.5" font-family="Helvetica,sans-Serif" font-size="10.00">GetChunkCoord</text>
</a>
</g>
</g>
<!-- Node2 -->
<g id="node2" class="node">
<title>Node2</title>
<g id="a_node2"><a xlink:href="class_code_smile_1_1_pro_tiler_1_1_data_1_1_tilemap3_d_utility.html#a554ecfe5857bf579af679d5a525500be" target="_top" xlink:title=" ">
<polygon fill="white" stroke="#666666" points="380.75,-120 121,-120 121,-100 380.75,-100 380.75,-120"/>
<text text-anchor="middle" x="250.88" y="-106.5" font-family="Helvetica,sans-Serif" font-size="10.00">CodeSmile.ProTiler.Data.Tilemap3DUtility.GetChunkKey</text>
</a>
</g>
</g>
<!-- Node1&#45;&gt;Node2 -->
<g id="edge1" class="edge">
<title>Node1&#45;&gt;Node2</title>
<path fill="none" stroke="#63b8ff" d="M71.89,-76.41C86.42,-81.41 104.48,-87.15 121,-91 131.68,-93.49 142.94,-95.72 154.18,-97.7"/>
<polygon fill="#63b8ff" stroke="#63b8ff" points="153.48,-101.3 163.92,-99.52 154.65,-94.4 153.48,-101.3"/>
</g>
<!-- Node3 -->
<g id="node3" class="node">
<title>Node3</title>
<g id="a_node3"><a xlink:href="class_code_smile_1_1_pro_tiler_1_1_data_1_1_tilemap3_d_utility.html#a14006c80842572b020ab01bae70a64ee" target="_top" xlink:title="Note: negative grid coordinates result in negative chunk coordinates &#45; but offset by 1....">
<polygon fill="white" stroke="#666666" points="359.38,-82 142.38,-82 142.38,-50 359.38,-50 359.38,-82"/>
<text text-anchor="start" x="150.38" y="-68.5" font-family="Helvetica,sans-Serif" font-size="10.00">CodeSmile.ProTiler.Data.Tilemap3DUtility.Grid</text>
<text text-anchor="middle" x="250.88" y="-56.5" font-family="Helvetica,sans-Serif" font-size="10.00">ToChunkCoord</text>
</a>
</g>
</g>
<!-- Node1&#45;&gt;Node3 -->
<g id="edge2" class="edge">
<title>Node1&#45;&gt;Node3</title>
<path fill="none" stroke="#63b8ff" d="M85.26,-66C98.89,-66 114.75,-66 131.16,-66"/>
<polygon fill="#63b8ff" stroke="#63b8ff" points="131,-69.5 141,-66 131,-62.5 131,-69.5"/>
</g>
<!-- Node4 -->
<g id="node4" class="node">
<title>Node4</title>
<g id="a_node4"><a xlink:href="class_code_smile_1_1_pro_tiler_1_1_data_1_1_tilemap3_d_utility.html#a9f8f74471399325230854b8467f91528" target="_top" xlink:title=" ">
<polygon fill="white" stroke="#666666" points="359.38,-32 142.38,-32 142.38,0 359.38,0 359.38,-32"/>
<text text-anchor="start" x="150.38" y="-18.5" font-family="Helvetica,sans-Serif" font-size="10.00">CodeSmile.ProTiler.Data.Tilemap3DUtility.Grid</text>
<text text-anchor="middle" x="250.88" y="-6.5" font-family="Helvetica,sans-Serif" font-size="10.00">ToLayerCoord</text>
</a>
</g>
</g>
<!-- Node1&#45;&gt;Node4 -->
<g id="edge3" class="edge">
<title>Node1&#45;&gt;Node4</title>
<path fill="none" stroke="#63b8ff" d="M73.06,-55.54C87.42,-50.7 104.98,-45.12 121,-41 129.49,-38.82 138.33,-36.72 147.24,-34.75"/>
<polygon fill="#63b8ff" stroke="#63b8ff" points="147.67,-38.02 156.7,-32.48 146.18,-31.18 147.67,-38.02"/>
</g>
</g>
</svg>
