<?xml version="1.0" encoding="UTF-8" standalone="no"?>
<!DOCTYPE svg PUBLIC "-//W3C//DTD SVG 1.1//EN"
 "http://www.w3.org/Graphics/SVG/1.1/DTD/svg11.dtd">
<!-- Generated by graphviz version 8.0.5 (20230430.1635)
 -->
<!-- Title: ReadOnlyFieldAttribute Pages: 1 -->
<svg width="125pt" height="166pt"
 viewBox="0.00 0.00 124.50 166.00" xmlns="http://www.w3.org/2000/svg" xmlns:xlink="http://www.w3.org/1999/xlink">
<g id="graph0" class="graph" transform="scale(1 1) rotate(0) translate(4 162)">
<title>ReadOnlyFieldAttribute</title>
<!-- Node1 -->
<g id="node1" class="node">
<title>Node1</title>
<g id="a_node1"><a xlink:title="Displays a field as readonly in Inspector. Usage: [ReadOnlyField] public int myValue;.">
<polygon fill="#999999" stroke="#666666" points="0,-0.5 0,-60.5 116.5,-60.5 116.5,-0.5 0,-0.5"/>
<text text-anchor="middle" x="58.25" y="-47" font-family="Helvetica,sans-Serif" font-size="10.00">ReadOnlyFieldAttribute</text>
<polyline fill="none" stroke="#666666" points="0,-40.5 116.5,-40.5"/>
<text text-anchor="middle" x="58.25" y="-27" font-family="Helvetica,sans-Serif" font-size="10.00"> </text>
<polyline fill="none" stroke="#666666" points="0,-20.5 116.5,-20.5"/>
<text text-anchor="middle" x="58.25" y="-7" font-family="Helvetica,sans-Serif" font-size="10.00"> </text>
</a>
</g>
</g>
<!-- Node2 -->
<g id="node2" class="node">
<title>Node2</title>
<g id="a_node2"><a xlink:title=" ">
<polygon fill="white" stroke="#666666" points="13.5,-97.5 13.5,-157.5 103,-157.5 103,-97.5 13.5,-97.5"/>
<text text-anchor="middle" x="58.25" y="-144" font-family="Helvetica,sans-Serif" font-size="10.00">PropertyAttribute</text>
<polyline fill="none" stroke="#666666" points="13.5,-137.5 103,-137.5"/>
<text text-anchor="middle" x="58.25" y="-124" font-family="Helvetica,sans-Serif" font-size="10.00"> </text>
<polyline fill="none" stroke="#666666" points="13.5,-117.5 103,-117.5"/>
<text text-anchor="middle" x="58.25" y="-104" font-family="Helvetica,sans-Serif" font-size="10.00"> </text>
</a>
</g>
</g>
<!-- Node2&#45;&gt;Node1 -->
<g id="edge1" class="edge">
<title>Node2&#45;&gt;Node1</title>
<path fill="none" stroke="#63b8ff" d="M58.25,-86.84C58.25,-78.01 58.25,-68.8 58.25,-60.49"/>
<polygon fill="none" stroke="#63b8ff" points="54.75,-86.74 58.25,-96.74 61.75,-86.74 54.75,-86.74"/>
</g>
</g>
</svg>
