<?xml version="1.0" encoding="UTF-8" standalone="no"?>
<!DOCTYPE svg PUBLIC "-//W3C//DTD SVG 1.1//EN"
 "http://www.w3.org/Graphics/SVG/1.1/DTD/svg11.dtd">
<!-- Generated by graphviz version 8.0.5 (20230430.1635)
 -->
<!-- Title: Tile3DLayers Pages: 1 -->
<svg width="147pt" height="202pt"
 viewBox="0.00 0.00 147.00 202.00" xmlns="http://www.w3.org/2000/svg" xmlns:xlink="http://www.w3.org/1999/xlink">
<g id="graph0" class="graph" transform="scale(1 1) rotate(0) translate(4 198)">
<title>Tile3DLayers</title>
<!-- Node1 -->
<g id="node1" class="node">
<title>Node1</title>
<g id="a_node1"><a xlink:title="A collection of Tile3DLayer instances.">
<polygon fill="#999999" stroke="#666666" points="21,-0.5 21,-96.5 118,-96.5 118,-0.5 21,-0.5"/>
<text text-anchor="middle" x="69.5" y="-83" font-family="Helvetica,sans-Serif" font-size="10.00">Tile3DLayers</text>
<polyline fill="none" stroke="#666666" points="21,-76.5 118,-76.5"/>
<text text-anchor="start" x="29" y="-63" font-family="Helvetica,sans-Serif" font-size="10.00">+ Capacity</text>
<text text-anchor="start" x="29" y="-51" font-family="Helvetica,sans-Serif" font-size="10.00">+ Count</text>
<text text-anchor="start" x="29" y="-39" font-family="Helvetica,sans-Serif" font-size="10.00">+ this[int index]</text>
<polyline fill="none" stroke="#666666" points="21,-32.5 118,-32.5"/>
<text text-anchor="start" x="29" y="-19" font-family="Helvetica,sans-Serif" font-size="10.00">+ Add()</text>
<text text-anchor="start" x="29" y="-7" font-family="Helvetica,sans-Serif" font-size="10.00">+ GetEnumerator()</text>
</a>
</g>
</g>
<!-- Node2 -->
<g id="node2" class="node">
<title>Node2</title>
<g id="a_node2"><a xlink:title=" ">
<polygon fill="white" stroke="#666666" points="0,-133.5 0,-193.5 139,-193.5 139,-133.5 0,-133.5"/>
<text text-anchor="middle" x="69.5" y="-180" font-family="Helvetica,sans-Serif" font-size="10.00">IEnumerable&lt; Tile3DLayer &gt;</text>
<polyline fill="none" stroke="#666666" points="0,-173.5 139,-173.5"/>
<text text-anchor="middle" x="69.5" y="-160" font-family="Helvetica,sans-Serif" font-size="10.00"> </text>
<polyline fill="none" stroke="#666666" points="0,-153.5 139,-153.5"/>
<text text-anchor="middle" x="69.5" y="-140" font-family="Helvetica,sans-Serif" font-size="10.00"> </text>
</a>
</g>
</g>
<!-- Node2&#45;&gt;Node1 -->
<g id="edge1" class="edge">
<title>Node2&#45;&gt;Node1</title>
<path fill="none" stroke="#63b8ff" d="M69.5,-122.81C69.5,-114.23 69.5,-105.08 69.5,-96.26"/>
<polygon fill="none" stroke="#63b8ff" points="66,-122.69 69.5,-132.69 73,-122.69 66,-122.69"/>
</g>
</g>
</svg>
