<?xml version="1.0" encoding="UTF-8" standalone="no"?>
<!DOCTYPE svg PUBLIC "-//W3C//DTD SVG 1.1//EN"
 "http://www.w3.org/Graphics/SVG/1.1/DTD/svg11.dtd">
<!-- Generated by graphviz version 8.0.5 (20230430.1635)
 -->
<!-- Title: Grid3DTileSetBehaviour Pages: 1 -->
<svg width="126pt" height="202pt"
 viewBox="0.00 0.00 126.00 202.00" xmlns="http://www.w3.org/2000/svg" xmlns:xlink="http://www.w3.org/1999/xlink">
<g id="graph0" class="graph" transform="scale(1 1) rotate(0) translate(4 198)">
<title>Grid3DTileSetBehaviour</title>
<!-- Node1 -->
<g id="node1" class="node">
<title>Node1</title>
<g id="a_node1"><a xlink:title=" ">
<polygon fill="#999999" stroke="#666666" points="0,-0.5 0,-96.5 118,-96.5 118,-0.5 0,-0.5"/>
<text text-anchor="middle" x="59" y="-83" font-family="Helvetica,sans-Serif" font-size="10.00">Grid3DTileSetBehaviour</text>
<polyline fill="none" stroke="#666666" points="0,-76.5 118,-76.5"/>
<text text-anchor="middle" x="59" y="-63" font-family="Helvetica,sans-Serif" font-size="10.00"> </text>
<polyline fill="none" stroke="#666666" points="0,-56.5 118,-56.5"/>
<text text-anchor="start" x="8" y="-43" font-family="Helvetica,sans-Serif" font-size="10.00">+ Add()</text>
<text text-anchor="start" x="8" y="-31" font-family="Helvetica,sans-Serif" font-size="10.00">+ Add()</text>
<text text-anchor="start" x="8" y="-19" font-family="Helvetica,sans-Serif" font-size="10.00">+ Contains()</text>
<text text-anchor="start" x="8" y="-7" font-family="Helvetica,sans-Serif" font-size="10.00">+ Remove()</text>
</a>
</g>
</g>
<!-- Node2 -->
<g id="node2" class="node">
<title>Node2</title>
<g id="a_node2"><a xlink:title=" ">
<polygon fill="white" stroke="#666666" points="18,-133.5 18,-193.5 100,-193.5 100,-133.5 18,-133.5"/>
<text text-anchor="middle" x="59" y="-180" font-family="Helvetica,sans-Serif" font-size="10.00">MonoBehaviour</text>
<polyline fill="none" stroke="#666666" points="18,-173.5 100,-173.5"/>
<text text-anchor="middle" x="59" y="-160" font-family="Helvetica,sans-Serif" font-size="10.00"> </text>
<polyline fill="none" stroke="#666666" points="18,-153.5 100,-153.5"/>
<text text-anchor="middle" x="59" y="-140" font-family="Helvetica,sans-Serif" font-size="10.00"> </text>
</a>
</g>
</g>
<!-- Node2&#45;&gt;Node1 -->
<g id="edge1" class="edge">
<title>Node2&#45;&gt;Node1</title>
<path fill="none" stroke="#63b8ff" d="M59,-122.81C59,-114.23 59,-105.08 59,-96.26"/>
<polygon fill="none" stroke="#63b8ff" points="55.5,-122.69 59,-132.69 62.5,-122.69 55.5,-122.69"/>
</g>
</g>
</svg>
