<?xml version="1.0" encoding="UTF-8" standalone="no"?>
<!DOCTYPE svg PUBLIC "-//W3C//DTD SVG 1.1//EN"
 "http://www.w3.org/Graphics/SVG/1.1/DTD/svg11.dtd">
<!-- Generated by graphviz version 8.0.5 (20230430.1635)
 -->
<!-- Title: WaitFramesCoroutine Pages: 1 -->
<svg width="134pt" height="190pt"
 viewBox="0.00 0.00 133.50 190.00" xmlns="http://www.w3.org/2000/svg" xmlns:xlink="http://www.w3.org/1999/xlink">
<g id="graph0" class="graph" transform="scale(1 1) rotate(0) translate(4 186)">
<title>WaitFramesCoroutine</title>
<!-- Node1 -->
<g id="node1" class="node">
<title>Node1</title>
<g id="a_node1"><a xlink:title="Invokes callback Action once after the specified number of frames have elapsed.">
<polygon fill="#999999" stroke="#666666" points="0,-0.5 0,-84.5 125.5,-84.5 125.5,-0.5 0,-0.5"/>
<text text-anchor="middle" x="62.75" y="-71" font-family="Helvetica,sans-Serif" font-size="10.00">WaitFramesCoroutine</text>
<polyline fill="none" stroke="#666666" points="0,-64.5 125.5,-64.5"/>
<text text-anchor="start" x="8" y="-51" font-family="Helvetica,sans-Serif" font-size="10.00">+ Current</text>
<polyline fill="none" stroke="#666666" points="0,-44.5 125.5,-44.5"/>
<text text-anchor="start" x="8" y="-31" font-family="Helvetica,sans-Serif" font-size="10.00">+ WaitFramesCoroutine()</text>
<text text-anchor="start" x="8" y="-19" font-family="Helvetica,sans-Serif" font-size="10.00">+ MoveNext()</text>
<text text-anchor="start" x="8" y="-7" font-family="Helvetica,sans-Serif" font-size="10.00">+ Reset()</text>
</a>
</g>
</g>
<!-- Node2 -->
<g id="node2" class="node">
<title>Node2</title>
<g id="a_node2"><a xlink:title=" ">
<polygon fill="white" stroke="#666666" points="28.5,-121.5 28.5,-181.5 97,-181.5 97,-121.5 28.5,-121.5"/>
<text text-anchor="middle" x="62.75" y="-168" font-family="Helvetica,sans-Serif" font-size="10.00">IEnumerator</text>
<polyline fill="none" stroke="#666666" points="28.5,-161.5 97,-161.5"/>
<text text-anchor="middle" x="62.75" y="-148" font-family="Helvetica,sans-Serif" font-size="10.00"> </text>
<polyline fill="none" stroke="#666666" points="28.5,-141.5 97,-141.5"/>
<text text-anchor="middle" x="62.75" y="-128" font-family="Helvetica,sans-Serif" font-size="10.00"> </text>
</a>
</g>
</g>
<!-- Node2&#45;&gt;Node1 -->
<g id="edge1" class="edge">
<title>Node2&#45;&gt;Node1</title>
<path fill="none" stroke="#63b8ff" d="M62.75,-110.57C62.75,-101.93 62.75,-92.79 62.75,-84.13"/>
<polygon fill="none" stroke="#63b8ff" points="59.25,-110.54 62.75,-120.54 66.25,-110.54 59.25,-110.54"/>
</g>
</g>
</svg>
