<?xml version="1.0" encoding="UTF-8" standalone="no"?>
<!DOCTYPE svg PUBLIC "-//W3C//DTD SVG 1.1//EN"
 "http://www.w3.org/Graphics/SVG/1.1/DTD/svg11.dtd">
<!-- Generated by graphviz version 8.0.5 (20230430.1635)
 -->
<!-- Title: ReadOnlyFieldDrawer Pages: 1 -->
<svg width="119pt" height="178pt"
 viewBox="0.00 0.00 119.25 178.00" xmlns="http://www.w3.org/2000/svg" xmlns:xlink="http://www.w3.org/1999/xlink">
<g id="graph0" class="graph" transform="scale(1 1) rotate(0) translate(4 174)">
<title>ReadOnlyFieldDrawer</title>
<!-- Node1 -->
<g id="node1" class="node">
<title>Node1</title>
<g id="a_node1"><a xlink:title="Displays a field with ReadOnlyFieldAttribute as readonly in Inspector.">
<polygon fill="#999999" stroke="#666666" points="0,-0.5 0,-72.5 111.25,-72.5 111.25,-0.5 0,-0.5"/>
<text text-anchor="middle" x="55.62" y="-59" font-family="Helvetica,sans-Serif" font-size="10.00">ReadOnlyFieldDrawer</text>
<polyline fill="none" stroke="#666666" points="0,-52.5 111.25,-52.5"/>
<text text-anchor="middle" x="55.62" y="-39" font-family="Helvetica,sans-Serif" font-size="10.00"> </text>
<polyline fill="none" stroke="#666666" points="0,-32.5 111.25,-32.5"/>
<text text-anchor="start" x="8" y="-19" font-family="Helvetica,sans-Serif" font-size="10.00">+ GetPropertyHeight()</text>
<text text-anchor="start" x="8" y="-7" font-family="Helvetica,sans-Serif" font-size="10.00">+ OnGUI()</text>
</a>
</g>
</g>
<!-- Node2 -->
<g id="node2" class="node">
<title>Node2</title>
<g id="a_node2"><a xlink:title=" ">
<polygon fill="white" stroke="#666666" points="14.25,-109.5 14.25,-169.5 97,-169.5 97,-109.5 14.25,-109.5"/>
<text text-anchor="middle" x="55.62" y="-156" font-family="Helvetica,sans-Serif" font-size="10.00">PropertyDrawer</text>
<polyline fill="none" stroke="#666666" points="14.25,-149.5 97,-149.5"/>
<text text-anchor="middle" x="55.62" y="-136" font-family="Helvetica,sans-Serif" font-size="10.00"> </text>
<polyline fill="none" stroke="#666666" points="14.25,-129.5 97,-129.5"/>
<text text-anchor="middle" x="55.62" y="-116" font-family="Helvetica,sans-Serif" font-size="10.00"> </text>
</a>
</g>
</g>
<!-- Node2&#45;&gt;Node1 -->
<g id="edge1" class="edge">
<title>Node2&#45;&gt;Node1</title>
<path fill="none" stroke="#63b8ff" d="M55.62,-98.76C55.62,-89.98 55.62,-80.74 55.62,-72.17"/>
<polygon fill="none" stroke="#63b8ff" points="52.13,-98.56 55.62,-108.56 59.13,-98.56 52.13,-98.56"/>
</g>
</g>
</svg>
