<?xml version="1.0" encoding="UTF-8" standalone="no"?>
<!DOCTYPE svg PUBLIC "-//W3C//DTD SVG 1.1//EN"
 "http://www.w3.org/Graphics/SVG/1.1/DTD/svg11.dtd">
<!-- Generated by graphviz version 8.0.5 (20230430.1635)
 -->
<!-- Title: Graphical Class Hierarchy Pages: 1 -->
<svg width="501pt" height="142pt"
 viewBox="0.00 0.00 501.00 142.00" xmlns="http://www.w3.org/2000/svg" xmlns:xlink="http://www.w3.org/1999/xlink">
<g id="graph0" class="graph" transform="scale(1 1) rotate(0) translate(4 138)">
<title>Graphical Class Hierarchy</title>
<!-- Node0 -->
<g id="node1" class="node">
<title>Node0</title>
<g id="a_node1"><a xlink:title=" ">
<polygon fill="#e0e0e0" stroke="#999999" points="88,-77 0,-77 0,-57 88,-57 88,-77"/>
<text text-anchor="middle" x="44" y="-63.5" font-family="Helvetica,sans-Serif" font-size="10.00">ScriptableObject</text>
</a>
</g>
</g>
<!-- Node1 -->
<g id="node2" class="node">
<title>Node1</title>
<g id="a_node2"><a xlink:href="class_code_smile_1_1_pro_tiler_1_1_assets_1_1_tile3_d_asset_base.html" target="_top" xlink:title=" ">
<polygon fill="white" stroke="#666666" points="239.75,-134 148.75,-134 148.75,-114 239.75,-114 239.75,-134"/>
<text text-anchor="middle" x="194.25" y="-120.5" font-family="Helvetica,sans-Serif" font-size="10.00">Tile3DAssetBase</text>
</a>
</g>
</g>
<!-- Node0&#45;&gt;Node1 -->
<g id="edge1" class="edge">
<title>Node0&#45;&gt;Node1</title>
<path fill="none" stroke="#63b8ff" d="M73.62,-82.31C88.39,-89.81 106.86,-98.59 124,-105 132.41,-108.15 141.56,-111.02 150.38,-113.54"/>
<polygon fill="#63b8ff" stroke="#63b8ff" points="75.54,-78.85 65.05,-77.37 72.33,-85.07 75.54,-78.85"/>
</g>
<!-- Node4 -->
<g id="node5" class="node">
<title>Node4</title>
<g id="a_node5"><a xlink:href="class_code_smile_1_1_pro_tiler_1_1_assets_1_1_tile3_d_asset_register.html" target="_top" xlink:title=" ">
<polygon fill="white" stroke="#666666" points="246.5,-96 142,-96 142,-76 246.5,-76 246.5,-96"/>
<text text-anchor="middle" x="194.25" y="-82.5" font-family="Helvetica,sans-Serif" font-size="10.00">Tile3DAssetRegister</text>
</a>
</g>
</g>
<!-- Node0&#45;&gt;Node4 -->
<g id="edge4" class="edge">
<title>Node0&#45;&gt;Node4</title>
<path fill="none" stroke="#63b8ff" d="M99.12,-73.94C112.96,-75.71 127.81,-77.61 141.53,-79.37"/>
<polygon fill="#63b8ff" stroke="#63b8ff" points="99.64,-70.35 89.28,-72.55 98.75,-77.29 99.64,-70.35"/>
</g>
<!-- Node5 -->
<g id="node6" class="node">
<title>Node5</title>
<g id="a_node6"><a xlink:href="class_code_smile_1_1_pro_tiler_1_1_assets_1_1_tile3_d_palette.html" target="_top" xlink:title=" ">
<polygon fill="white" stroke="#666666" points="231.12,-58 157.38,-58 157.38,-38 231.12,-38 231.12,-58"/>
<text text-anchor="middle" x="194.25" y="-44.5" font-family="Helvetica,sans-Serif" font-size="10.00">Tile3DPalette</text>
</a>
</g>
</g>
<!-- Node0&#45;&gt;Node5 -->
<g id="edge5" class="edge">
<title>Node0&#45;&gt;Node5</title>
<path fill="none" stroke="#63b8ff" d="M99.09,-60.07C118.42,-57.59 139.73,-54.86 157.17,-52.62"/>
<polygon fill="#63b8ff" stroke="#63b8ff" points="98.75,-56.71 89.28,-61.45 99.64,-63.65 98.75,-56.71"/>
</g>
<!-- Node6 -->
<g id="node7" class="node">
<title>Node6</title>
<g id="a_node7"><a xlink:href="class_code_smile_1_1_pro_tiler_1_1_editor_1_1_creation_1_1_tile3_d_asset_register_creation.html" target="_top" xlink:title=" ">
<polygon fill="white" stroke="#666666" points="264.5,-20 124,-20 124,0 264.5,0 264.5,-20"/>
<text text-anchor="middle" x="194.25" y="-6.5" font-family="Helvetica,sans-Serif" font-size="10.00">Tile3DAssetRegisterCreation</text>
</a>
</g>
</g>
<!-- Node0&#45;&gt;Node6 -->
<g id="edge6" class="edge">
<title>Node0&#45;&gt;Node6</title>
<path fill="none" stroke="#63b8ff" d="M73.62,-51.69C88.39,-44.19 106.86,-35.41 124,-29 132.41,-25.85 141.56,-22.98 150.38,-20.46"/>
<polygon fill="#63b8ff" stroke="#63b8ff" points="72.33,-48.93 65.05,-56.63 75.54,-55.15 72.33,-48.93"/>
</g>
<!-- Node2 -->
<g id="node3" class="node">
<title>Node2</title>
<g id="a_node3"><a xlink:href="class_code_smile_1_1_pro_tiler_1_1_assets_1_1_tile3_d_asset.html" target="_top" xlink:title=" ">
<polygon fill="white" stroke="#666666" points="369,-134 300.5,-134 300.5,-114 369,-114 369,-134"/>
<text text-anchor="middle" x="334.75" y="-120.5" font-family="Helvetica,sans-Serif" font-size="10.00">Tile3DAsset</text>
</a>
</g>
</g>
<!-- Node1&#45;&gt;Node2 -->
<g id="edge2" class="edge">
<title>Node1&#45;&gt;Node2</title>
<path fill="none" stroke="#63b8ff" d="M251.02,-124C267.77,-124 285.61,-124 300.42,-124"/>
<polygon fill="#63b8ff" stroke="#63b8ff" points="251.22,-120.5 241.22,-124 251.22,-127.5 251.22,-120.5"/>
</g>
<!-- Node3 -->
<g id="node4" class="node">
<title>Node3</title>
<g id="a_node4"><a xlink:href="class_code_smile_1_1_pro_tiler_1_1_assets_1_1_rule_tile3_d_asset.html" target="_top" xlink:title=" ">
<polygon fill="white" stroke="#666666" points="493,-134 405,-134 405,-114 493,-114 493,-134"/>
<text text-anchor="middle" x="449" y="-120.5" font-family="Helvetica,sans-Serif" font-size="10.00">RuleTile3DAsset</text>
</a>
</g>
</g>
<!-- Node2&#45;&gt;Node3 -->
<g id="edge3" class="edge">
<title>Node2&#45;&gt;Node3</title>
<path fill="none" stroke="#63b8ff" d="M380.19,-124C388.28,-124 396.71,-124 404.77,-124"/>
<polygon fill="#63b8ff" stroke="#63b8ff" points="380.43,-120.5 370.43,-124 380.43,-127.5 380.43,-120.5"/>
</g>
</g>
</svg>
