<?xml version="1.0" encoding="UTF-8" standalone="no"?>
<!DOCTYPE svg PUBLIC "-//W3C//DTD SVG 1.1//EN"
 "http://www.w3.org/Graphics/SVG/1.1/DTD/svg11.dtd">
<!-- Generated by graphviz version 8.0.5 (20230430.1635)
 -->
<!-- Title: Graphical Class Hierarchy Pages: 1 -->
<svg width="267pt" height="66pt"
 viewBox="0.00 0.00 266.50 66.00" xmlns="http://www.w3.org/2000/svg" xmlns:xlink="http://www.w3.org/1999/xlink">
<g id="graph0" class="graph" transform="scale(1 1) rotate(0) translate(4 62)">
<title>Graphical Class Hierarchy</title>
<!-- Node0 -->
<g id="node1" class="node">
<title>Node0</title>
<g id="a_node1"><a xlink:title=" ">
<polygon fill="#e0e0e0" stroke="#999999" points="68.5,-39 0,-39 0,-19 68.5,-19 68.5,-39"/>
<text text-anchor="middle" x="34.25" y="-25.5" font-family="Helvetica,sans-Serif" font-size="10.00">IEnumerator</text>
</a>
</g>
</g>
<!-- Node1 -->
<g id="node2" class="node">
<title>Node1</title>
<g id="a_node2"><a xlink:href="struct_code_smile_1_1_collections_1_1_native_array2_d_1_1_enumerator.html" target="_top" xlink:title="An enumerator for this type of array. It enumerates from (0,0) to (Length0&#45;1,Length1&#45;1) in rows of th...">
<polygon fill="white" stroke="#666666" points="258.5,-58 104.5,-58 104.5,-38 258.5,-38 258.5,-58"/>
<text text-anchor="middle" x="181.5" y="-44.5" font-family="Helvetica,sans-Serif" font-size="10.00">NativeArray2D&lt; T &gt;.Enumerator</text>
</a>
</g>
</g>
<!-- Node0&#45;&gt;Node1 -->
<g id="edge1" class="edge">
<title>Node0&#45;&gt;Node1</title>
<path fill="none" stroke="#63b8ff" d="M79.61,-34.8C87.43,-35.83 95.77,-36.92 104.18,-38.02"/>
<polygon fill="#63b8ff" stroke="#63b8ff" points="80.31,-31.23 69.94,-33.41 79.4,-38.17 80.31,-31.23"/>
</g>
<!-- Node2 -->
<g id="node3" class="node">
<title>Node2</title>
<g id="a_node3"><a xlink:href="class_code_smile_1_1_components_1_1_wait_frames_coroutine.html" target="_top" xlink:title="Invokes callback Action once after the specified number of frames have elapsed.">
<polygon fill="white" stroke="#666666" points="236.75,-20 126.25,-20 126.25,0 236.75,0 236.75,-20"/>
<text text-anchor="middle" x="181.5" y="-6.5" font-family="Helvetica,sans-Serif" font-size="10.00">WaitFramesCoroutine</text>
</a>
</g>
</g>
<!-- Node0&#45;&gt;Node2 -->
<g id="edge2" class="edge">
<title>Node0&#45;&gt;Node2</title>
<path fill="none" stroke="#63b8ff" d="M79.7,-23.19C94.3,-21.28 110.69,-19.13 125.95,-17.14"/>
<polygon fill="#63b8ff" stroke="#63b8ff" points="79.4,-19.83 69.94,-24.59 80.31,-26.77 79.4,-19.83"/>
</g>
</g>
</svg>
