<?xml version="1.0" encoding="UTF-8" standalone="no"?>
<!DOCTYPE svg PUBLIC "-//W3C//DTD SVG 1.1//EN"
 "http://www.w3.org/Graphics/SVG/1.1/DTD/svg11.dtd">
<!-- Generated by graphviz version 8.0.5 (20230430.1635)
 -->
<!-- Title: Graphical Class Hierarchy Pages: 1 -->
<svg width="369pt" height="408pt"
 viewBox="0.00 0.00 368.50 408.00" xmlns="http://www.w3.org/2000/svg" xmlns:xlink="http://www.w3.org/1999/xlink">
<g id="graph0" class="graph" transform="scale(1 1) rotate(0) translate(4 404)">
<title>Graphical Class Hierarchy</title>
<!-- Node0 -->
<g id="node1" class="node">
<title>Node0</title>
<g id="a_node1"><a xlink:title=" ">
<polygon fill="#e0e0e0" stroke="#999999" points="102.62,-362 43.12,-362 43.12,-342 102.62,-342 102.62,-362"/>
<text text-anchor="middle" x="72.88" y="-348.5" font-family="Helvetica,sans-Serif" font-size="10.00">Dictionary</text>
</a>
</g>
</g>
<!-- Node1 -->
<g id="node2" class="node">
<title>Node1</title>
<g id="a_node2"><a xlink:href="class_code_smile_1_1_collections_1_1_serialized_dictionary.html" target="_top" xlink:title=" ">
<polygon fill="white" stroke="#666666" points="360.5,-324 181.75,-324 181.75,-304 360.5,-304 360.5,-324"/>
<text text-anchor="middle" x="271.12" y="-310.5" font-family="Helvetica,sans-Serif" font-size="10.00">SerializedDictionary&lt; TKey, TValue &gt;</text>
</a>
</g>
</g>
<!-- Node0&#45;&gt;Node1 -->
<g id="edge1" class="edge">
<title>Node0&#45;&gt;Node1</title>
<path fill="none" stroke="#63b8ff" d="M113.57,-344.31C143.1,-338.6 183.73,-330.73 216.2,-324.44"/>
<polygon fill="#63b8ff" stroke="#63b8ff" points="112.98,-341.06 103.83,-346.39 114.32,-347.93 112.98,-341.06"/>
</g>
<!-- Node12 -->
<g id="node3" class="node">
<title>Node12</title>
<g id="a_node3"><a xlink:href="class_code_smile_1_1_pro_tiler_1_1_data_1_1_chunk_coords.html" target="_top" xlink:title=" ">
<polygon fill="white" stroke="#666666" points="308.38,-400 233.88,-400 233.88,-380 308.38,-380 308.38,-400"/>
<text text-anchor="middle" x="271.12" y="-386.5" font-family="Helvetica,sans-Serif" font-size="10.00">ChunkCoords</text>
</a>
</g>
</g>
<!-- Node0&#45;&gt;Node12 -->
<g id="edge2" class="edge">
<title>Node0&#45;&gt;Node12</title>
<path fill="none" stroke="#63b8ff" d="M113.19,-359.61C148.35,-366.42 199.45,-376.32 233.69,-382.95"/>
<polygon fill="#63b8ff" stroke="#63b8ff" points="114.32,-356.07 103.83,-357.61 112.98,-362.94 114.32,-356.07"/>
</g>
<!-- Node13 -->
<g id="node4" class="node">
<title>Node13</title>
<g id="a_node4"><a xlink:href="class_code_smile_1_1_pro_tiler_1_1_data_1_1_chunk_tile_coords.html" target="_top" xlink:title="Container for Tile3DCoord collections that are automatically divided into chunks.">
<polygon fill="white" stroke="#666666" points="315.88,-362 226.38,-362 226.38,-342 315.88,-342 315.88,-362"/>
<text text-anchor="middle" x="271.12" y="-348.5" font-family="Helvetica,sans-Serif" font-size="10.00">ChunkTileCoords</text>
</a>
</g>
</g>
<!-- Node0&#45;&gt;Node13 -->
<g id="edge3" class="edge">
<title>Node0&#45;&gt;Node13</title>
<path fill="none" stroke="#63b8ff" d="M113.77,-352C146.39,-352 192.46,-352 226.15,-352"/>
<polygon fill="#63b8ff" stroke="#63b8ff" points="113.83,-348.5 103.83,-352 113.83,-355.5 113.83,-348.5"/>
</g>
<!-- Node2 -->
<g id="node5" class="node">
<title>Node2</title>
<g id="a_node5"><a xlink:title=" ">
<polygon fill="#e0e0e0" stroke="#999999" points="145.75,-305 0,-305 0,-285 145.75,-285 145.75,-305"/>
<text text-anchor="middle" x="72.88" y="-291.5" font-family="Helvetica,sans-Serif" font-size="10.00">ISerializationCallbackReceiver</text>
</a>
</g>
</g>
<!-- Node2&#45;&gt;Node1 -->
<g id="edge4" class="edge">
<title>Node2&#45;&gt;Node1</title>
<path fill="none" stroke="#63b8ff" d="M157,-303.05C165.06,-303.83 173.26,-304.62 181.38,-305.41"/>
<polygon fill="#63b8ff" stroke="#63b8ff" points="157.41,-299.47 147.12,-301.99 156.73,-306.44 157.41,-299.47"/>
</g>
<!-- Node3 -->
<g id="node6" class="node">
<title>Node3</title>
<g id="a_node6"><a xlink:href="class_code_smile_1_1_pro_tiler_1_1_behaviours_1_1_tilemap3_d_behaviour.html" target="_top" xlink:title=" ">
<polygon fill="white" stroke="#666666" points="323,-286 219.25,-286 219.25,-266 323,-266 323,-286"/>
<text text-anchor="middle" x="271.12" y="-272.5" font-family="Helvetica,sans-Serif" font-size="10.00">Tilemap3DBehaviour</text>
</a>
</g>
</g>
<!-- Node2&#45;&gt;Node3 -->
<g id="edge5" class="edge">
<title>Node2&#45;&gt;Node3</title>
<path fill="none" stroke="#63b8ff" d="M157,-286.95C178.02,-284.92 199.97,-282.79 218.89,-280.96"/>
<polygon fill="#63b8ff" stroke="#63b8ff" points="156.73,-283.56 147.12,-288.01 157.41,-290.53 156.73,-283.56"/>
</g>
<!-- Node4 -->
<g id="node7" class="node">
<title>Node4</title>
<g id="a_node7"><a xlink:title=" ">
<polygon fill="#e0e0e0" stroke="#999999" points="113.88,-153 31.88,-153 31.88,-133 113.88,-133 113.88,-153"/>
<text text-anchor="middle" x="72.88" y="-139.5" font-family="Helvetica,sans-Serif" font-size="10.00">MonoBehaviour</text>
</a>
</g>
</g>
<!-- Node4&#45;&gt;Node3 -->
<g id="edge11" class="edge">
<title>Node4&#45;&gt;Node3</title>
<path fill="none" stroke="#63b8ff" d="M86.51,-162.35C104.46,-188.19 139.84,-233.43 181.75,-257 193.1,-263.39 206.38,-267.63 219.15,-270.45"/>
<polygon fill="#63b8ff" stroke="#63b8ff" points="89.01,-160.8 80.51,-154.48 83.21,-164.73 89.01,-160.8"/>
</g>
<!-- Node5 -->
<g id="node8" class="node">
<title>Node5</title>
<g id="a_node8"><a xlink:href="class_code_smile_1_1_components_1_1_drop_to_ground.html" target="_top" xlink:title=" ">
<polygon fill="white" stroke="#666666" points="310.25,-248 232,-248 232,-228 310.25,-228 310.25,-248"/>
<text text-anchor="middle" x="271.12" y="-234.5" font-family="Helvetica,sans-Serif" font-size="10.00">DropToGround</text>
</a>
</g>
</g>
<!-- Node4&#45;&gt;Node5 -->
<g id="edge6" class="edge">
<title>Node4&#45;&gt;Node5</title>
<path fill="none" stroke="#63b8ff" d="M93.4,-160.47C113.94,-177.91 147.93,-204.19 181.75,-219 197.42,-225.86 215.77,-230.32 231.67,-233.19"/>
<polygon fill="#63b8ff" stroke="#63b8ff" points="96.06,-157.27 86.21,-153.37 91.47,-162.56 96.06,-157.27"/>
</g>
<!-- Node6 -->
<g id="node9" class="node">
<title>Node6</title>
<g id="a_node9"><a xlink:href="class_code_smile_1_1_components_1_1_press_escape_to_quit.html" target="_top" xlink:title=" ">
<polygon fill="white" stroke="#666666" points="322.62,-210 219.62,-210 219.62,-190 322.62,-190 322.62,-210"/>
<text text-anchor="middle" x="271.12" y="-196.5" font-family="Helvetica,sans-Serif" font-size="10.00">PressEscapeToQuit</text>
</a>
</g>
</g>
<!-- Node4&#45;&gt;Node6 -->
<g id="edge7" class="edge">
<title>Node4&#45;&gt;Node6</title>
<path fill="none" stroke="#63b8ff" d="M110.86,-157.34C131.51,-165.01 157.83,-174.24 181.75,-181 193.83,-184.41 206.99,-187.55 219.38,-190.24"/>
<polygon fill="#63b8ff" stroke="#63b8ff" points="112.21,-153.73 101.61,-153.49 109.74,-160.28 112.21,-153.73"/>
</g>
<!-- Node7 -->
<g id="node10" class="node">
<title>Node7</title>
<g id="a_node10"><a xlink:href="class_code_smile_1_1_pro_tiler_1_1_behaviours_1_1_grid3_d_behaviour.html" target="_top" xlink:title=" ">
<polygon fill="white" stroke="#666666" points="315.12,-172 227.12,-172 227.12,-152 315.12,-152 315.12,-172"/>
<text text-anchor="middle" x="271.12" y="-158.5" font-family="Helvetica,sans-Serif" font-size="10.00">Grid3DBehaviour</text>
</a>
</g>
</g>
<!-- Node4&#45;&gt;Node7 -->
<g id="edge8" class="edge">
<title>Node4&#45;&gt;Node7</title>
<path fill="none" stroke="#63b8ff" d="M124.88,-147.94C156.56,-151 196.83,-154.9 226.93,-157.82"/>
<polygon fill="#63b8ff" stroke="#63b8ff" points="125.35,-144.37 115.06,-146.89 124.68,-151.34 125.35,-144.37"/>
</g>
<!-- Node8 -->
<g id="node11" class="node">
<title>Node8</title>
<g id="a_node11"><a xlink:href="class_code_smile_1_1_pro_tiler_1_1_behaviours_1_1_tile3_d_renderer_behaviour.html" target="_top" xlink:title=" ">
<polygon fill="white" stroke="#666666" points="333.12,-134 209.12,-134 209.12,-114 333.12,-114 333.12,-134"/>
<text text-anchor="middle" x="271.12" y="-120.5" font-family="Helvetica,sans-Serif" font-size="10.00">Tile3DRendererBehaviour</text>
</a>
</g>
</g>
<!-- Node4&#45;&gt;Node8 -->
<g id="edge9" class="edge">
<title>Node4&#45;&gt;Node8</title>
<path fill="none" stroke="#63b8ff" d="M124.69,-138.08C150.36,-135.6 181.71,-132.56 208.72,-129.94"/>
<polygon fill="#63b8ff" stroke="#63b8ff" points="124.68,-134.66 115.06,-139.11 125.35,-141.63 124.68,-134.66"/>
</g>
<!-- Node9 -->
<g id="node12" class="node">
<title>Node9</title>
<g id="a_node12"><a xlink:href="class_code_smile_1_1_pro_tiler_1_1_behaviours_1_1_tile3_d_set_behaviour.html" target="_top" xlink:title=" ">
<polygon fill="white" stroke="#666666" points="321.12,-96 221.12,-96 221.12,-76 321.12,-76 321.12,-96"/>
<text text-anchor="middle" x="271.12" y="-82.5" font-family="Helvetica,sans-Serif" font-size="10.00">Tile3DSetBehaviour</text>
</a>
</g>
</g>
<!-- Node4&#45;&gt;Node9 -->
<g id="edge10" class="edge">
<title>Node4&#45;&gt;Node9</title>
<path fill="none" stroke="#63b8ff" d="M110.86,-128.66C131.51,-120.99 157.83,-111.76 181.75,-105 194.29,-101.46 207.98,-98.22 220.77,-95.45"/>
<polygon fill="#63b8ff" stroke="#63b8ff" points="109.74,-125.72 101.61,-132.51 112.21,-132.27 109.74,-125.72"/>
</g>
<!-- Node10 -->
<g id="node13" class="node">
<title>Node10</title>
<g id="a_node13"><a xlink:href="class_code_smile_1_1_pro_tiler_1_1_behaviours_1_1_tilemap3_d_debug_behaviour.html" target="_top" xlink:title=" ">
<polygon fill="white" stroke="#666666" points="336.88,-58 205.38,-58 205.38,-38 336.88,-38 336.88,-58"/>
<text text-anchor="middle" x="271.12" y="-44.5" font-family="Helvetica,sans-Serif" font-size="10.00">Tilemap3DDebugBehaviour</text>
</a>
</g>
</g>
<!-- Node4&#45;&gt;Node10 -->
<g id="edge12" class="edge">
<title>Node4&#45;&gt;Node10</title>
<path fill="none" stroke="#63b8ff" d="M93.4,-125.53C113.94,-108.09 147.93,-81.81 181.75,-67 189.51,-63.6 197.93,-60.79 206.39,-58.47"/>
<polygon fill="#63b8ff" stroke="#63b8ff" points="91.47,-123.44 86.21,-132.63 96.06,-128.73 91.47,-123.44"/>
</g>
<!-- Node11 -->
<g id="node14" class="node">
<title>Node11</title>
<g id="a_node14"><a xlink:href="class_code_smile_1_1_pro_tiler_1_1_behaviours_1_1_tilemap3_d_renderer_behaviour.html" target="_top" xlink:title=" ">
<polygon fill="white" stroke="#666666" points="342.5,-20 199.75,-20 199.75,0 342.5,0 342.5,-20"/>
<text text-anchor="middle" x="271.12" y="-6.5" font-family="Helvetica,sans-Serif" font-size="10.00">Tilemap3DRendererBehaviour</text>
</a>
</g>
</g>
<!-- Node4&#45;&gt;Node11 -->
<g id="edge13" class="edge">
<title>Node4&#45;&gt;Node11</title>
<path fill="none" stroke="#63b8ff" d="M86.51,-123.65C104.46,-97.81 139.84,-52.57 181.75,-29 187.91,-25.54 194.63,-22.71 201.53,-20.39"/>
<polygon fill="#63b8ff" stroke="#63b8ff" points="83.21,-121.27 80.51,-131.52 89.01,-125.2 83.21,-121.27"/>
</g>
</g>
</svg>
