<?xml version="1.0" encoding="UTF-8" standalone="no"?>
<!DOCTYPE svg PUBLIC "-//W3C//DTD SVG 1.1//EN"
 "http://www.w3.org/Graphics/SVG/1.1/DTD/svg11.dtd">
<!-- Generated by graphviz version 8.0.5 (20230430.1635)
 -->
<!-- Title: Graphical Class Hierarchy Pages: 1 -->
<svg width="369pt" height="66pt"
 viewBox="0.00 0.00 368.50 66.00" xmlns="http://www.w3.org/2000/svg" xmlns:xlink="http://www.w3.org/1999/xlink">
<g id="graph0" class="graph" transform="scale(1 1) rotate(0) translate(4 62)">
<title>Graphical Class Hierarchy</title>
<!-- Node0 -->
<g id="node1" class="node">
<title>Node0</title>
<g id="a_node1"><a xlink:title=" ">
<polygon fill="#e0e0e0" stroke="#999999" points="102.62,-58 43.12,-58 43.12,-38 102.62,-38 102.62,-58"/>
<text text-anchor="middle" x="72.88" y="-44.5" font-family="Helvetica,sans-Serif" font-size="10.00">Dictionary</text>
</a>
</g>
</g>
<!-- Node1 -->
<g id="node2" class="node">
<title>Node1</title>
<g id="a_node2"><a xlink:href="class_code_smile_1_1_collections_1_1_serialized_dictionary.html" target="_top" xlink:title=" ">
<polygon fill="white" stroke="#666666" points="360.5,-39 181.75,-39 181.75,-19 360.5,-19 360.5,-39"/>
<text text-anchor="middle" x="271.12" y="-25.5" font-family="Helvetica,sans-Serif" font-size="10.00">SerializedDictionary&lt; TKey, TValue &gt;</text>
</a>
</g>
</g>
<!-- Node0&#45;&gt;Node1 -->
<g id="edge1" class="edge">
<title>Node0&#45;&gt;Node1</title>
<path fill="none" stroke="#63b8ff" d="M113.76,-44.14C133.35,-42.24 157.79,-39.88 181.49,-37.58"/>
<polygon fill="#63b8ff" stroke="#63b8ff" points="113.45,-40.75 103.83,-45.2 114.12,-47.72 113.45,-40.75"/>
</g>
<!-- Node2 -->
<g id="node3" class="node">
<title>Node2</title>
<g id="a_node3"><a xlink:title=" ">
<polygon fill="#e0e0e0" stroke="#999999" points="145.75,-20 0,-20 0,0 145.75,0 145.75,-20"/>
<text text-anchor="middle" x="72.88" y="-6.5" font-family="Helvetica,sans-Serif" font-size="10.00">ISerializationCallbackReceiver</text>
</a>
</g>
</g>
<!-- Node2&#45;&gt;Node1 -->
<g id="edge2" class="edge">
<title>Node2&#45;&gt;Node1</title>
<path fill="none" stroke="#63b8ff" d="M157,-18.05C165.06,-18.83 173.26,-19.62 181.38,-20.41"/>
<polygon fill="#63b8ff" stroke="#63b8ff" points="157.41,-14.47 147.12,-16.99 156.73,-21.44 157.41,-14.47"/>
</g>
</g>
</svg>
