<?xml version="1.0" encoding="UTF-8" standalone="no"?>
<!DOCTYPE svg PUBLIC "-//W3C//DTD SVG 1.1//EN"
 "http://www.w3.org/Graphics/SVG/1.1/DTD/svg11.dtd">
<!-- Generated by graphviz version 8.0.5 (20230430.1635)
 -->
<!-- Title: Graphical Class Hierarchy Pages: 1 -->
<svg width="215pt" height="66pt"
 viewBox="0.00 0.00 214.75 66.00" xmlns="http://www.w3.org/2000/svg" xmlns:xlink="http://www.w3.org/1999/xlink">
<g id="graph0" class="graph" transform="scale(1 1) rotate(0) translate(4 62)">
<title>Graphical Class Hierarchy</title>
<!-- Node0 -->
<g id="node1" class="node">
<title>Node0</title>
<g id="a_node1"><a xlink:title=" ">
<polygon fill="#e0e0e0" stroke="#999999" points="52.75,-39 0,-39 0,-19 52.75,-19 52.75,-39"/>
<text text-anchor="middle" x="26.38" y="-25.5" font-family="Helvetica,sans-Serif" font-size="10.00">Attribute</text>
</a>
</g>
</g>
<!-- Node1 -->
<g id="node2" class="node">
<title>Node1</title>
<g id="a_node2"><a xlink:href="class_code_smile_1_1_attributes_1_1_full_covered_attribute.html" target="_top" xlink:title=" ">
<polygon fill="white" stroke="#666666" points="199.25,-58 96.25,-58 96.25,-38 199.25,-38 199.25,-58"/>
<text text-anchor="middle" x="147.75" y="-44.5" font-family="Helvetica,sans-Serif" font-size="10.00">FullCoveredAttribute</text>
</a>
</g>
</g>
<!-- Node0&#45;&gt;Node1 -->
<g id="edge1" class="edge">
<title>Node0&#45;&gt;Node1</title>
<path fill="none" stroke="#63b8ff" d="M63.6,-34.77C73.85,-36.4 85.2,-38.2 96.13,-39.94"/>
<polygon fill="#63b8ff" stroke="#63b8ff" points="64.41,-31.19 53.98,-33.08 63.31,-38.1 64.41,-31.19"/>
</g>
<!-- Node2 -->
<g id="node3" class="node">
<title>Node2</title>
<g id="a_node3"><a xlink:href="class_code_smile_1_1_pro_tiler_1_1_create_property_attribute.html" target="_top" xlink:title=" ">
<polygon fill="white" stroke="#666666" points="206.75,-20 88.75,-20 88.75,0 206.75,0 206.75,-20"/>
<text text-anchor="middle" x="147.75" y="-6.5" font-family="Helvetica,sans-Serif" font-size="10.00">CreatePropertyAttribute</text>
</a>
</g>
</g>
<!-- Node0&#45;&gt;Node2 -->
<g id="edge2" class="edge">
<title>Node0&#45;&gt;Node2</title>
<path fill="none" stroke="#63b8ff" d="M63.83,-23.2C71.59,-21.96 79.97,-20.63 88.31,-19.3"/>
<polygon fill="#63b8ff" stroke="#63b8ff" points="63.31,-19.9 53.98,-24.92 64.41,-26.81 63.31,-19.9"/>
</g>
</g>
</svg>
