<?xml version="1.0" encoding="UTF-8" standalone="no"?>
<!DOCTYPE svg PUBLIC "-//W3C//DTD SVG 1.1//EN"
 "http://www.w3.org/Graphics/SVG/1.1/DTD/svg11.dtd">
<!-- Generated by graphviz version 8.0.5 (20230430.1635)
 -->
<!-- Title: Graphical Class Hierarchy Pages: 1 -->
<svg width="269pt" height="294pt"
 viewBox="0.00 0.00 268.75 294.00" xmlns="http://www.w3.org/2000/svg" xmlns:xlink="http://www.w3.org/1999/xlink">
<g id="graph0" class="graph" transform="scale(1 1) rotate(0) translate(4 290)">
<title>Graphical Class Hierarchy</title>
<!-- Node0 -->
<g id="node1" class="node">
<title>Node0</title>
<g id="a_node1"><a xlink:title=" ">
<polygon fill="#e0e0e0" stroke="#999999" points="82,-153 0,-153 0,-133 82,-133 82,-153"/>
<text text-anchor="middle" x="41" y="-139.5" font-family="Helvetica,sans-Serif" font-size="10.00">MonoBehaviour</text>
</a>
</g>
</g>
<!-- Node1 -->
<g id="node2" class="node">
<title>Node1</title>
<g id="a_node2"><a xlink:href="class_code_smile_1_1_components_1_1_drop_to_ground.html" target="_top" xlink:title=" ">
<polygon fill="white" stroke="#666666" points="228.5,-286 150.25,-286 150.25,-266 228.5,-266 228.5,-286"/>
<text text-anchor="middle" x="189.38" y="-272.5" font-family="Helvetica,sans-Serif" font-size="10.00">DropToGround</text>
</a>
</g>
</g>
<!-- Node0&#45;&gt;Node1 -->
<g id="edge1" class="edge">
<title>Node0&#45;&gt;Node1</title>
<path fill="none" stroke="#63b8ff" d="M50.18,-163.45C61.53,-189.19 84.52,-232.93 118,-257 127.35,-263.72 138.95,-268.07 150.01,-270.87"/>
<polygon fill="#63b8ff" stroke="#63b8ff" points="53.02,-162.18 45.91,-154.33 46.57,-164.9 53.02,-162.18"/>
</g>
<!-- Node2 -->
<g id="node3" class="node">
<title>Node2</title>
<g id="a_node3"><a xlink:href="class_code_smile_1_1_components_1_1_press_escape_to_quit.html" target="_top" xlink:title=" ">
<polygon fill="white" stroke="#666666" points="240.88,-248 137.88,-248 137.88,-228 240.88,-228 240.88,-248"/>
<text text-anchor="middle" x="189.38" y="-234.5" font-family="Helvetica,sans-Serif" font-size="10.00">PressEscapeToQuit</text>
</a>
</g>
</g>
<!-- Node0&#45;&gt;Node2 -->
<g id="edge2" class="edge">
<title>Node0&#45;&gt;Node2</title>
<path fill="none" stroke="#63b8ff" d="M55.79,-161.55C69.65,-178.89 92.56,-204.28 118,-219 124.02,-222.49 130.71,-225.35 137.49,-227.7"/>
<polygon fill="#63b8ff" stroke="#63b8ff" points="58.29,-160.06 49.4,-154.31 52.76,-164.35 58.29,-160.06"/>
</g>
<!-- Node3 -->
<g id="node4" class="node">
<title>Node3</title>
<g id="a_node4"><a xlink:href="class_code_smile_1_1_pro_tiler_1_1_grid_1_1_grid3_d_behaviour.html" target="_top" xlink:title=" ">
<polygon fill="white" stroke="#666666" points="233.38,-210 145.38,-210 145.38,-190 233.38,-190 233.38,-210"/>
<text text-anchor="middle" x="189.38" y="-196.5" font-family="Helvetica,sans-Serif" font-size="10.00">Grid3DBehaviour</text>
</a>
</g>
</g>
<!-- Node0&#45;&gt;Node3 -->
<g id="edge3" class="edge">
<title>Node0&#45;&gt;Node3</title>
<path fill="none" stroke="#63b8ff" d="M69.87,-158.62C83.99,-166.09 101.58,-174.75 118,-181 126.63,-184.29 136.07,-187.24 145.14,-189.79"/>
<polygon fill="#63b8ff" stroke="#63b8ff" points="71.73,-155.11 61.27,-153.44 68.41,-161.27 71.73,-155.11"/>
</g>
<!-- Node4 -->
<g id="node5" class="node">
<title>Node4</title>
<g id="a_node5"><a xlink:href="class_code_smile_1_1_pro_tiler_1_1_grid_1_1_grid3_d_tile_set_behaviour.html" target="_top" xlink:title=" ">
<polygon fill="white" stroke="#666666" points="248.38,-172 130.38,-172 130.38,-152 248.38,-152 248.38,-172"/>
<text text-anchor="middle" x="189.38" y="-158.5" font-family="Helvetica,sans-Serif" font-size="10.00">Grid3DTileSetBehaviour</text>
</a>
</g>
</g>
<!-- Node0&#45;&gt;Node4 -->
<g id="edge4" class="edge">
<title>Node0&#45;&gt;Node4</title>
<path fill="none" stroke="#63b8ff" d="M93.06,-149.63C105,-151.18 117.81,-152.84 130.04,-154.43"/>
<polygon fill="#63b8ff" stroke="#63b8ff" points="93.75,-146.06 83.39,-148.24 92.85,-153 93.75,-146.06"/>
</g>
<!-- Node5 -->
<g id="node6" class="node">
<title>Node5</title>
<g id="a_node6"><a xlink:href="class_code_smile_1_1_pro_tiler_1_1_tile_1_1_tile3_d_renderer_behaviour.html" target="_top" xlink:title=" ">
<polygon fill="white" stroke="#666666" points="251.38,-134 127.38,-134 127.38,-114 251.38,-114 251.38,-134"/>
<text text-anchor="middle" x="189.38" y="-120.5" font-family="Helvetica,sans-Serif" font-size="10.00">Tile3DRendererBehaviour</text>
</a>
</g>
</g>
<!-- Node0&#45;&gt;Node5 -->
<g id="edge5" class="edge">
<title>Node0&#45;&gt;Node5</title>
<path fill="none" stroke="#63b8ff" d="M93.06,-136.37C104.01,-134.95 115.7,-133.43 127,-131.97"/>
<polygon fill="#63b8ff" stroke="#63b8ff" points="92.85,-133 83.39,-137.76 93.75,-139.94 92.85,-133"/>
</g>
<!-- Node6 -->
<g id="node7" class="node">
<title>Node6</title>
<g id="a_node7"><a xlink:href="class_code_smile_1_1_pro_tiler_1_1_tilemap_1_1_tilemap3_d_behaviour.html" target="_top" xlink:title=" ">
<polygon fill="white" stroke="#666666" points="241.25,-96 137.5,-96 137.5,-76 241.25,-76 241.25,-96"/>
<text text-anchor="middle" x="189.38" y="-82.5" font-family="Helvetica,sans-Serif" font-size="10.00">Tilemap3DBehaviour</text>
</a>
</g>
</g>
<!-- Node0&#45;&gt;Node6 -->
<g id="edge6" class="edge">
<title>Node0&#45;&gt;Node6</title>
<path fill="none" stroke="#63b8ff" d="M69.87,-127.38C83.99,-119.91 101.58,-111.25 118,-105 126.4,-101.8 135.55,-98.92 144.39,-96.42"/>
<polygon fill="#63b8ff" stroke="#63b8ff" points="68.41,-124.73 61.27,-132.56 71.73,-130.89 68.41,-124.73"/>
</g>
<!-- Node7 -->
<g id="node8" class="node">
<title>Node7</title>
<g id="a_node8"><a xlink:href="class_code_smile_1_1_pro_tiler_1_1_tilemap_1_1_tilemap3_d_debug_behaviour.html" target="_top" xlink:title=" ">
<polygon fill="white" stroke="#666666" points="255.12,-58 123.62,-58 123.62,-38 255.12,-38 255.12,-58"/>
<text text-anchor="middle" x="189.38" y="-44.5" font-family="Helvetica,sans-Serif" font-size="10.00">Tilemap3DDebugBehaviour</text>
</a>
</g>
</g>
<!-- Node0&#45;&gt;Node7 -->
<g id="edge7" class="edge">
<title>Node0&#45;&gt;Node7</title>
<path fill="none" stroke="#63b8ff" d="M55.79,-124.45C69.65,-107.11 92.56,-81.72 118,-67 123.92,-63.58 130.47,-60.75 137.12,-58.43"/>
<polygon fill="#63b8ff" stroke="#63b8ff" points="52.76,-121.65 49.4,-131.69 58.29,-125.94 52.76,-121.65"/>
</g>
<!-- Node8 -->
<g id="node9" class="node">
<title>Node8</title>
<g id="a_node9"><a xlink:href="class_code_smile_1_1_pro_tiler_1_1_tilemap_1_1_tilemap3_d_renderer_behaviour.html" target="_top" xlink:title=" ">
<polygon fill="white" stroke="#666666" points="260.75,-20 118,-20 118,0 260.75,0 260.75,-20"/>
<text text-anchor="middle" x="189.38" y="-6.5" font-family="Helvetica,sans-Serif" font-size="10.00">Tilemap3DRendererBehaviour</text>
</a>
</g>
</g>
<!-- Node0&#45;&gt;Node8 -->
<g id="edge8" class="edge">
<title>Node0&#45;&gt;Node8</title>
<path fill="none" stroke="#63b8ff" d="M50.18,-122.55C61.53,-96.81 84.52,-53.07 118,-29 122.83,-25.53 128.26,-22.69 133.9,-20.37"/>
<polygon fill="#63b8ff" stroke="#63b8ff" points="46.57,-121.1 45.91,-131.67 53.02,-123.82 46.57,-121.1"/>
</g>
</g>
</svg>
