<?xml version="1.0" encoding="UTF-8" standalone="no"?>
<!DOCTYPE svg PUBLIC "-//W3C//DTD SVG 1.1//EN"
 "http://www.w3.org/Graphics/SVG/1.1/DTD/svg11.dtd">
<!-- Generated by graphviz version 8.0.5 (20230430.1635)
 -->
<!-- Title: Graphical Class Hierarchy Pages: 1 -->
<svg width="222pt" height="180pt"
 viewBox="0.00 0.00 222.25 180.00" xmlns="http://www.w3.org/2000/svg" xmlns:xlink="http://www.w3.org/1999/xlink">
<g id="graph0" class="graph" transform="scale(1 1) rotate(0) translate(4 176)">
<title>Graphical Class Hierarchy</title>
<!-- Node0 -->
<g id="node1" class="node">
<title>Node0</title>
<g id="a_node1"><a xlink:title=" ">
<polygon fill="#e0e0e0" stroke="#999999" points="68.12,-105 1.88,-105 1.88,-85 68.12,-85 68.12,-105"/>
<text text-anchor="middle" x="35" y="-91.5" font-family="Helvetica,sans-Serif" font-size="10.00">IDisposable</text>
</a>
</g>
</g>
<!-- Node1 -->
<g id="node2" class="node">
<title>Node1</title>
<g id="a_node2"><a xlink:href="struct_code_smile_1_1_collections_1_1_native_array2_d.html" target="_top" xlink:title="A two&#45;dimensional array stored in native memory.">
<polygon fill="white" stroke="#666666" points="210.5,-96 109.75,-96 109.75,-76 210.5,-76 210.5,-96"/>
<text text-anchor="middle" x="160.12" y="-82.5" font-family="Helvetica,sans-Serif" font-size="10.00">NativeArray2D&lt; T &gt;</text>
</a>
</g>
</g>
<!-- Node0&#45;&gt;Node1 -->
<g id="edge1" class="edge">
<title>Node0&#45;&gt;Node1</title>
<path fill="none" stroke="#63b8ff" d="M79.05,-91.85C88.84,-91.14 99.31,-90.37 109.36,-89.64"/>
<polygon fill="#63b8ff" stroke="#63b8ff" points="79.07,-88.42 69.35,-92.64 79.58,-95.4 79.07,-88.42"/>
</g>
<!-- Node7 -->
<g id="node3" class="node">
<title>Node7</title>
<g id="a_node3"><a xlink:href="class_code_smile_1_1_component_pool.html" target="_top" xlink:title="Pools a component of a prefab. This also works with GameObject instances except that you will have to...">
<polygon fill="white" stroke="#666666" points="214.25,-134 106,-134 106,-114 214.25,-114 214.25,-134"/>
<text text-anchor="middle" x="160.12" y="-120.5" font-family="Helvetica,sans-Serif" font-size="10.00">ComponentPool&lt; T &gt;</text>
</a>
</g>
</g>
<!-- Node0&#45;&gt;Node7 -->
<g id="edge2" class="edge">
<title>Node0&#45;&gt;Node7</title>
<path fill="none" stroke="#63b8ff" d="M78.76,-105.07C90.47,-107.83 103.17,-110.82 114.96,-113.6"/>
<polygon fill="#63b8ff" stroke="#63b8ff" points="79.89,-101.51 69.35,-102.62 78.28,-108.32 79.89,-101.51"/>
</g>
<!-- Node2 -->
<g id="node4" class="node">
<title>Node2</title>
<g id="a_node4"><a xlink:title=" ">
<polygon fill="#e0e0e0" stroke="#999999" points="70,-162 0,-162 0,-142 70,-142 70,-162"/>
<text text-anchor="middle" x="35" y="-148.5" font-family="Helvetica,sans-Serif" font-size="10.00">IEnumerable</text>
</a>
</g>
</g>
<!-- Node2&#45;&gt;Node1 -->
<g id="edge3" class="edge">
<title>Node2&#45;&gt;Node1</title>
<path fill="none" stroke="#63b8ff" d="M57.83,-135.28C71.23,-125.56 89.01,-113.57 106,-105 112.3,-101.82 119.25,-98.93 126,-96.41"/>
<polygon fill="#63b8ff" stroke="#63b8ff" points="56.28,-132.82 50.33,-141.58 60.45,-138.44 56.28,-132.82"/>
</g>
<!-- Node3 -->
<g id="node5" class="node">
<title>Node3</title>
<g id="a_node5"><a xlink:href="class_code_smile_1_1_pro_tiler_1_1_data_1_1_tile3_d_layers.html" target="_top" xlink:title="A collection of Tile3DLayer instances.">
<polygon fill="white" stroke="#666666" points="196.25,-172 124,-172 124,-152 196.25,-152 196.25,-172"/>
<text text-anchor="middle" x="160.12" y="-158.5" font-family="Helvetica,sans-Serif" font-size="10.00">Tile3DLayers</text>
</a>
</g>
</g>
<!-- Node2&#45;&gt;Node3 -->
<g id="edge4" class="edge">
<title>Node2&#45;&gt;Node3</title>
<path fill="none" stroke="#63b8ff" d="M81.22,-155.67C95.24,-156.81 110.48,-158.05 123.73,-159.12"/>
<polygon fill="#63b8ff" stroke="#63b8ff" points="81.55,-152.11 71.3,-154.79 80.98,-159.08 81.55,-152.11"/>
</g>
<!-- Node4 -->
<g id="node6" class="node">
<title>Node4</title>
<g id="a_node6"><a xlink:title=" ">
<polygon fill="#e0e0e0" stroke="#999999" points="65.88,-58 4.12,-58 4.12,-38 65.88,-38 65.88,-58"/>
<text text-anchor="middle" x="35" y="-44.5" font-family="Helvetica,sans-Serif" font-size="10.00">IEquatable</text>
</a>
</g>
</g>
<!-- Node4&#45;&gt;Node1 -->
<g id="edge5" class="edge">
<title>Node4&#45;&gt;Node1</title>
<path fill="none" stroke="#63b8ff" d="M76.21,-60.41C92.12,-65.32 110.2,-70.9 125.41,-75.6"/>
<polygon fill="#63b8ff" stroke="#63b8ff" points="77.71,-56.9 67.12,-57.3 75.64,-63.59 77.71,-56.9"/>
</g>
<!-- Node5 -->
<g id="node7" class="node">
<title>Node5</title>
<g id="a_node7"><a xlink:href="struct_code_smile_1_1_pro_tiler_1_1_data_1_1_tile3_d.html" target="_top" xlink:title="Represents the saved data in a tilemap. Note: a TileIndex of 0 indicates an &quot;empty&quot; tile.">
<polygon fill="white" stroke="#666666" points="181.62,-20 138.62,-20 138.62,0 181.62,0 181.62,-20"/>
<text text-anchor="middle" x="160.12" y="-6.5" font-family="Helvetica,sans-Serif" font-size="10.00">Tile3D</text>
</a>
</g>
</g>
<!-- Node4&#45;&gt;Node5 -->
<g id="edge6" class="edge">
<title>Node4&#45;&gt;Node5</title>
<path fill="none" stroke="#63b8ff" d="M76.52,-35.5C97.13,-29.13 121.33,-21.67 138.19,-16.46"/>
<polygon fill="#63b8ff" stroke="#63b8ff" points="75.64,-32.41 67.12,-38.7 77.71,-39.1 75.64,-32.41"/>
</g>
<!-- Node6 -->
<g id="node8" class="node">
<title>Node6</title>
<g id="a_node8"><a xlink:href="struct_code_smile_1_1_pro_tiler_1_1_data_1_1_tile3_d_coord.html" target="_top" xlink:title="TileData for a specific coordinate.">
<polygon fill="white" stroke="#666666" points="194.38,-58 125.88,-58 125.88,-38 194.38,-38 194.38,-58"/>
<text text-anchor="middle" x="160.12" y="-44.5" font-family="Helvetica,sans-Serif" font-size="10.00">Tile3DCoord</text>
</a>
</g>
</g>
<!-- Node4&#45;&gt;Node6 -->
<g id="edge7" class="edge">
<title>Node4&#45;&gt;Node6</title>
<path fill="none" stroke="#63b8ff" d="M76.66,-48C92.46,-48 110.35,-48 125.41,-48"/>
<polygon fill="#63b8ff" stroke="#63b8ff" points="77.12,-44.5 67.12,-48 77.12,-51.5 77.12,-44.5"/>
</g>
</g>
</svg>
