<?xml version="1.0" encoding="UTF-8" standalone="no"?>
<!DOCTYPE svg PUBLIC "-//W3C//DTD SVG 1.1//EN"
 "http://www.w3.org/Graphics/SVG/1.1/DTD/svg11.dtd">
<!-- Generated by graphviz version 8.0.5 (20230430.1635)
 -->
<!-- Title: Graphical Class Hierarchy Pages: 1 -->
<svg width="222pt" height="142pt"
 viewBox="0.00 0.00 222.25 142.00" xmlns="http://www.w3.org/2000/svg" xmlns:xlink="http://www.w3.org/1999/xlink">
<g id="graph0" class="graph" transform="scale(1 1) rotate(0) translate(4 138)">
<title>Graphical Class Hierarchy</title>
<!-- Node0 -->
<g id="node1" class="node">
<title>Node0</title>
<g id="a_node1"><a xlink:title=" ">
<polygon fill="#e0e0e0" stroke="#999999" points="68.12,-134 1.88,-134 1.88,-114 68.12,-114 68.12,-134"/>
<text text-anchor="middle" x="35" y="-120.5" font-family="Helvetica,sans-Serif" font-size="10.00">IDisposable</text>
</a>
</g>
</g>
<!-- Node1 -->
<g id="node2" class="node">
<title>Node1</title>
<g id="a_node2"><a xlink:href="struct_code_smile_1_1_collections_1_1_native_array2_d.html" target="_top" xlink:title="A two&#45;dimensional array stored in native memory.">
<polygon fill="white" stroke="#666666" points="210.5,-96 109.75,-96 109.75,-76 210.5,-76 210.5,-96"/>
<text text-anchor="middle" x="160.12" y="-82.5" font-family="Helvetica,sans-Serif" font-size="10.00">NativeArray2D&lt; T &gt;</text>
</a>
</g>
</g>
<!-- Node0&#45;&gt;Node1 -->
<g id="edge1" class="edge">
<title>Node0&#45;&gt;Node1</title>
<path fill="none" stroke="#63b8ff" d="M78.59,-110.86C93.86,-106.14 110.85,-100.9 125.27,-96.45"/>
<polygon fill="#63b8ff" stroke="#63b8ff" points="77.87,-107.72 69.35,-114.02 79.94,-114.41 77.87,-107.72"/>
</g>
<!-- Node6 -->
<g id="node3" class="node">
<title>Node6</title>
<g id="a_node3"><a xlink:href="class_code_smile_1_1_component_pool.html" target="_top" xlink:title="Pools a component of a prefab. This also works with GameObject instances except that you will have to...">
<polygon fill="white" stroke="#666666" points="214.25,-134 106,-134 106,-114 214.25,-114 214.25,-134"/>
<text text-anchor="middle" x="160.12" y="-120.5" font-family="Helvetica,sans-Serif" font-size="10.00">ComponentPool&lt; T &gt;</text>
</a>
</g>
</g>
<!-- Node0&#45;&gt;Node6 -->
<g id="edge2" class="edge">
<title>Node0&#45;&gt;Node6</title>
<path fill="none" stroke="#63b8ff" d="M79.19,-124C87.71,-124 96.75,-124 105.57,-124"/>
<polygon fill="#63b8ff" stroke="#63b8ff" points="79.35,-120.5 69.35,-124 79.35,-127.5 79.35,-120.5"/>
</g>
<!-- Node2 -->
<g id="node4" class="node">
<title>Node2</title>
<g id="a_node4"><a xlink:title=" ">
<polygon fill="#e0e0e0" stroke="#999999" points="70,-96 0,-96 0,-76 70,-76 70,-96"/>
<text text-anchor="middle" x="35" y="-82.5" font-family="Helvetica,sans-Serif" font-size="10.00">IEnumerable</text>
</a>
</g>
</g>
<!-- Node2&#45;&gt;Node1 -->
<g id="edge3" class="edge">
<title>Node2&#45;&gt;Node1</title>
<path fill="none" stroke="#63b8ff" d="M81.17,-86C90.34,-86 100.04,-86 109.36,-86"/>
<polygon fill="#63b8ff" stroke="#63b8ff" points="81.3,-82.5 71.3,-86 81.3,-89.5 81.3,-82.5"/>
</g>
<!-- Node3 -->
<g id="node5" class="node">
<title>Node3</title>
<g id="a_node5"><a xlink:title=" ">
<polygon fill="#e0e0e0" stroke="#999999" points="65.88,-58 4.12,-58 4.12,-38 65.88,-38 65.88,-58"/>
<text text-anchor="middle" x="35" y="-44.5" font-family="Helvetica,sans-Serif" font-size="10.00">IEquatable</text>
</a>
</g>
</g>
<!-- Node3&#45;&gt;Node1 -->
<g id="edge4" class="edge">
<title>Node3&#45;&gt;Node1</title>
<path fill="none" stroke="#63b8ff" d="M76.21,-60.41C92.12,-65.32 110.2,-70.9 125.41,-75.6"/>
<polygon fill="#63b8ff" stroke="#63b8ff" points="77.71,-56.9 67.12,-57.3 75.64,-63.59 77.71,-56.9"/>
</g>
<!-- Node4 -->
<g id="node6" class="node">
<title>Node4</title>
<g id="a_node6"><a xlink:href="struct_code_smile_1_1_pro_tiler_1_1_tile_1_1_tile3_d.html" target="_top" xlink:title="Represents the saved data in a tilemap. Note: a TileIndex of 0 indicates an &quot;empty&quot; tile.">
<polygon fill="white" stroke="#666666" points="181.62,-58 138.62,-58 138.62,-38 181.62,-38 181.62,-58"/>
<text text-anchor="middle" x="160.12" y="-44.5" font-family="Helvetica,sans-Serif" font-size="10.00">Tile3D</text>
</a>
</g>
</g>
<!-- Node3&#45;&gt;Node4 -->
<g id="edge5" class="edge">
<title>Node3&#45;&gt;Node4</title>
<path fill="none" stroke="#63b8ff" d="M77.08,-48C97.58,-48 121.48,-48 138.19,-48"/>
<polygon fill="#63b8ff" stroke="#63b8ff" points="77.12,-44.5 67.12,-48 77.12,-51.5 77.12,-44.5"/>
</g>
<!-- Node5 -->
<g id="node7" class="node">
<title>Node5</title>
<g id="a_node7"><a xlink:href="struct_code_smile_1_1_pro_tiler_1_1_tile_1_1_tile3_d_coord.html" target="_top" xlink:title="TileData for a specific coordinate.">
<polygon fill="white" stroke="#666666" points="194.38,-20 125.88,-20 125.88,0 194.38,0 194.38,-20"/>
<text text-anchor="middle" x="160.12" y="-6.5" font-family="Helvetica,sans-Serif" font-size="10.00">Tile3DCoord</text>
</a>
</g>
</g>
<!-- Node3&#45;&gt;Node5 -->
<g id="edge6" class="edge">
<title>Node3&#45;&gt;Node5</title>
<path fill="none" stroke="#63b8ff" d="M76.21,-35.59C92.12,-30.68 110.2,-25.1 125.41,-20.4"/>
<polygon fill="#63b8ff" stroke="#63b8ff" points="75.64,-32.41 67.12,-38.7 77.71,-39.1 75.64,-32.41"/>
</g>
</g>
</svg>
