<?xml version="1.0" encoding="UTF-8" standalone="no"?>
<!DOCTYPE svg PUBLIC "-//W3C//DTD SVG 1.1//EN"
 "http://www.w3.org/Graphics/SVG/1.1/DTD/svg11.dtd">
<!-- Generated by graphviz version 8.0.5 (20230430.1635)
 -->
<!-- Title: Tile3DCoord Pages: 1 -->
<svg width="363pt" height="491pt"
 viewBox="0.00 0.00 363.00 491.00" xmlns="http://www.w3.org/2000/svg" xmlns:xlink="http://www.w3.org/1999/xlink">
<g id="graph0" class="graph" transform="scale(1 1) rotate(0) translate(4 487)">
<title>Tile3DCoord</title>
<!-- Node1 -->
<g id="node1" class="node">
<title>Node1</title>
<g id="a_node1"><a xlink:title="TileData for a specific coordinate.">
<polygon fill="#999999" stroke="#666666" points="134.12,-0.5 134.12,-156.5 234.12,-156.5 234.12,-0.5 134.12,-0.5"/>
<text text-anchor="middle" x="184.12" y="-143" font-family="Helvetica,sans-Serif" font-size="10.00">Tile3DCoord</text>
<polyline fill="none" stroke="#666666" points="134.12,-136.5 234.12,-136.5"/>
<text text-anchor="middle" x="184.12" y="-123" font-family="Helvetica,sans-Serif" font-size="10.00"> </text>
<polyline fill="none" stroke="#666666" points="134.12,-116.5 234.12,-116.5"/>
<text text-anchor="start" x="142.12" y="-103" font-family="Helvetica,sans-Serif" font-size="10.00">+ Tile3DCoord()</text>
<text text-anchor="start" x="142.12" y="-91" font-family="Helvetica,sans-Serif" font-size="10.00">+ Equals()</text>
<text text-anchor="start" x="142.12" y="-79" font-family="Helvetica,sans-Serif" font-size="10.00">+ Equals()</text>
<text text-anchor="start" x="142.12" y="-67" font-family="Helvetica,sans-Serif" font-size="10.00">+ GetHashCode()</text>
<text text-anchor="start" x="142.12" y="-55" font-family="Helvetica,sans-Serif" font-size="10.00">+ ToString()</text>
<text text-anchor="start" x="142.12" y="-43" font-family="Helvetica,sans-Serif" font-size="10.00">+ operator!=()</text>
<text text-anchor="start" x="142.12" y="-31" font-family="Helvetica,sans-Serif" font-size="10.00">+ operator==()</text>
<text text-anchor="start" x="142.12" y="-19" font-family="Helvetica,sans-Serif" font-size="10.00">~ GetChunkCoord()</text>
<text text-anchor="start" x="142.12" y="-7" font-family="Helvetica,sans-Serif" font-size="10.00">~ GetLayerCoord()</text>
</a>
</g>
</g>
<!-- Node2 -->
<g id="node2" class="node">
<title>Node2</title>
<g id="a_node2"><a xlink:title=" ">
<polygon fill="white" stroke="#666666" points="0,-259.5 0,-319.5 132.25,-319.5 132.25,-259.5 0,-259.5"/>
<text text-anchor="middle" x="66.12" y="-306" font-family="Helvetica,sans-Serif" font-size="10.00">IEquatable&lt; Tile3DCoord &gt;</text>
<polyline fill="none" stroke="#666666" points="0,-299.5 132.25,-299.5"/>
<text text-anchor="middle" x="66.12" y="-286" font-family="Helvetica,sans-Serif" font-size="10.00"> </text>
<polyline fill="none" stroke="#666666" points="0,-279.5 132.25,-279.5"/>
<text text-anchor="middle" x="66.12" y="-266" font-family="Helvetica,sans-Serif" font-size="10.00"> </text>
</a>
</g>
</g>
<!-- Node2&#45;&gt;Node1 -->
<g id="edge1" class="edge">
<title>Node2&#45;&gt;Node1</title>
<path fill="none" stroke="#63b8ff" d="M87.68,-250.31C102.5,-224.08 122.68,-188.33 140.75,-156.32"/>
<polygon fill="none" stroke="#63b8ff" points="84.15,-248.45 82.28,-258.88 90.25,-251.89 84.15,-248.45"/>
</g>
<!-- Node3 -->
<g id="node3" class="node">
<title>Node3</title>
<g id="a_node3"><a xlink:title=" ">
<polygon fill="white" stroke="#666666" points="149.88,-259.5 149.88,-319.5 218.38,-319.5 218.38,-259.5 149.88,-259.5"/>
<text text-anchor="middle" x="184.12" y="-306" font-family="Helvetica,sans-Serif" font-size="10.00">UnityEngine</text>
<polyline fill="none" stroke="#666666" points="149.88,-299.5 218.38,-299.5"/>
<text text-anchor="middle" x="184.12" y="-286" font-family="Helvetica,sans-Serif" font-size="10.00"> </text>
<polyline fill="none" stroke="#666666" points="149.88,-279.5 218.38,-279.5"/>
<text text-anchor="middle" x="184.12" y="-266" font-family="Helvetica,sans-Serif" font-size="10.00"> </text>
</a>
</g>
</g>
<!-- Node3&#45;&gt;Node1 -->
<g id="edge2" class="edge">
<title>Node3&#45;&gt;Node1</title>
<path fill="none" stroke="#404040" d="M184.12,-259.88C184.12,-236.39 184.12,-201.8 184.12,-169.18"/>
<polygon fill="none" stroke="#404040" points="184.13,-169.23 180.13,-163.23 184.13,-157.23 188.13,-163.23 184.13,-169.23"/>
<text text-anchor="middle" x="201.38" y="-177.5" font-family="Helvetica,sans-Serif" font-size="10.00"> +Coord</text>
</g>
<!-- Node4 -->
<g id="node4" class="node">
<title>Node4</title>
<g id="a_node4"><a xlink:href="struct_code_smile_1_1_pro_tiler_1_1_tile_1_1_tile3_d.html" target="_top" xlink:title="Represents the saved data in a tilemap. Note: a TileIndex of 0 indicates an &quot;empty&quot; tile.">
<polygon fill="white" stroke="#666666" points="236.25,-205.5 236.25,-373.5 328,-373.5 328,-205.5 236.25,-205.5"/>
<text text-anchor="middle" x="282.12" y="-360" font-family="Helvetica,sans-Serif" font-size="10.00">Tile3D</text>
<polyline fill="none" stroke="#666666" points="236.25,-353.5 328,-353.5"/>
<text text-anchor="start" x="244.25" y="-340" font-family="Helvetica,sans-Serif" font-size="10.00">+ Flags</text>
<text text-anchor="start" x="244.25" y="-328" font-family="Helvetica,sans-Serif" font-size="10.00">+ Direction</text>
<text text-anchor="start" x="244.25" y="-316" font-family="Helvetica,sans-Serif" font-size="10.00">+ IsEmpty</text>
<polyline fill="none" stroke="#666666" points="236.25,-309.5 328,-309.5"/>
<text text-anchor="start" x="244.25" y="-296" font-family="Helvetica,sans-Serif" font-size="10.00">+ Tile3D()</text>
<text text-anchor="start" x="244.25" y="-284" font-family="Helvetica,sans-Serif" font-size="10.00">+ Tile3D()</text>
<text text-anchor="start" x="244.25" y="-272" font-family="Helvetica,sans-Serif" font-size="10.00">+ Equals()</text>
<text text-anchor="start" x="244.25" y="-260" font-family="Helvetica,sans-Serif" font-size="10.00">+ Equals()</text>
<text text-anchor="start" x="244.25" y="-248" font-family="Helvetica,sans-Serif" font-size="10.00">+ GetHashCode()</text>
<text text-anchor="start" x="244.25" y="-236" font-family="Helvetica,sans-Serif" font-size="10.00">+ ToString()</text>
<text text-anchor="start" x="244.25" y="-224" font-family="Helvetica,sans-Serif" font-size="10.00">+ operator!=()</text>
<text text-anchor="start" x="244.25" y="-212" font-family="Helvetica,sans-Serif" font-size="10.00">+ operator==()</text>
</a>
</g>
</g>
<!-- Node4&#45;&gt;Node1 -->
<g id="edge3" class="edge">
<title>Node4&#45;&gt;Node1</title>
<path fill="none" stroke="#404040" d="M243.25,-205.6C237.4,-193.12 231.35,-180.21 225.45,-167.63"/>
<polygon fill="none" stroke="#404040" points="225.56,-167.87 219.39,-164.13 220.47,-157 226.64,-160.74 225.56,-167.87"/>
<text text-anchor="middle" x="245.12" y="-177.5" font-family="Helvetica,sans-Serif" font-size="10.00"> +Tile</text>
</g>
<!-- Node5 -->
<g id="node5" class="node">
<title>Node5</title>
<g id="a_node5"><a xlink:title=" ">
<polygon fill="white" stroke="#666666" points="180.75,-422.5 180.75,-482.5 287.5,-482.5 287.5,-422.5 180.75,-422.5"/>
<text text-anchor="middle" x="234.12" y="-469" font-family="Helvetica,sans-Serif" font-size="10.00">IEquatable&lt; Tile3D &gt;</text>
<polyline fill="none" stroke="#666666" points="180.75,-462.5 287.5,-462.5"/>
<text text-anchor="middle" x="234.12" y="-449" font-family="Helvetica,sans-Serif" font-size="10.00"> </text>
<polyline fill="none" stroke="#666666" points="180.75,-442.5 287.5,-442.5"/>
<text text-anchor="middle" x="234.12" y="-429" font-family="Helvetica,sans-Serif" font-size="10.00"> </text>
</a>
</g>
</g>
<!-- Node5&#45;&gt;Node4 -->
<g id="edge4" class="edge">
<title>Node5&#45;&gt;Node4</title>
<path fill="none" stroke="#63b8ff" d="M245.81,-412.31C249.35,-400.42 253.39,-386.88 257.45,-373.25"/>
<polygon fill="none" stroke="#63b8ff" points="242.21,-411.13 242.71,-421.72 248.92,-413.13 242.21,-411.13"/>
</g>
<!-- Node6 -->
<g id="node6" class="node">
<title>Node6</title>
<g id="a_node6"><a xlink:title=" ">
<polygon fill="white" stroke="#666666" points="305.25,-422.5 305.25,-482.5 355,-482.5 355,-422.5 305.25,-422.5"/>
<text text-anchor="middle" x="330.12" y="-469" font-family="Helvetica,sans-Serif" font-size="10.00">System</text>
<polyline fill="none" stroke="#666666" points="305.25,-462.5 355,-462.5"/>
<text text-anchor="middle" x="330.12" y="-449" font-family="Helvetica,sans-Serif" font-size="10.00"> </text>
<polyline fill="none" stroke="#666666" points="305.25,-442.5 355,-442.5"/>
<text text-anchor="middle" x="330.12" y="-429" font-family="Helvetica,sans-Serif" font-size="10.00"> </text>
</a>
</g>
</g>
<!-- Node6&#45;&gt;Node4 -->
<g id="edge5" class="edge">
<title>Node6&#45;&gt;Node4</title>
<path fill="none" stroke="#404040" d="M321.54,-422.72C318.34,-411.98 314.51,-399.12 310.51,-385.7"/>
<polygon fill="none" stroke="#404040" points="310.48,-385.62 304.94,-381.01 307.05,-374.12 312.6,-378.72 310.48,-385.62"/>
<text text-anchor="middle" x="331.25" y="-394.5" font-family="Helvetica,sans-Serif" font-size="10.00"> +Index</text>
</g>
</g>
</svg>
