<?xml version="1.0" encoding="UTF-8" standalone="no"?>
<!DOCTYPE svg PUBLIC "-//W3C//DTD SVG 1.1//EN"
 "http://www.w3.org/Graphics/SVG/1.1/DTD/svg11.dtd">
<!-- Generated by graphviz version 8.0.5 (20230430.1635)
 -->
<!-- Title: Tile3D Pages: 1 -->
<svg width="182pt" height="286pt"
 viewBox="0.00 0.00 182.25 286.00" xmlns="http://www.w3.org/2000/svg" xmlns:xlink="http://www.w3.org/1999/xlink">
<g id="graph0" class="graph" transform="scale(1 1) rotate(0) translate(4 282)">
<title>Tile3D</title>
<!-- Node1 -->
<g id="node1" class="node">
<title>Node1</title>
<g id="a_node1"><a xlink:title="Represents the saved data in a tilemap. Note: a TileIndex of 0 indicates an &quot;empty&quot; tile.">
<polygon fill="#999999" stroke="#666666" points="55.5,-0.5 55.5,-168.5 147.25,-168.5 147.25,-0.5 55.5,-0.5"/>
<text text-anchor="middle" x="101.38" y="-155" font-family="Helvetica,sans-Serif" font-size="10.00">Tile3D</text>
<polyline fill="none" stroke="#666666" points="55.5,-148.5 147.25,-148.5"/>
<text text-anchor="start" x="63.5" y="-135" font-family="Helvetica,sans-Serif" font-size="10.00">+ Flags</text>
<text text-anchor="start" x="63.5" y="-123" font-family="Helvetica,sans-Serif" font-size="10.00">+ Direction</text>
<text text-anchor="start" x="63.5" y="-111" font-family="Helvetica,sans-Serif" font-size="10.00">+ IsEmpty</text>
<polyline fill="none" stroke="#666666" points="55.5,-104.5 147.25,-104.5"/>
<text text-anchor="start" x="63.5" y="-91" font-family="Helvetica,sans-Serif" font-size="10.00">+ Tile3D()</text>
<text text-anchor="start" x="63.5" y="-79" font-family="Helvetica,sans-Serif" font-size="10.00">+ Tile3D()</text>
<text text-anchor="start" x="63.5" y="-67" font-family="Helvetica,sans-Serif" font-size="10.00">+ Equals()</text>
<text text-anchor="start" x="63.5" y="-55" font-family="Helvetica,sans-Serif" font-size="10.00">+ Equals()</text>
<text text-anchor="start" x="63.5" y="-43" font-family="Helvetica,sans-Serif" font-size="10.00">+ GetHashCode()</text>
<text text-anchor="start" x="63.5" y="-31" font-family="Helvetica,sans-Serif" font-size="10.00">+ ToString()</text>
<text text-anchor="start" x="63.5" y="-19" font-family="Helvetica,sans-Serif" font-size="10.00">+ operator!=()</text>
<text text-anchor="start" x="63.5" y="-7" font-family="Helvetica,sans-Serif" font-size="10.00">+ operator==()</text>
</a>
</g>
</g>
<!-- Node2 -->
<g id="node2" class="node">
<title>Node2</title>
<g id="a_node2"><a xlink:title=" ">
<polygon fill="white" stroke="#666666" points="0,-217.5 0,-277.5 106.75,-277.5 106.75,-217.5 0,-217.5"/>
<text text-anchor="middle" x="53.38" y="-264" font-family="Helvetica,sans-Serif" font-size="10.00">IEquatable&lt; Tile3D &gt;</text>
<polyline fill="none" stroke="#666666" points="0,-257.5 106.75,-257.5"/>
<text text-anchor="middle" x="53.38" y="-244" font-family="Helvetica,sans-Serif" font-size="10.00"> </text>
<polyline fill="none" stroke="#666666" points="0,-237.5 106.75,-237.5"/>
<text text-anchor="middle" x="53.38" y="-224" font-family="Helvetica,sans-Serif" font-size="10.00"> </text>
</a>
</g>
</g>
<!-- Node2&#45;&gt;Node1 -->
<g id="edge1" class="edge">
<title>Node2&#45;&gt;Node1</title>
<path fill="none" stroke="#63b8ff" d="M65.06,-207.31C68.6,-195.42 72.64,-181.88 76.7,-168.25"/>
<polygon fill="none" stroke="#63b8ff" points="61.46,-206.13 61.96,-216.72 68.17,-208.13 61.46,-206.13"/>
</g>
<!-- Node3 -->
<g id="node3" class="node">
<title>Node3</title>
<g id="a_node3"><a xlink:title=" ">
<polygon fill="white" stroke="#666666" points="124.5,-217.5 124.5,-277.5 174.25,-277.5 174.25,-217.5 124.5,-217.5"/>
<text text-anchor="middle" x="149.38" y="-264" font-family="Helvetica,sans-Serif" font-size="10.00">System</text>
<polyline fill="none" stroke="#666666" points="124.5,-257.5 174.25,-257.5"/>
<text text-anchor="middle" x="149.38" y="-244" font-family="Helvetica,sans-Serif" font-size="10.00"> </text>
<polyline fill="none" stroke="#666666" points="124.5,-237.5 174.25,-237.5"/>
<text text-anchor="middle" x="149.38" y="-224" font-family="Helvetica,sans-Serif" font-size="10.00"> </text>
</a>
</g>
</g>
<!-- Node3&#45;&gt;Node1 -->
<g id="edge2" class="edge">
<title>Node3&#45;&gt;Node1</title>
<path fill="none" stroke="#404040" d="M140.79,-217.72C137.59,-206.98 133.76,-194.12 129.76,-180.7"/>
<polygon fill="none" stroke="#404040" points="129.73,-180.62 124.19,-176.01 126.3,-169.12 131.85,-173.72 129.73,-180.62"/>
<text text-anchor="middle" x="150.5" y="-189.5" font-family="Helvetica,sans-Serif" font-size="10.00"> +Index</text>
</g>
</g>
</svg>
