<?xml version="1.0" encoding="UTF-8" standalone="no"?>
<!DOCTYPE svg PUBLIC "-//W3C//DTD SVG 1.1//EN"
 "http://www.w3.org/Graphics/SVG/1.1/DTD/svg11.dtd">
<!-- Generated by graphviz version 8.0.5 (20230430.1635)
 -->
<!-- Title: Tile3DCoord Pages: 1 -->
<svg width="140pt" height="286pt"
 viewBox="0.00 0.00 140.25 286.00" xmlns="http://www.w3.org/2000/svg" xmlns:xlink="http://www.w3.org/1999/xlink">
<g id="graph0" class="graph" transform="scale(1 1) rotate(0) translate(4 282)">
<title>Tile3DCoord</title>
<!-- Node1 -->
<g id="node1" class="node">
<title>Node1</title>
<g id="a_node1"><a xlink:title="TileData for a specific coordinate.">
<polygon fill="#999999" stroke="#666666" points="16.12,-0.5 16.12,-180.5 116.12,-180.5 116.12,-0.5 16.12,-0.5"/>
<text text-anchor="middle" x="66.12" y="-167" font-family="Helvetica,sans-Serif" font-size="10.00">Tile3DCoord</text>
<polyline fill="none" stroke="#666666" points="16.12,-160.5 116.12,-160.5"/>
<text text-anchor="start" x="24.12" y="-147" font-family="Helvetica,sans-Serif" font-size="10.00">+ Coord</text>
<text text-anchor="start" x="24.12" y="-135" font-family="Helvetica,sans-Serif" font-size="10.00">+ Tile</text>
<polyline fill="none" stroke="#666666" points="16.12,-128.5 116.12,-128.5"/>
<text text-anchor="start" x="24.12" y="-115" font-family="Helvetica,sans-Serif" font-size="10.00">+ Tile3DCoord()</text>
<text text-anchor="start" x="24.12" y="-103" font-family="Helvetica,sans-Serif" font-size="10.00">+ Tile3DCoord()</text>
<text text-anchor="start" x="24.12" y="-91" font-family="Helvetica,sans-Serif" font-size="10.00">+ Equals()</text>
<text text-anchor="start" x="24.12" y="-79" font-family="Helvetica,sans-Serif" font-size="10.00">+ Equals()</text>
<text text-anchor="start" x="24.12" y="-67" font-family="Helvetica,sans-Serif" font-size="10.00">+ GetHashCode()</text>
<text text-anchor="start" x="24.12" y="-55" font-family="Helvetica,sans-Serif" font-size="10.00">+ ToString()</text>
<text text-anchor="start" x="24.12" y="-43" font-family="Helvetica,sans-Serif" font-size="10.00">+ operator!=()</text>
<text text-anchor="start" x="24.12" y="-31" font-family="Helvetica,sans-Serif" font-size="10.00">+ operator==()</text>
<text text-anchor="start" x="24.12" y="-19" font-family="Helvetica,sans-Serif" font-size="10.00">~ GetChunkCoord()</text>
<text text-anchor="start" x="24.12" y="-7" font-family="Helvetica,sans-Serif" font-size="10.00">~ GetLayerCoord()</text>
</a>
</g>
</g>
<!-- Node2 -->
<g id="node2" class="node">
<title>Node2</title>
<g id="a_node2"><a xlink:title=" ">
<polygon fill="white" stroke="#666666" points="0,-217.5 0,-277.5 132.25,-277.5 132.25,-217.5 0,-217.5"/>
<text text-anchor="middle" x="66.12" y="-264" font-family="Helvetica,sans-Serif" font-size="10.00">IEquatable&lt; Tile3DCoord &gt;</text>
<polyline fill="none" stroke="#666666" points="0,-257.5 132.25,-257.5"/>
<text text-anchor="middle" x="66.12" y="-244" font-family="Helvetica,sans-Serif" font-size="10.00"> </text>
<polyline fill="none" stroke="#666666" points="0,-237.5 132.25,-237.5"/>
<text text-anchor="middle" x="66.12" y="-224" font-family="Helvetica,sans-Serif" font-size="10.00"> </text>
</a>
</g>
</g>
<!-- Node2&#45;&gt;Node1 -->
<g id="edge1" class="edge">
<title>Node2&#45;&gt;Node1</title>
<path fill="none" stroke="#63b8ff" d="M66.12,-206.95C66.12,-198.68 66.12,-189.64 66.12,-180.38"/>
<polygon fill="none" stroke="#63b8ff" points="62.63,-206.71 66.12,-216.71 69.63,-206.71 62.63,-206.71"/>
</g>
</g>
</svg>
