<?xml version="1.0" encoding="UTF-8" standalone="no"?>
<!DOCTYPE svg PUBLIC "-//W3C//DTD SVG 1.1//EN"
 "http://www.w3.org/Graphics/SVG/1.1/DTD/svg11.dtd">
<!-- Generated by graphviz version 8.0.5 (20230430.1635)
 -->
<!-- Title: Tile3D Pages: 1 -->
<svg width="115pt" height="286pt"
 viewBox="0.00 0.00 114.75 286.00" xmlns="http://www.w3.org/2000/svg" xmlns:xlink="http://www.w3.org/1999/xlink">
<g id="graph0" class="graph" transform="scale(1 1) rotate(0) translate(4 282)">
<title>Tile3D</title>
<!-- Node1 -->
<g id="node1" class="node">
<title>Node1</title>
<g id="a_node1"><a xlink:title="Represents the saved data in a tilemap. Note: a TileIndex of 0 indicates an &quot;empty&quot; tile.">
<polygon fill="#999999" stroke="#666666" points="7.5,-0.5 7.5,-180.5 99.25,-180.5 99.25,-0.5 7.5,-0.5"/>
<text text-anchor="middle" x="53.38" y="-167" font-family="Helvetica,sans-Serif" font-size="10.00">Tile3D</text>
<polyline fill="none" stroke="#666666" points="7.5,-160.5 99.25,-160.5"/>
<text text-anchor="start" x="15.5" y="-147" font-family="Helvetica,sans-Serif" font-size="10.00">+ Flags</text>
<text text-anchor="start" x="15.5" y="-135" font-family="Helvetica,sans-Serif" font-size="10.00">+ Index</text>
<text text-anchor="start" x="15.5" y="-123" font-family="Helvetica,sans-Serif" font-size="10.00">+ Direction</text>
<text text-anchor="start" x="15.5" y="-111" font-family="Helvetica,sans-Serif" font-size="10.00">+ IsEmpty</text>
<polyline fill="none" stroke="#666666" points="7.5,-104.5 99.25,-104.5"/>
<text text-anchor="start" x="15.5" y="-91" font-family="Helvetica,sans-Serif" font-size="10.00">+ Tile3D()</text>
<text text-anchor="start" x="15.5" y="-79" font-family="Helvetica,sans-Serif" font-size="10.00">+ Tile3D()</text>
<text text-anchor="start" x="15.5" y="-67" font-family="Helvetica,sans-Serif" font-size="10.00">+ Equals()</text>
<text text-anchor="start" x="15.5" y="-55" font-family="Helvetica,sans-Serif" font-size="10.00">+ Equals()</text>
<text text-anchor="start" x="15.5" y="-43" font-family="Helvetica,sans-Serif" font-size="10.00">+ GetHashCode()</text>
<text text-anchor="start" x="15.5" y="-31" font-family="Helvetica,sans-Serif" font-size="10.00">+ ToString()</text>
<text text-anchor="start" x="15.5" y="-19" font-family="Helvetica,sans-Serif" font-size="10.00">+ operator!=()</text>
<text text-anchor="start" x="15.5" y="-7" font-family="Helvetica,sans-Serif" font-size="10.00">+ operator==()</text>
</a>
</g>
</g>
<!-- Node2 -->
<g id="node2" class="node">
<title>Node2</title>
<g id="a_node2"><a xlink:title=" ">
<polygon fill="white" stroke="#666666" points="0,-217.5 0,-277.5 106.75,-277.5 106.75,-217.5 0,-217.5"/>
<text text-anchor="middle" x="53.38" y="-264" font-family="Helvetica,sans-Serif" font-size="10.00">IEquatable&lt; Tile3D &gt;</text>
<polyline fill="none" stroke="#666666" points="0,-257.5 106.75,-257.5"/>
<text text-anchor="middle" x="53.38" y="-244" font-family="Helvetica,sans-Serif" font-size="10.00"> </text>
<polyline fill="none" stroke="#666666" points="0,-237.5 106.75,-237.5"/>
<text text-anchor="middle" x="53.38" y="-224" font-family="Helvetica,sans-Serif" font-size="10.00"> </text>
</a>
</g>
</g>
<!-- Node2&#45;&gt;Node1 -->
<g id="edge1" class="edge">
<title>Node2&#45;&gt;Node1</title>
<path fill="none" stroke="#63b8ff" d="M53.38,-206.95C53.38,-198.68 53.38,-189.64 53.38,-180.38"/>
<polygon fill="none" stroke="#63b8ff" points="49.88,-206.71 53.38,-216.71 56.88,-206.71 49.88,-206.71"/>
</g>
</g>
</svg>
