<?xml version="1.0" encoding="UTF-8" standalone="no"?>
<!DOCTYPE svg PUBLIC "-//W3C//DTD SVG 1.1//EN"
 "http://www.w3.org/Graphics/SVG/1.1/DTD/svg11.dtd">
<!-- Generated by graphviz version 8.0.5 (20230430.1635)
 -->
<!-- Title: NativeArray2D&lt; T &gt;.Enumerator Pages: 1 -->
<svg width="162pt" height="214pt"
 viewBox="0.00 0.00 162.00 214.00" xmlns="http://www.w3.org/2000/svg" xmlns:xlink="http://www.w3.org/1999/xlink">
<g id="graph0" class="graph" transform="scale(1 1) rotate(0) translate(4 210)">
<title>NativeArray2D&lt; T &gt;.Enumerator</title>
<!-- Node1 -->
<g id="node1" class="node">
<title>Node1</title>
<g id="a_node1"><a xlink:title="An enumerator for this type of array. It enumerates from (0,0) to (Length0&#45;1,Length1&#45;1) in rows of th...">
<polygon fill="#999999" stroke="#666666" points="0,-0.5 0,-108.5 154,-108.5 154,-0.5 0,-0.5"/>
<text text-anchor="middle" x="77" y="-95" font-family="Helvetica,sans-Serif" font-size="10.00">NativeArray2D&lt; T &gt;.Enumerator</text>
<polyline fill="none" stroke="#666666" points="0,-88.5 154,-88.5"/>
<text text-anchor="start" x="8" y="-75" font-family="Helvetica,sans-Serif" font-size="10.00">+ Current</text>
<text text-anchor="start" x="8" y="-63" font-family="Helvetica,sans-Serif" font-size="10.00">+ Current</text>
<polyline fill="none" stroke="#666666" points="0,-56.5 154,-56.5"/>
<text text-anchor="start" x="8" y="-43" font-family="Helvetica,sans-Serif" font-size="10.00">+ Enumerator()</text>
<text text-anchor="start" x="8" y="-31" font-family="Helvetica,sans-Serif" font-size="10.00">+ Dispose()</text>
<text text-anchor="start" x="8" y="-19" font-family="Helvetica,sans-Serif" font-size="10.00">+ MoveNext()</text>
<text text-anchor="start" x="8" y="-7" font-family="Helvetica,sans-Serif" font-size="10.00">+ Reset()</text>
</a>
</g>
</g>
<!-- Node2 -->
<g id="node2" class="node">
<title>Node2</title>
<g id="a_node2"><a xlink:title=" ">
<polygon fill="white" stroke="#666666" points="31.12,-145.5 31.12,-205.5 122.88,-205.5 122.88,-145.5 31.12,-145.5"/>
<text text-anchor="middle" x="77" y="-192" font-family="Helvetica,sans-Serif" font-size="10.00">IEnumerator&lt; T &gt;</text>
<polyline fill="none" stroke="#666666" points="31.12,-185.5 122.88,-185.5"/>
<text text-anchor="middle" x="77" y="-172" font-family="Helvetica,sans-Serif" font-size="10.00"> </text>
<polyline fill="none" stroke="#666666" points="31.12,-165.5 122.88,-165.5"/>
<text text-anchor="middle" x="77" y="-152" font-family="Helvetica,sans-Serif" font-size="10.00"> </text>
</a>
</g>
</g>
<!-- Node2&#45;&gt;Node1 -->
<g id="edge1" class="edge">
<title>Node2&#45;&gt;Node1</title>
<path fill="none" stroke="#63b8ff" d="M77,-134.89C77,-126.34 77,-117.18 77,-108.23"/>
<polygon fill="none" stroke="#63b8ff" points="73.5,-134.69 77,-144.69 80.5,-134.69 73.5,-134.69"/>
</g>
</g>
</svg>
