<?xml version="1.0" encoding="UTF-8" standalone="no"?>
<!DOCTYPE svg PUBLIC "-//W3C//DTD SVG 1.1//EN"
 "http://www.w3.org/Graphics/SVG/1.1/DTD/svg11.dtd">
<!-- Generated by graphviz version 8.0.5 (20230430.1635)
 -->
<!-- Title: Tile3DCoord Pages: 1 -->
<svg width="344pt" height="504pt"
 viewBox="0.00 0.00 343.50 504.00" xmlns="http://www.w3.org/2000/svg" xmlns:xlink="http://www.w3.org/1999/xlink">
<g id="graph0" class="graph" transform="scale(1 1) rotate(0) translate(4 500)">
<title>Tile3DCoord</title>
<!-- Node1 -->
<g id="node1" class="node">
<title>Node1</title>
<g id="a_node1"><a xlink:title="TileData for a specific coordinate.">
<polygon fill="#999999" stroke="#666666" points="134.12,-0.5 134.12,-168.5 234.12,-168.5 234.12,-0.5 134.12,-0.5"/>
<text text-anchor="middle" x="184.12" y="-155" font-family="Helvetica,sans-Serif" font-size="10.00">Tile3DCoord</text>
<polyline fill="none" stroke="#666666" points="134.12,-148.5 234.12,-148.5"/>
<text text-anchor="middle" x="184.12" y="-135" font-family="Helvetica,sans-Serif" font-size="10.00"> </text>
<polyline fill="none" stroke="#666666" points="134.12,-128.5 234.12,-128.5"/>
<text text-anchor="start" x="142.12" y="-115" font-family="Helvetica,sans-Serif" font-size="10.00">+ Tile3DCoord()</text>
<text text-anchor="start" x="142.12" y="-103" font-family="Helvetica,sans-Serif" font-size="10.00">+ Tile3DCoord()</text>
<text text-anchor="start" x="142.12" y="-91" font-family="Helvetica,sans-Serif" font-size="10.00">+ Equals()</text>
<text text-anchor="start" x="142.12" y="-79" font-family="Helvetica,sans-Serif" font-size="10.00">+ Equals()</text>
<text text-anchor="start" x="142.12" y="-67" font-family="Helvetica,sans-Serif" font-size="10.00">+ GetHashCode()</text>
<text text-anchor="start" x="142.12" y="-55" font-family="Helvetica,sans-Serif" font-size="10.00">+ ToString()</text>
<text text-anchor="start" x="142.12" y="-43" font-family="Helvetica,sans-Serif" font-size="10.00">+ operator!=()</text>
<text text-anchor="start" x="142.12" y="-31" font-family="Helvetica,sans-Serif" font-size="10.00">+ operator==()</text>
<text text-anchor="start" x="142.12" y="-19" font-family="Helvetica,sans-Serif" font-size="10.00">~ GetChunkCoord()</text>
<text text-anchor="start" x="142.12" y="-7" font-family="Helvetica,sans-Serif" font-size="10.00">~ GetLayerCoord()</text>
</a>
</g>
</g>
<!-- Node2 -->
<g id="node2" class="node">
<title>Node2</title>
<g id="a_node2"><a xlink:title=" ">
<polygon fill="white" stroke="#666666" points="0,-277.5 0,-337.5 132.25,-337.5 132.25,-277.5 0,-277.5"/>
<text text-anchor="middle" x="66.12" y="-324" font-family="Helvetica,sans-Serif" font-size="10.00">IEquatable&lt; Tile3DCoord &gt;</text>
<polyline fill="none" stroke="#666666" points="0,-317.5 132.25,-317.5"/>
<text text-anchor="middle" x="66.12" y="-304" font-family="Helvetica,sans-Serif" font-size="10.00"> </text>
<polyline fill="none" stroke="#666666" points="0,-297.5 132.25,-297.5"/>
<text text-anchor="middle" x="66.12" y="-284" font-family="Helvetica,sans-Serif" font-size="10.00"> </text>
</a>
</g>
</g>
<!-- Node2&#45;&gt;Node1 -->
<g id="edge1" class="edge">
<title>Node2&#45;&gt;Node1</title>
<path fill="none" stroke="#63b8ff" d="M86.69,-267.98C101.37,-240.48 121.68,-202.46 139.95,-168.23"/>
<polygon fill="none" stroke="#63b8ff" points="83.17,-266.14 81.55,-276.61 89.35,-269.44 83.17,-266.14"/>
</g>
<!-- Node3 -->
<g id="node3" class="node">
<title>Node3</title>
<g id="a_node3"><a xlink:title=" ">
<polygon fill="white" stroke="#666666" points="149.88,-277.5 149.88,-337.5 218.38,-337.5 218.38,-277.5 149.88,-277.5"/>
<text text-anchor="middle" x="184.12" y="-324" font-family="Helvetica,sans-Serif" font-size="10.00">UnityEngine</text>
<polyline fill="none" stroke="#666666" points="149.88,-317.5 218.38,-317.5"/>
<text text-anchor="middle" x="184.12" y="-304" font-family="Helvetica,sans-Serif" font-size="10.00"> </text>
<polyline fill="none" stroke="#666666" points="149.88,-297.5 218.38,-297.5"/>
<text text-anchor="middle" x="184.12" y="-284" font-family="Helvetica,sans-Serif" font-size="10.00"> </text>
</a>
</g>
</g>
<!-- Node3&#45;&gt;Node1 -->
<g id="edge2" class="edge">
<title>Node3&#45;&gt;Node1</title>
<path fill="none" stroke="#404040" d="M184.12,-277.61C184.12,-252.91 184.12,-215.93 184.12,-180.98"/>
<polygon fill="none" stroke="#404040" points="184.13,-181.13 180.13,-175.13 184.13,-169.13 188.13,-175.13 184.13,-181.13"/>
<text text-anchor="middle" x="201.38" y="-189.5" font-family="Helvetica,sans-Serif" font-size="10.00"> +Coord</text>
</g>
<!-- Node4 -->
<g id="node4" class="node">
<title>Node4</title>
<g id="a_node4"><a xlink:href="struct_code_smile_1_1_pro_tiler_1_1_data_1_1_tile3_d.html" target="_top" xlink:title="Represents the saved data in a tilemap. Note: a TileIndex of 0 indicates an &quot;empty&quot; tile.">
<polygon fill="white" stroke="#666666" points="236.25,-217.5 236.25,-397.5 328,-397.5 328,-217.5 236.25,-217.5"/>
<text text-anchor="middle" x="282.12" y="-384" font-family="Helvetica,sans-Serif" font-size="10.00">Tile3D</text>
<polyline fill="none" stroke="#666666" points="236.25,-377.5 328,-377.5"/>
<text text-anchor="start" x="244.25" y="-364" font-family="Helvetica,sans-Serif" font-size="10.00">+ Flags</text>
<text text-anchor="start" x="244.25" y="-352" font-family="Helvetica,sans-Serif" font-size="10.00">+ Index</text>
<text text-anchor="start" x="244.25" y="-340" font-family="Helvetica,sans-Serif" font-size="10.00">+ Direction</text>
<text text-anchor="start" x="244.25" y="-328" font-family="Helvetica,sans-Serif" font-size="10.00">+ IsEmpty</text>
<polyline fill="none" stroke="#666666" points="236.25,-321.5 328,-321.5"/>
<text text-anchor="start" x="244.25" y="-308" font-family="Helvetica,sans-Serif" font-size="10.00">+ Tile3D()</text>
<text text-anchor="start" x="244.25" y="-296" font-family="Helvetica,sans-Serif" font-size="10.00">+ Tile3D()</text>
<text text-anchor="start" x="244.25" y="-284" font-family="Helvetica,sans-Serif" font-size="10.00">+ Equals()</text>
<text text-anchor="start" x="244.25" y="-272" font-family="Helvetica,sans-Serif" font-size="10.00">+ Equals()</text>
<text text-anchor="start" x="244.25" y="-260" font-family="Helvetica,sans-Serif" font-size="10.00">+ GetHashCode()</text>
<text text-anchor="start" x="244.25" y="-248" font-family="Helvetica,sans-Serif" font-size="10.00">+ ToString()</text>
<text text-anchor="start" x="244.25" y="-236" font-family="Helvetica,sans-Serif" font-size="10.00">+ operator!=()</text>
<text text-anchor="start" x="244.25" y="-224" font-family="Helvetica,sans-Serif" font-size="10.00">+ operator==()</text>
</a>
</g>
</g>
<!-- Node4&#45;&gt;Node1 -->
<g id="edge3" class="edge">
<title>Node4&#45;&gt;Node1</title>
<path fill="none" stroke="#404040" d="M242.69,-217.57C237.21,-205.2 231.56,-192.47 226.03,-180.01"/>
<polygon fill="none" stroke="#404040" points="226.01,-179.96 219.93,-176.1 221.15,-168.99 227.24,-172.86 226.01,-179.96"/>
<text text-anchor="middle" x="245.12" y="-189.5" font-family="Helvetica,sans-Serif" font-size="10.00"> +Tile</text>
</g>
<!-- Node5 -->
<g id="node5" class="node">
<title>Node5</title>
<g id="a_node5"><a xlink:title=" ">
<polygon fill="white" stroke="#666666" points="228.75,-435.5 228.75,-495.5 335.5,-495.5 335.5,-435.5 228.75,-435.5"/>
<text text-anchor="middle" x="282.12" y="-482" font-family="Helvetica,sans-Serif" font-size="10.00">IEquatable&lt; Tile3D &gt;</text>
<polyline fill="none" stroke="#666666" points="228.75,-475.5 335.5,-475.5"/>
<text text-anchor="middle" x="282.12" y="-462" font-family="Helvetica,sans-Serif" font-size="10.00"> </text>
<polyline fill="none" stroke="#666666" points="228.75,-455.5 335.5,-455.5"/>
<text text-anchor="middle" x="282.12" y="-442" font-family="Helvetica,sans-Serif" font-size="10.00"> </text>
</a>
</g>
</g>
<!-- Node5&#45;&gt;Node4 -->
<g id="edge4" class="edge">
<title>Node5&#45;&gt;Node4</title>
<path fill="none" stroke="#63b8ff" d="M282.12,-424.8C282.12,-416.25 282.12,-406.89 282.12,-397.3"/>
<polygon fill="none" stroke="#63b8ff" points="278.63,-424.52 282.12,-434.52 285.63,-424.52 278.63,-424.52"/>
</g>
</g>
</svg>
