<?xml version="1.0" encoding="UTF-8" standalone="no"?>
<!DOCTYPE svg PUBLIC "-//W3C//DTD SVG 1.1//EN"
 "http://www.w3.org/Graphics/SVG/1.1/DTD/svg11.dtd">
<!-- Generated by graphviz version 8.0.5 (20230430.1635)
 -->
<!-- Title: Tile3DCoord Pages: 1 -->
<!--zoomable 491 -->
<svg id="main" version="1.1" xmlns="http://www.w3.org/2000/svg" xmlns:xlink="http://www.w3.org/1999/xlink" xml:space="preserve" onload="init(evt)">
<style type="text/css"><![CDATA[
.edge:hover path { stroke: red; }
.edge:hover polygon { stroke: red; fill: red; }
]]></style>
<script type="text/javascript"><![CDATA[
var edges = document.getElementsByTagName('g');
if (edges && edges.length) {
  for (var i=0;i<edges.length;i++) {
    if (edges[i].id.substr(0,4)=='edge') {
      edges[i].setAttribute('class','edge');
    }
  }
}
]]></script>
        <defs>
                <circle id="rim" cx="0" cy="0" r="7"/>
                <circle id="rim2" cx="0" cy="0" r="3.5"/>
                <g id="zoomPlus">
                        <use xlink:href="#rim" fill="#404040">
                                <set attributeName="fill" to="#808080" begin="zoomplus.mouseover" end="zoomplus.mouseout"/>
                        </use>
                        <path d="M-4,0h8M0,-4v8" fill="none" stroke="white" stroke-width="1.5" pointer-events="none"/>
                </g>
                <g id="zoomMin">
                        <use xlink:href="#rim" fill="#404040">
                                <set attributeName="fill" to="#808080" begin="zoomminus.mouseover" end="zoomminus.mouseout"/>
                        </use>
                        <path d="M-4,0h8" fill="none" stroke="white" stroke-width="1.5" pointer-events="none"/>
                </g>
                <g id="dirArrow">
                        <path fill="none" stroke="white" stroke-width="1.5" d="M0,-3.0v7 M-2.5,-0.5L0,-3.0L2.5,-0.5"/>
                </g>
               <g id="resetDef">
                       <use xlink:href="#rim2" fill="#404040">
                               <set attributeName="fill" to="#808080" begin="reset.mouseover" end="reset.mouseout"/>
                       </use>
               </g>
        </defs>

<script type="text/javascript">
var viewWidth = 363;
var viewHeight = 491;
var sectionId = 'dynsection-1';
</script>
<script xlink:href="svgpan.js"/>
<svg id="graph" class="graph">
<g id="viewport">
<title>Tile3DCoord</title>
<!-- Node1 -->
<g id="node1" class="node">
<title>Node1</title>
<g id="a_node1"><a xlink:title="TileData for a specific coordinate.">
<polygon fill="#999999" stroke="#666666" points="134.12,-0.5 134.12,-156.5 234.12,-156.5 234.12,-0.5 134.12,-0.5"/>
<text text-anchor="middle" x="184.12" y="-143" font-family="Helvetica,sans-Serif" font-size="10.00">Tile3DCoord</text>
<polyline fill="none" stroke="#666666" points="134.12,-136.5 234.12,-136.5"/>
<text text-anchor="middle" x="184.12" y="-123" font-family="Helvetica,sans-Serif" font-size="10.00"> </text>
<polyline fill="none" stroke="#666666" points="134.12,-116.5 234.12,-116.5"/>
<text text-anchor="start" x="142.12" y="-103" font-family="Helvetica,sans-Serif" font-size="10.00">+ Tile3DCoord()</text>
<text text-anchor="start" x="142.12" y="-91" font-family="Helvetica,sans-Serif" font-size="10.00">+ Equals()</text>
<text text-anchor="start" x="142.12" y="-79" font-family="Helvetica,sans-Serif" font-size="10.00">+ Equals()</text>
<text text-anchor="start" x="142.12" y="-67" font-family="Helvetica,sans-Serif" font-size="10.00">+ GetHashCode()</text>
<text text-anchor="start" x="142.12" y="-55" font-family="Helvetica,sans-Serif" font-size="10.00">+ ToString()</text>
<text text-anchor="start" x="142.12" y="-43" font-family="Helvetica,sans-Serif" font-size="10.00">+ operator!=()</text>
<text text-anchor="start" x="142.12" y="-31" font-family="Helvetica,sans-Serif" font-size="10.00">+ operator==()</text>
<text text-anchor="start" x="142.12" y="-19" font-family="Helvetica,sans-Serif" font-size="10.00">~ GetChunkCoord()</text>
<text text-anchor="start" x="142.12" y="-7" font-family="Helvetica,sans-Serif" font-size="10.00">~ GetLayerCoord()</text>
</a>
</g>
</g>
<!-- Node2 -->
<g id="node2" class="node">
<title>Node2</title>
<g id="a_node2"><a xlink:title=" ">
<polygon fill="white" stroke="#666666" points="0,-259.5 0,-319.5 132.25,-319.5 132.25,-259.5 0,-259.5"/>
<text text-anchor="middle" x="66.12" y="-306" font-family="Helvetica,sans-Serif" font-size="10.00">IEquatable&lt; Tile3DCoord &gt;</text>
<polyline fill="none" stroke="#666666" points="0,-299.5 132.25,-299.5"/>
<text text-anchor="middle" x="66.12" y="-286" font-family="Helvetica,sans-Serif" font-size="10.00"> </text>
<polyline fill="none" stroke="#666666" points="0,-279.5 132.25,-279.5"/>
<text text-anchor="middle" x="66.12" y="-266" font-family="Helvetica,sans-Serif" font-size="10.00"> </text>
</a>
</g>
</g>
<!-- Node2&#45;&gt;Node1 -->
<g id="edge1" class="edge">
<title>Node2&#45;&gt;Node1</title>
<path fill="none" stroke="#63b8ff" d="M87.68,-250.31C102.5,-224.08 122.68,-188.33 140.75,-156.32"/>
<polygon fill="none" stroke="#63b8ff" points="84.15,-248.45 82.28,-258.88 90.25,-251.89 84.15,-248.45"/>
</g>
<!-- Node3 -->
<g id="node3" class="node">
<title>Node3</title>
<g id="a_node3"><a xlink:title=" ">
<polygon fill="white" stroke="#666666" points="149.88,-259.5 149.88,-319.5 218.38,-319.5 218.38,-259.5 149.88,-259.5"/>
<text text-anchor="middle" x="184.12" y="-306" font-family="Helvetica,sans-Serif" font-size="10.00">UnityEngine</text>
<polyline fill="none" stroke="#666666" points="149.88,-299.5 218.38,-299.5"/>
<text text-anchor="middle" x="184.12" y="-286" font-family="Helvetica,sans-Serif" font-size="10.00"> </text>
<polyline fill="none" stroke="#666666" points="149.88,-279.5 218.38,-279.5"/>
<text text-anchor="middle" x="184.12" y="-266" font-family="Helvetica,sans-Serif" font-size="10.00"> </text>
</a>
</g>
</g>
<!-- Node3&#45;&gt;Node1 -->
<g id="edge2" class="edge">
<title>Node3&#45;&gt;Node1</title>
<path fill="none" stroke="#404040" d="M184.12,-259.88C184.12,-236.39 184.12,-201.8 184.12,-169.18"/>
<polygon fill="none" stroke="#404040" points="184.13,-169.23 180.13,-163.23 184.13,-157.23 188.13,-163.23 184.13,-169.23"/>
<text text-anchor="middle" x="201.38" y="-177.5" font-family="Helvetica,sans-Serif" font-size="10.00"> +Coord</text>
</g>
<!-- Node4 -->
<g id="node4" class="node">
<title>Node4</title>
<g id="a_node4"><a xlink:href="struct_code_smile_1_1_pro_tiler_1_1_tile_1_1_tile3_d.html" target="_top" xlink:title="Represents the saved data in a tilemap. Note: a TileIndex of 0 indicates an &quot;empty&quot; tile.">
<polygon fill="white" stroke="#666666" points="236.25,-205.5 236.25,-373.5 328,-373.5 328,-205.5 236.25,-205.5"/>
<text text-anchor="middle" x="282.12" y="-360" font-family="Helvetica,sans-Serif" font-size="10.00">Tile3D</text>
<polyline fill="none" stroke="#666666" points="236.25,-353.5 328,-353.5"/>
<text text-anchor="start" x="244.25" y="-340" font-family="Helvetica,sans-Serif" font-size="10.00">+ Flags</text>
<text text-anchor="start" x="244.25" y="-328" font-family="Helvetica,sans-Serif" font-size="10.00">+ Direction</text>
<text text-anchor="start" x="244.25" y="-316" font-family="Helvetica,sans-Serif" font-size="10.00">+ IsEmpty</text>
<polyline fill="none" stroke="#666666" points="236.25,-309.5 328,-309.5"/>
<text text-anchor="start" x="244.25" y="-296" font-family="Helvetica,sans-Serif" font-size="10.00">+ Tile3D()</text>
<text text-anchor="start" x="244.25" y="-284" font-family="Helvetica,sans-Serif" font-size="10.00">+ Tile3D()</text>
<text text-anchor="start" x="244.25" y="-272" font-family="Helvetica,sans-Serif" font-size="10.00">+ Equals()</text>
<text text-anchor="start" x="244.25" y="-260" font-family="Helvetica,sans-Serif" font-size="10.00">+ Equals()</text>
<text text-anchor="start" x="244.25" y="-248" font-family="Helvetica,sans-Serif" font-size="10.00">+ GetHashCode()</text>
<text text-anchor="start" x="244.25" y="-236" font-family="Helvetica,sans-Serif" font-size="10.00">+ ToString()</text>
<text text-anchor="start" x="244.25" y="-224" font-family="Helvetica,sans-Serif" font-size="10.00">+ operator!=()</text>
<text text-anchor="start" x="244.25" y="-212" font-family="Helvetica,sans-Serif" font-size="10.00">+ operator==()</text>
</a>
</g>
</g>
<!-- Node4&#45;&gt;Node1 -->
<g id="edge3" class="edge">
<title>Node4&#45;&gt;Node1</title>
<path fill="none" stroke="#404040" d="M243.25,-205.6C237.4,-193.12 231.35,-180.21 225.45,-167.63"/>
<polygon fill="none" stroke="#404040" points="225.56,-167.87 219.39,-164.13 220.47,-157 226.64,-160.74 225.56,-167.87"/>
<text text-anchor="middle" x="245.12" y="-177.5" font-family="Helvetica,sans-Serif" font-size="10.00"> +Tile</text>
</g>
<!-- Node5 -->
<g id="node5" class="node">
<title>Node5</title>
<g id="a_node5"><a xlink:title=" ">
<polygon fill="white" stroke="#666666" points="180.75,-422.5 180.75,-482.5 287.5,-482.5 287.5,-422.5 180.75,-422.5"/>
<text text-anchor="middle" x="234.12" y="-469" font-family="Helvetica,sans-Serif" font-size="10.00">IEquatable&lt; Tile3D &gt;</text>
<polyline fill="none" stroke="#666666" points="180.75,-462.5 287.5,-462.5"/>
<text text-anchor="middle" x="234.12" y="-449" font-family="Helvetica,sans-Serif" font-size="10.00"> </text>
<polyline fill="none" stroke="#666666" points="180.75,-442.5 287.5,-442.5"/>
<text text-anchor="middle" x="234.12" y="-429" font-family="Helvetica,sans-Serif" font-size="10.00"> </text>
</a>
</g>
</g>
<!-- Node5&#45;&gt;Node4 -->
<g id="edge4" class="edge">
<title>Node5&#45;&gt;Node4</title>
<path fill="none" stroke="#63b8ff" d="M245.81,-412.31C249.35,-400.42 253.39,-386.88 257.45,-373.25"/>
<polygon fill="none" stroke="#63b8ff" points="242.21,-411.13 242.71,-421.72 248.92,-413.13 242.21,-411.13"/>
</g>
<!-- Node6 -->
<g id="node6" class="node">
<title>Node6</title>
<g id="a_node6"><a xlink:title=" ">
<polygon fill="white" stroke="#666666" points="305.25,-422.5 305.25,-482.5 355,-482.5 355,-422.5 305.25,-422.5"/>
<text text-anchor="middle" x="330.12" y="-469" font-family="Helvetica,sans-Serif" font-size="10.00">System</text>
<polyline fill="none" stroke="#666666" points="305.25,-462.5 355,-462.5"/>
<text text-anchor="middle" x="330.12" y="-449" font-family="Helvetica,sans-Serif" font-size="10.00"> </text>
<polyline fill="none" stroke="#666666" points="305.25,-442.5 355,-442.5"/>
<text text-anchor="middle" x="330.12" y="-429" font-family="Helvetica,sans-Serif" font-size="10.00"> </text>
</a>
</g>
</g>
<!-- Node6&#45;&gt;Node4 -->
<g id="edge5" class="edge">
<title>Node6&#45;&gt;Node4</title>
<path fill="none" stroke="#404040" d="M321.54,-422.72C318.34,-411.98 314.51,-399.12 310.51,-385.7"/>
<polygon fill="none" stroke="#404040" points="310.48,-385.62 304.94,-381.01 307.05,-374.12 312.6,-378.72 310.48,-385.62"/>
<text text-anchor="middle" x="331.25" y="-394.5" font-family="Helvetica,sans-Serif" font-size="10.00"> +Index</text>
</g>
</g>
</svg>
        <g id="navigator" transform="translate(0 0)" fill="#404254">
                <rect fill="#f2f5e9" fill-opacity="0.5" stroke="#606060" stroke-width=".5" x="0" y="0" width="60" height="60"/>
                <use id="zoomplus" xlink:href="#zoomPlus" x="17" y="9" onmousedown="handleZoom(evt,'in')"/>
                <use id="zoomminus" xlink:href="#zoomMin" x="42" y="9" onmousedown="handleZoom(evt,'out')"/>
                <use id="reset" xlink:href="#resetDef" x="30" y="36" onmousedown="handleReset()"/>
                <g id="arrowUp" xlink:href="#dirArrow" transform="translate(30 24)" onmousedown="handlePan(0,-1)">
                  <use xlink:href="#rim" fill="#404040">
                        <set attributeName="fill" to="#808080" begin="arrowUp.mouseover" end="arrowUp.mouseout"/>
                  </use>
                  <path fill="none" stroke="white" stroke-width="1.5" d="M0,-3.0v7 M-2.5,-0.5L0,-3.0L2.5,-0.5"/>
                </g>
                <g id="arrowRight" xlink:href="#dirArrow" transform="rotate(90) translate(36 -43)" onmousedown="handlePan(1,0)">
                  <use xlink:href="#rim" fill="#404040">
                        <set attributeName="fill" to="#808080" begin="arrowRight.mouseover" end="arrowRight.mouseout"/>
                  </use>
                  <path fill="none" stroke="white" stroke-width="1.5" d="M0,-3.0v7 M-2.5,-0.5L0,-3.0L2.5,-0.5"/>
                </g>
                <g id="arrowDown" xlink:href="#dirArrow" transform="rotate(180) translate(-30 -48)" onmousedown="handlePan(0,1)">
                  <use xlink:href="#rim" fill="#404040">
                        <set attributeName="fill" to="#808080" begin="arrowDown.mouseover" end="arrowDown.mouseout"/>
                  </use>
                  <path fill="none" stroke="white" stroke-width="1.5" d="M0,-3.0v7 M-2.5,-0.5L0,-3.0L2.5,-0.5"/>
                </g>
                <g id="arrowLeft" xlink:href="#dirArrow" transform="rotate(270) translate(-36 17)" onmousedown="handlePan(-1,0)">
                  <use xlink:href="#rim" fill="#404040">
                        <set attributeName="fill" to="#808080" begin="arrowLeft.mouseover" end="arrowLeft.mouseout"/>
                  </use>
                  <path fill="none" stroke="white" stroke-width="1.5" d="M0,-3.0v7 M-2.5,-0.5L0,-3.0L2.5,-0.5"/>
                </g>
        </g>
        <svg viewBox="0 0 15 15" width="100%" height="30px" preserveAspectRatio="xMaxYMin meet">
         <g id="arrow_out" transform="scale(0.3 0.3)">
          <a xlink:href="struct_code_smile_1_1_pro_tiler_1_1_tile_1_1_tile3_d_coord__coll__graph_org.svg" target="_base">
           <rect id="button" ry="5" rx="5" y="6" x="6" height="38" width="38"
                fill="#f2f5e9" fill-opacity="0.5" stroke="#606060" stroke-width="1.0"/>
           <path id="arrow"
             d="M 11.500037,31.436501 C 11.940474,20.09759 22.043105,11.32322 32.158766,21.979434 L 37.068811,17.246167 C 37.068811,17.246167 37.088388,32 37.088388,32 L 22.160133,31.978069 C 22.160133,31.978069 26.997745,27.140456 26.997745,27.140456 C 18.528582,18.264221 13.291696,25.230495 11.500037,31.436501 z"
             style="fill:#404040;"/>
          </a>
         </g>
        </svg>
</svg>
