<?xml version="1.0" encoding="UTF-8" standalone="no"?>
<!DOCTYPE svg PUBLIC "-//W3C//DTD SVG 1.1//EN"
 "http://www.w3.org/Graphics/SVG/1.1/DTD/svg11.dtd">
<!-- Generated by graphviz version 8.0.5 (20230430.1635)
 -->
<!-- Title: NativeArray2D&lt; T &gt; Pages: 1 -->
<svg width="368pt" height="406pt"
 viewBox="0.00 0.00 368.38 406.00" xmlns="http://www.w3.org/2000/svg" xmlns:xlink="http://www.w3.org/1999/xlink">
<g id="graph0" class="graph" transform="scale(1 1) rotate(0) translate(4 402)">
<title>NativeArray2D&lt; T &gt;</title>
<!-- Node1 -->
<g id="node1" class="node">
<title>Node1</title>
<g id="a_node1"><a xlink:title="A two&#45;dimensional array stored in native memory.">
<polygon fill="#999999" stroke="#666666" points="62.75,-0.5 62.75,-300.5 199.5,-300.5 199.5,-0.5 62.75,-0.5"/>
<text text-anchor="middle" x="131.12" y="-287" font-family="Helvetica,sans-Serif" font-size="10.00">NativeArray2D&lt; T &gt;</text>
<polyline fill="none" stroke="#666666" points="62.75,-280.5 199.5,-280.5"/>
<text text-anchor="start" x="70.75" y="-267" font-family="Helvetica,sans-Serif" font-size="10.00">+ IsCreated</text>
<text text-anchor="start" x="70.75" y="-255" font-family="Helvetica,sans-Serif" font-size="10.00">+ Length</text>
<text text-anchor="start" x="70.75" y="-243" font-family="Helvetica,sans-Serif" font-size="10.00">+ Length0</text>
<text text-anchor="start" x="70.75" y="-231" font-family="Helvetica,sans-Serif" font-size="10.00">+ Length1</text>
<text text-anchor="start" x="70.75" y="-219" font-family="Helvetica,sans-Serif" font-size="10.00">+ this[int index0, int index1]</text>
<polyline fill="none" stroke="#666666" points="62.75,-212.5 199.5,-212.5"/>
<text text-anchor="start" x="70.75" y="-199" font-family="Helvetica,sans-Serif" font-size="10.00">+ NativeArray2D()</text>
<text text-anchor="start" x="70.75" y="-187" font-family="Helvetica,sans-Serif" font-size="10.00">+ NativeArray2D()</text>
<text text-anchor="start" x="70.75" y="-175" font-family="Helvetica,sans-Serif" font-size="10.00">+ NativeArray2D()</text>
<text text-anchor="start" x="70.75" y="-163" font-family="Helvetica,sans-Serif" font-size="10.00">+ CopyFrom()</text>
<text text-anchor="start" x="70.75" y="-151" font-family="Helvetica,sans-Serif" font-size="10.00">+ CopyFrom()</text>
<text text-anchor="start" x="70.75" y="-139" font-family="Helvetica,sans-Serif" font-size="10.00">+ CopyTo()</text>
<text text-anchor="start" x="70.75" y="-127" font-family="Helvetica,sans-Serif" font-size="10.00">+ CopyTo()</text>
<text text-anchor="start" x="70.75" y="-115" font-family="Helvetica,sans-Serif" font-size="10.00">+ Dispose()</text>
<text text-anchor="start" x="70.75" y="-103" font-family="Helvetica,sans-Serif" font-size="10.00">+ Equals()</text>
<text text-anchor="start" x="70.75" y="-91" font-family="Helvetica,sans-Serif" font-size="10.00">+ Equals()</text>
<text text-anchor="start" x="70.75" y="-79" font-family="Helvetica,sans-Serif" font-size="10.00">+ GetEnumerator()</text>
<text text-anchor="start" x="70.75" y="-67" font-family="Helvetica,sans-Serif" font-size="10.00">+ GetEnumerator()</text>
<text text-anchor="start" x="70.75" y="-55" font-family="Helvetica,sans-Serif" font-size="10.00">+ GetEnumerator()</text>
<text text-anchor="start" x="70.75" y="-43" font-family="Helvetica,sans-Serif" font-size="10.00">+ GetHashCode()</text>
<text text-anchor="start" x="70.75" y="-31" font-family="Helvetica,sans-Serif" font-size="10.00">+ ToArray()</text>
<text text-anchor="start" x="70.75" y="-19" font-family="Helvetica,sans-Serif" font-size="10.00">+ operator!=()</text>
<text text-anchor="start" x="70.75" y="-7" font-family="Helvetica,sans-Serif" font-size="10.00">+ operator==()</text>
</a>
</g>
</g>
<!-- Node2 -->
<g id="node2" class="node">
<title>Node2</title>
<g id="a_node2"><a xlink:title=" ">
<polygon fill="white" stroke="#666666" points="0,-337.5 0,-397.5 66.25,-397.5 66.25,-337.5 0,-337.5"/>
<text text-anchor="middle" x="33.12" y="-384" font-family="Helvetica,sans-Serif" font-size="10.00">IDisposable</text>
<polyline fill="none" stroke="#666666" points="0,-377.5 66.25,-377.5"/>
<text text-anchor="middle" x="33.12" y="-364" font-family="Helvetica,sans-Serif" font-size="10.00"> </text>
<polyline fill="none" stroke="#666666" points="0,-357.5 66.25,-357.5"/>
<text text-anchor="middle" x="33.12" y="-344" font-family="Helvetica,sans-Serif" font-size="10.00"> </text>
</a>
</g>
</g>
<!-- Node2&#45;&gt;Node1 -->
<g id="edge1" class="edge">
<title>Node2&#45;&gt;Node1</title>
<path fill="none" stroke="#63b8ff" d="M50.88,-327.56C54.65,-319.29 58.84,-310.09 63.27,-300.36"/>
<polygon fill="none" stroke="#63b8ff" points="47.3,-325.95 46.34,-336.5 53.67,-328.86 47.3,-325.95"/>
</g>
<!-- Node3 -->
<g id="node3" class="node">
<title>Node3</title>
<g id="a_node3"><a xlink:title=" ">
<polygon fill="white" stroke="#666666" points="84.5,-337.5 84.5,-397.5 177.75,-397.5 177.75,-337.5 84.5,-337.5"/>
<text text-anchor="middle" x="131.12" y="-384" font-family="Helvetica,sans-Serif" font-size="10.00">IEnumerable&lt; T &gt;</text>
<polyline fill="none" stroke="#666666" points="84.5,-377.5 177.75,-377.5"/>
<text text-anchor="middle" x="131.12" y="-364" font-family="Helvetica,sans-Serif" font-size="10.00"> </text>
<polyline fill="none" stroke="#666666" points="84.5,-357.5 177.75,-357.5"/>
<text text-anchor="middle" x="131.12" y="-344" font-family="Helvetica,sans-Serif" font-size="10.00"> </text>
</a>
</g>
</g>
<!-- Node3&#45;&gt;Node1 -->
<g id="edge2" class="edge">
<title>Node3&#45;&gt;Node1</title>
<path fill="none" stroke="#63b8ff" d="M131.12,-326.73C131.12,-318.67 131.12,-309.76 131.12,-300.36"/>
<polygon fill="none" stroke="#63b8ff" points="127.63,-326.5 131.12,-336.5 134.63,-326.5 127.63,-326.5"/>
</g>
<!-- Node4 -->
<g id="node4" class="node">
<title>Node4</title>
<g id="a_node4"><a xlink:title=" ">
<polygon fill="white" stroke="#666666" points="195.88,-337.5 195.88,-397.5 360.38,-397.5 360.38,-337.5 195.88,-337.5"/>
<text text-anchor="middle" x="278.12" y="-384" font-family="Helvetica,sans-Serif" font-size="10.00">IEquatable&lt; NativeArray2D&lt; T &gt; &gt;</text>
<polyline fill="none" stroke="#666666" points="195.88,-377.5 360.38,-377.5"/>
<text text-anchor="middle" x="278.12" y="-364" font-family="Helvetica,sans-Serif" font-size="10.00"> </text>
<polyline fill="none" stroke="#666666" points="195.88,-357.5 360.38,-357.5"/>
<text text-anchor="middle" x="278.12" y="-344" font-family="Helvetica,sans-Serif" font-size="10.00"> </text>
</a>
</g>
</g>
<!-- Node4&#45;&gt;Node1 -->
<g id="edge3" class="edge">
<title>Node4&#45;&gt;Node1</title>
<path fill="none" stroke="#63b8ff" d="M252.26,-328.68C237.51,-307.09 218.24,-278.92 199.44,-251.41"/>
<polygon fill="none" stroke="#63b8ff" points="249.77,-330.22 258.3,-336.5 255.55,-326.27 249.77,-330.22"/>
</g>
</g>
</svg>
